<svg width="47" height="45" viewBox="0 0 47 45" fill="none" xmlns="http://www.w3.org/2000/svg">
    <path d="M34.8883 20.0298C38.0994 20.0298 41.1789 21.3054 43.4495 23.576C45.7201 25.8466 46.9957 28.9261 46.9957 32.1372C46.9957 35.3483 45.7201 38.4278 43.4495 40.6984C41.1789 42.9689 38.0994 44.2445 34.8883 44.2445C31.6772 44.2445 28.5977 42.9689 26.3271 40.6984C24.0566 38.4278 22.781 35.3483 22.781 32.1372C22.781 28.9261 24.0566 25.8466 26.3271 23.576C28.5977 21.3054 31.6772 20.0298 34.8883 20.0298ZM34.8883 24.4325L34.6902 24.4479C34.4703 24.4881 34.2678 24.5943 34.1097 24.7524C33.9516 24.9104 33.8454 25.1129 33.8053 25.3328L33.7876 25.5332V31.0365H28.2799L28.0818 31.0541C27.8619 31.0943 27.6594 31.2005 27.5013 31.3586C27.3432 31.5167 27.237 31.7191 27.1968 31.9391L27.1792 32.1372L27.1968 32.3353C27.237 32.5552 27.3432 32.7577 27.5013 32.9158C27.6594 33.0739 27.8619 33.1801 28.0818 33.2202L28.2799 33.2378H33.7876V38.7478L33.8053 38.9459C33.8454 39.1658 33.9516 39.3683 34.1097 39.5264C34.2678 39.6845 34.4703 39.7907 34.6902 39.8309L34.8883 39.8485L35.0864 39.8309C35.3064 39.7907 35.5088 39.6845 35.6669 39.5264C35.825 39.3683 35.9312 39.1658 35.9714 38.9459L35.989 38.7478V33.2378L41.5011 33.24L41.6993 33.2224C41.9192 33.1823 42.1217 33.0761 42.2797 32.918C42.4378 32.7599 42.544 32.5574 42.5842 32.3375L42.6018 32.1394L42.5842 31.9413C42.5439 31.721 42.4374 31.5183 42.2788 31.3602C42.1203 31.2021 41.9174 31.0961 41.6971 31.0563L41.4989 31.0387H35.989V25.5354L35.9714 25.3372C35.9316 25.1169 35.8256 24.914 35.6675 24.7555C35.5094 24.5969 35.3067 24.4904 35.0864 24.4501L34.8883 24.4325ZM27.7428 15.6271C28.6142 15.6273 29.4702 15.8574 30.2242 16.2941C30.9783 16.7309 31.6038 17.3589 32.0376 18.1147C29.7614 18.5785 27.6324 19.5893 25.8342 21.0599C24.0361 22.5305 22.6229 24.4167 21.7166 26.5555C20.8104 28.6944 20.4383 31.0217 20.6326 33.3364C20.8268 35.6512 21.5815 37.884 22.8316 39.8419L22.7876 39.8397C20.1597 39.8397 17.6395 38.7958 15.7814 36.9376C13.9232 35.0795 12.8793 32.5593 12.8793 29.9314V20.5802C12.8793 19.2665 13.4012 18.0067 14.33 17.0778C15.2589 16.149 16.5187 15.6271 17.8323 15.6271H27.7428ZM12.668 15.6271C11.5021 16.8399 10.8026 18.4259 10.6934 20.1047L10.678 20.5802V29.9336C10.678 31.7982 11.0985 33.5636 11.8513 35.1398C10.5465 35.4889 9.17896 35.5332 7.85433 35.2693C6.5297 35.0054 5.28351 34.4404 4.21212 33.6179C3.14072 32.7955 2.27283 31.7377 1.67555 30.5263C1.07827 29.3149 0.767605 27.9823 0.767578 26.6316V20.5802C0.767424 19.3251 1.24372 18.1168 2.1002 17.1994C2.95668 16.2821 4.12949 15.724 5.38158 15.6381L5.72059 15.6271H12.668ZM39.8413 15.6271C41.1549 15.6271 42.4148 16.149 43.3436 17.0778C44.2725 18.0067 44.7943 19.2665 44.7943 20.5802V21.8129C42.1329 19.2521 38.5817 17.8237 34.8883 17.8285L34.3534 17.8395C34.0122 17.0184 33.521 16.2682 32.9049 15.6271H39.8413ZM37.0897 2.41911C38.5492 2.41911 39.949 2.99893 40.9811 4.031C42.0132 5.06308 42.593 6.46288 42.593 7.92246C42.593 9.38204 42.0132 10.7818 40.9811 11.8139C39.949 12.846 38.5492 13.4258 37.0897 13.4258C35.6301 13.4258 34.2303 12.846 33.1982 11.8139C32.1661 10.7818 31.5863 9.38204 31.5863 7.92246C31.5863 6.46288 32.1661 5.06308 33.1982 4.031C34.2303 2.99893 35.6301 2.41911 37.0897 2.41911ZM22.781 0.217773C24.5325 0.217773 26.2122 0.913552 27.4507 2.15204C28.6892 3.39054 29.385 5.07029 29.385 6.82179C29.385 8.57328 28.6892 10.253 27.4507 11.4915C26.2122 12.73 24.5325 13.4258 22.781 13.4258C21.0295 13.4258 19.3497 12.73 18.1112 11.4915C16.8727 10.253 16.1769 8.57328 16.1769 6.82179C16.1769 5.07029 16.8727 3.39054 18.1112 2.15204C19.3497 0.913552 21.0295 0.217773 22.781 0.217773ZM8.47226 2.41911C9.93184 2.41911 11.3316 2.99893 12.3637 4.031C13.3958 5.06308 13.9756 6.46288 13.9756 7.92246C13.9756 9.38204 13.3958 10.7818 12.3637 11.8139C11.3316 12.846 9.93184 13.4258 8.47226 13.4258C7.01268 13.4258 5.61289 12.846 4.58081 11.8139C3.54873 10.7818 2.96892 9.38204 2.96892 7.92246C2.96892 6.46288 3.54873 5.06308 4.58081 4.031C5.61289 2.99893 7.01268 2.41911 8.47226 2.41911Z" fill="#181818"/>
</svg>
