<svg width="100" height="100" viewBox="0 0 100 100" fill="none" xmlns="http://www.w3.org/2000/svg">
<path d="M65.6251 4.68752C61.4511 4.68314 57.3233 5.56013 53.5116 7.2611C49.7 8.96207 46.2905 11.4487 43.5061 14.5582C40.7218 17.6678 38.6254 21.3302 37.3541 25.3059C36.0829 29.2815 35.6654 33.4808 36.129 37.6289L9.3399 74.1602C8.22515 75.6633 7.6904 77.5183 7.83393 79.3842C7.97746 81.2501 8.78962 83.0014 10.1211 84.3164L15.7032 89.8985C17.0182 91.23 18.7695 92.0421 20.6354 92.1857C22.5013 92.3292 24.3563 91.7944 25.8594 90.6797L62.3907 63.8906C66.3986 64.3238 70.4527 63.9361 74.3059 62.7512C78.159 61.5664 81.7305 59.6092 84.8026 56.9991C87.8747 54.3889 90.383 51.1804 92.1747 47.5692C93.9663 43.9579 95.0037 40.0197 95.2236 35.9944C95.4435 31.9692 94.8413 27.9414 93.4537 24.1565C92.0662 20.3716 89.9223 16.9089 87.1529 13.9796C84.3834 11.0503 81.0464 8.7157 77.3452 7.11816C73.644 5.52062 69.6563 4.6936 65.6251 4.68752ZM85.9376 34.375C85.9415 38.1386 84.8929 41.8284 82.9102 45.0274L54.9766 17.0899C58.0535 15.1957 61.5799 14.1566 65.1922 14.0796C68.8045 14.0026 72.3719 14.8905 75.5267 16.6518C78.6815 18.4131 81.3094 20.984 83.1394 24.0994C84.9694 27.2148 85.9353 30.7619 85.9376 34.375ZM21.3751 82.3086L17.6915 78.625L39.6407 48.6914C42.3571 53.5993 46.4008 57.6429 51.3087 60.3594L21.3751 82.3086ZM45.3126 34.375C45.3079 30.6113 46.3566 26.9214 48.3399 23.7227L76.2735 51.6563C73.1969 53.5502 69.6709 54.5893 66.0589 54.6665C62.447 54.7437 58.8798 53.8561 55.7251 52.0953C52.5705 50.3345 49.9425 47.7641 48.1122 44.6493C46.2819 41.5345 45.3155 37.9878 45.3126 34.375Z" fill="#181818"/>
</svg>
