<svg width="31" height="30" viewBox="0 0 31 30" fill="none" xmlns="http://www.w3.org/2000/svg">
<path d="M25.5033 26.2232C22.7831 26.2232 20.1317 25.6463 17.549 24.4927C14.9663 23.3391 12.6784 21.8148 10.6852 19.9199C8.69212 18.025 7.08953 15.8489 5.87747 13.3916C4.6654 10.9343 4.05895 8.41248 4.05811 5.82604C4.05811 5.46503 4.18463 5.16418 4.43767 4.92351C4.69071 4.68284 5.00701 4.5625 5.38657 4.5625H10.5106C10.8059 4.5625 11.0694 4.65275 11.3014 4.83326C11.5333 5.01376 11.6704 5.24441 11.7126 5.5252L12.535 9.73699C12.5771 10.0178 12.5717 10.2737 12.5185 10.5047C12.4654 10.7358 12.3443 10.9412 12.1554 11.1209L9.11892 14.0691C10.0046 15.5132 11.1116 16.867 12.4401 18.1305C13.7685 19.394 15.2341 20.4871 16.8367 21.4097L19.8099 18.5818C19.9997 18.4012 20.2476 18.2661 20.5538 18.1762C20.86 18.0864 21.1603 18.0611 21.4546 18.1004L25.8196 18.9428C26.1148 19.0029 26.3573 19.1385 26.5471 19.3495C26.7369 19.5605 26.8318 19.806 26.8318 20.086V24.9596C26.8318 25.3206 26.7052 25.6215 26.4522 25.8621C26.1992 26.1028 25.8829 26.2232 25.5033 26.2232Z" fill="#181818"/>
</svg>
