<svg width="28" height="28" viewBox="0 0 28 28" fill="none" xmlns="http://www.w3.org/2000/svg">
<g id="solar:cup-star-broken">
<g id="Group">
<path id="Vector" d="M14.3333 18.4668V21.5668" stroke="#E7E7E7" stroke-width="1.75" stroke-linecap="round"/>
<path id="Vector_2" d="M17.9499 24.6673H10.7166L11.0679 22.9148C11.1147 22.6806 11.2412 22.4699 11.4258 22.3184C11.6104 22.167 11.8418 22.0841 12.0806 22.084H16.5859C16.8247 22.0841 17.0561 22.167 17.2407 22.3184C17.4253 22.4699 17.5517 22.6806 17.5986 22.9148L17.9499 24.6673Z" stroke="#E7E7E7" stroke-width="1.75" stroke-linecap="round" stroke-linejoin="round"/>
<path id="Vector_3" d="M21.5667 7.09961L22.5473 7.42614C23.5703 7.76714 24.0818 7.93764 24.3742 8.34374C24.6667 8.74984 24.6667 9.28924 24.6667 10.367V10.4424C24.6667 11.3311 24.6667 11.7765 24.4528 12.1402C24.2389 12.5039 23.8493 12.7199 23.0722 13.1529L20.0167 14.8496M7.1 7.09961L6.11937 7.42614C5.09637 7.76714 4.58487 7.93764 4.29243 8.34374C4 8.74984 4 9.29028 4 10.367V10.4424C4 11.3311 4 11.7765 4.2139 12.1402C4.4278 12.5039 4.81737 12.7199 5.59443 13.1529L8.65 14.8496M13.4509 8.15671C13.8435 7.45094 14.0399 7.09961 14.3333 7.09961C14.6268 7.09961 14.8231 7.45094 15.2158 8.15671L15.3171 8.33858C15.4287 8.53904 15.4845 8.63824 15.5713 8.70438C15.6591 8.77051 15.7676 8.79531 15.9846 8.84388L16.1809 8.88934C16.9435 9.06191 17.3248 9.14768 17.4158 9.43908C17.5067 9.73151 17.2463 10.0353 16.7265 10.6429L16.5922 10.8C16.4444 10.9725 16.37 11.0583 16.337 11.1658C16.3039 11.2732 16.3153 11.3879 16.337 11.6184L16.3576 11.8281C16.4362 12.6393 16.4754 13.0454 16.2388 13.2252C16.0011 13.405 15.6436 13.2407 14.9296 12.9121L14.7456 12.8274C14.5421 12.7344 14.4408 12.6879 14.3333 12.6879C14.2259 12.6879 14.1246 12.7344 13.921 12.8274L13.7371 12.9121C13.0231 13.2417 12.6655 13.405 12.4279 13.2252C12.1902 13.0454 12.2305 12.6393 12.309 11.8281L12.3297 11.6184C12.3514 11.3879 12.3628 11.2732 12.3297 11.1658C12.2966 11.0593 12.2222 10.9725 12.0745 10.8L11.9401 10.6429C11.4204 10.0353 11.16 9.73151 11.2509 9.43908C11.3418 9.14768 11.7231 9.06191 12.4857 8.88934L12.6821 8.84388C12.8991 8.79531 13.0076 8.77154 13.0954 8.70438C13.1822 8.63824 13.238 8.53904 13.3496 8.33858L13.4509 8.15671Z" stroke="#E7E7E7" stroke-width="1.75"/>
<path id="Vector_4" d="M20.5334 24.6669H8.13342M19.5001 4.47145C20.2658 4.61715 20.7204 4.77835 21.1121 5.26195C21.605 5.86748 21.5791 6.52158 21.5264 7.82978C21.3404 12.5345 20.2864 18.4669 14.3344 18.4669C8.38245 18.4669 7.32742 12.5356 7.13935 7.82978C7.08768 6.52158 7.06185 5.86645 7.55268 5.26195C8.04455 4.65641 8.63252 4.55721 9.80948 4.35881C11.3049 4.11373 12.8181 3.99379 14.3334 4.00025C15.0753 4.00025 15.7656 4.02608 16.4001 4.07051" stroke="#E7E7E7" stroke-width="1.75" stroke-linecap="round"/>
</g>
</g>
</svg>
