<svg width="28" height="28" viewBox="0 0 28 28" fill="none" xmlns="http://www.w3.org/2000/svg">
<g id="ri:group-2-line">
<path id="Vector" d="M11.1416 13.4173C10.4454 13.4173 9.77771 13.1408 9.28543 12.6485C8.79315 12.1562 8.51659 11.4885 8.51659 10.7923C8.51659 10.0961 8.79315 9.42845 9.28543 8.93616C9.77771 8.44388 10.4454 8.16732 11.1416 8.16732C11.8378 8.16732 12.5055 8.44388 12.9977 8.93616C13.49 9.42845 13.7666 10.0961 13.7666 10.7923C13.7666 11.4885 13.49 12.1562 12.9977 12.6485C12.5055 13.1408 11.8378 13.4173 11.1416 13.4173ZM11.6666 23.04V19.134C11.6666 18.5646 11.8346 18.0408 12.1379 17.573C11.098 17.4251 10.0387 17.4958 9.02768 17.7804C8.01664 18.0651 7.07608 18.5575 6.26608 19.2262C7.54134 21.1133 9.46174 22.4699 11.6666 23.0412V23.04ZM5.19509 17.104C6.89899 15.843 8.96351 15.164 11.0833 15.1673C12.2649 15.1658 13.4372 15.376 14.5448 15.788C15.5691 15.389 16.7906 15.1673 18.0833 15.1673C20.0199 15.1673 21.7991 15.662 22.9902 16.516C23.3841 15.1042 23.4398 13.6194 23.153 12.1821C22.8662 10.7447 22.2449 9.39507 21.3394 8.24249C20.434 7.08992 19.2698 6.1668 17.9411 5.5479C16.6125 4.929 15.1568 4.63171 13.6919 4.68011C12.227 4.72852 10.794 5.12125 9.50915 5.82651C8.22427 6.53177 7.12355 7.52973 6.29614 8.73956C5.46873 9.9494 4.93788 11.3371 4.74659 12.7903C4.5553 14.2434 4.70895 15.7212 5.19509 17.104ZM22.0254 18.7677C21.5669 18.1458 20.0328 17.5007 18.0833 17.5007C15.7429 17.5007 13.9999 18.4305 13.9999 19.134V23.334C15.6191 23.3349 17.2106 22.9143 18.6179 22.1137C20.0253 21.3131 21.1988 20.1599 22.0254 18.7677ZM13.9999 25.6673C7.55642 25.6673 2.33325 20.4442 2.33325 14.0007C2.33325 7.55715 7.55642 2.33398 13.9999 2.33398C20.4434 2.33398 25.6666 7.55715 25.6666 14.0007C25.6666 20.4442 20.4434 25.6673 13.9999 25.6673ZM18.0833 14.584C17.4644 14.584 16.8709 14.3382 16.4333 13.9006C15.9958 13.463 15.7499 12.8695 15.7499 12.2507C15.7499 11.6318 15.9958 11.0383 16.4333 10.6007C16.8709 10.1632 17.4644 9.91732 18.0833 9.91732C18.7021 9.91732 19.2956 10.1632 19.7332 10.6007C20.1708 11.0383 20.4166 11.6318 20.4166 12.2507C20.4166 12.8695 20.1708 13.463 19.7332 13.9006C19.2956 14.3382 18.7021 14.584 18.0833 14.584Z" fill="#E7E7E7"/>
</g>
</svg>
