<svg width="28" height="28" viewBox="0 0 28 28" fill="none" xmlns="http://www.w3.org/2000/svg">
<g id="ic:baseline-access-time">
<path id="Vector" d="M13.9883 2.33398C7.54825 2.33398 2.33325 7.56065 2.33325 14.0007C2.33325 20.4407 7.54825 25.6673 13.9883 25.6673C20.4399 25.6673 25.6666 20.4407 25.6666 14.0007C25.6666 7.56065 20.4399 2.33398 13.9883 2.33398ZM13.9999 23.334C8.84325 23.334 4.66659 19.1573 4.66659 14.0007C4.66659 8.84398 8.84325 4.66732 13.9999 4.66732C19.1566 4.66732 23.3333 8.84398 23.3333 14.0007C23.3333 19.1573 19.1566 23.334 13.9999 23.334Z" fill="#E7E7E7"/>
<path id="Vector_2" d="M14.5833 8.16602H12.8333V15.166L18.9583 18.841L19.8333 17.406L14.5833 14.291V8.16602Z" fill="#E7E7E7"/>
</g>
</svg>
