<svg width="32" height="33" viewBox="0 0 32 33" fill="none" xmlns="http://www.w3.org/2000/svg">
<path d="M6.65886 29.5213C5.92552 29.5213 5.29752 29.2626 4.77486 28.7453C4.25219 28.2279 3.9913 27.6066 3.99219 26.8816V8.40348C3.99219 7.67756 4.25352 7.0559 4.77619 6.53851C5.29886 6.02113 5.92641 5.76287 6.65886 5.76375H7.99219V3.12402H10.6589V5.76375H21.3255V3.12402H23.9922V5.76375H25.3255C26.0589 5.76375 26.6869 6.02245 27.2095 6.53983C27.7322 7.05722 27.9931 7.67844 27.9922 8.40348V26.8816C27.9922 27.6075 27.7309 28.2292 27.2082 28.7466C26.6855 29.264 26.058 29.5222 25.3255 29.5213H6.65886ZM6.65886 26.8816H25.3255V13.6829H6.65886V26.8816ZM6.65886 11.0432H25.3255V8.40348H6.65886V11.0432ZM15.9922 18.9624C15.6144 18.9624 15.2975 18.8357 15.0415 18.5823C14.7855 18.3289 14.658 18.0156 14.6589 17.6425C14.6589 17.2686 14.7869 16.9549 15.0429 16.7015C15.2989 16.4481 15.6153 16.3218 15.9922 16.3227C16.37 16.3227 16.6869 16.4494 16.9429 16.7028C17.1989 16.9562 17.3264 17.2695 17.3255 17.6425C17.3255 18.0165 17.1975 18.3302 16.9415 18.5836C16.6855 18.837 16.3691 18.9633 15.9922 18.9624ZM10.6589 18.9624C10.2811 18.9624 9.96419 18.8357 9.70819 18.5823C9.45219 18.3289 9.32463 18.0156 9.32552 17.6425C9.32552 17.2686 9.45352 16.9549 9.70952 16.7015C9.96552 16.4481 10.282 16.3218 10.6589 16.3227C11.0366 16.3227 11.3535 16.4494 11.6095 16.7028C11.8655 16.9562 11.9931 17.2695 11.9922 17.6425C11.9922 18.0165 11.8642 18.3302 11.6082 18.5836C11.3522 18.837 11.0357 18.9633 10.6589 18.9624ZM21.3255 18.9624C20.9477 18.9624 20.6309 18.8357 20.3749 18.5823C20.1189 18.3289 19.9913 18.0156 19.9922 17.6425C19.9922 17.2686 20.1202 16.9549 20.3762 16.7015C20.6322 16.4481 20.9486 16.3218 21.3255 16.3227C21.7033 16.3227 22.0202 16.4494 22.2762 16.7028C22.5322 16.9562 22.6597 17.2695 22.6589 17.6425C22.6589 18.0165 22.5309 18.3302 22.2749 18.5836C22.0189 18.837 21.7024 18.9633 21.3255 18.9624ZM15.9922 24.2419C15.6144 24.2419 15.2975 24.1152 15.0415 23.8617C14.7855 23.6083 14.658 23.2951 14.6589 22.922C14.6589 22.548 14.7869 22.2344 15.0429 21.9809C15.2989 21.7275 15.6153 21.6013 15.9922 21.6021C16.37 21.6021 16.6869 21.7288 16.9429 21.9823C17.1989 22.2357 17.3264 22.5489 17.3255 22.922C17.3255 23.296 17.1975 23.6097 16.9415 23.8631C16.6855 24.1165 16.3691 24.2427 15.9922 24.2419ZM10.6589 24.2419C10.2811 24.2419 9.96419 24.1152 9.70819 23.8617C9.45219 23.6083 9.32463 23.2951 9.32552 22.922C9.32552 22.548 9.45352 22.2344 9.70952 21.9809C9.96552 21.7275 10.282 21.6013 10.6589 21.6021C11.0366 21.6021 11.3535 21.7288 11.6095 21.9823C11.8655 22.2357 11.9931 22.5489 11.9922 22.922C11.9922 23.296 11.8642 23.6097 11.6082 23.8631C11.3522 24.1165 11.0357 24.2427 10.6589 24.2419ZM21.3255 24.2419C20.9477 24.2419 20.6309 24.1152 20.3749 23.8617C20.1189 23.6083 19.9913 23.2951 19.9922 22.922C19.9922 22.548 20.1202 22.2344 20.3762 21.9809C20.6322 21.7275 20.9486 21.6013 21.3255 21.6021C21.7033 21.6021 22.0202 21.7288 22.2762 21.9823C22.5322 22.2357 22.6597 22.5489 22.6589 22.922C22.6589 23.296 22.5309 23.6097 22.2749 23.8631C22.0189 24.1165 21.7024 24.2427 21.3255 24.2419Z" fill="#747474"/>
</svg>
