<svg width="41" height="42" viewBox="0 0 41 42" fill="none" xmlns="http://www.w3.org/2000/svg">
<path d="M37.5595 17.1054C37.5556 17.0552 37.5511 17.0051 37.5458 16.9551C37.3944 14.8012 36.4332 12.7844 34.8557 11.3102C33.2781 9.83589 31.201 9.01337 29.0417 9.0079H11.9584C9.7689 8.998 7.66021 9.83435 6.07269 11.3423C4.48518 12.8502 3.54158 14.9131 3.43896 17.1003C3.42187 17.2352 3.41675 17.3753 3.41675 17.5325V28.6537C3.41675 30.2339 4.05396 31.7766 5.16266 32.8836C6.28813 34.0017 7.80946 34.6303 9.39592 34.6329C12.4709 34.6329 13.6736 32.9246 15.3751 29.5079C15.6245 29.0091 17.0697 26.0912 20.5001 26.0912C23.9099 26.0912 25.374 29.0074 25.6251 29.5079C27.3402 32.9246 28.5292 34.6329 31.6042 34.6329C33.1845 34.6329 34.7271 33.9957 35.8341 32.887C36.9522 31.7615 37.5809 30.2402 37.5834 28.6537V17.5496C37.5834 17.3873 37.5766 17.2421 37.5595 17.1054ZM11.9584 21.0192C11.5034 21.0295 11.051 20.9488 10.6276 20.7818C10.2042 20.6148 9.81846 20.3649 9.49299 20.0468C9.16752 19.7287 8.90889 19.3488 8.73227 18.9293C8.55566 18.5099 8.46462 18.0594 8.4645 17.6043C8.46439 17.1491 8.5552 16.6986 8.73161 16.2791C8.90802 15.8595 9.16646 15.4795 9.49177 15.1612C9.81708 14.8429 10.2027 14.5928 10.626 14.4256C11.0493 14.2584 11.5017 14.1775 11.9567 14.1876C12.8494 14.2073 13.6989 14.5757 14.3234 15.214C14.9478 15.8523 15.2976 16.7096 15.2978 17.6025C15.2981 18.4955 14.9487 19.353 14.3246 19.9916C13.7004 20.6301 12.8511 20.999 11.9584 21.0192ZM29.0417 12.4775C29.4948 12.4775 29.9293 12.6575 30.2497 12.9779C30.5701 13.2983 30.7501 13.7328 30.7501 14.1859C30.7501 14.6389 30.5701 15.0735 30.2497 15.3938C29.9293 15.7142 29.4948 15.8942 29.0417 15.8942C28.5887 15.8942 28.1541 15.7142 27.8338 15.3938C27.5134 15.0735 27.3334 14.6389 27.3334 14.1859C27.3334 13.7328 27.5134 13.2983 27.8338 12.9779C28.1541 12.6575 28.5887 12.4775 29.0417 12.4775ZM25.6251 19.3109C25.172 19.3109 24.7375 19.1309 24.4171 18.8105C24.0967 18.4901 23.9167 18.0556 23.9167 17.6025C23.9167 17.1494 24.0967 16.7149 24.4171 16.3946C24.7375 16.0742 25.172 15.8942 25.6251 15.8942C26.0782 15.8942 26.5127 16.0742 26.8331 16.3946C27.1534 16.7149 27.3334 17.1494 27.3334 17.6025C27.3334 18.0556 27.1534 18.4901 26.8331 18.8105C26.5127 19.1309 26.0782 19.3109 25.6251 19.3109ZM29.0417 22.7275C28.5887 22.7275 28.1541 22.5475 27.8338 22.2272C27.5134 21.9068 27.3334 21.4723 27.3334 21.0192C27.3334 20.5661 27.5134 20.1316 27.8338 19.8112C28.1541 19.4908 28.5887 19.3109 29.0417 19.3109C29.4948 19.3109 29.9293 19.4908 30.2497 19.8112C30.5701 20.1316 30.7501 20.5661 30.7501 21.0192C30.7501 21.4723 30.5701 21.9068 30.2497 22.2272C29.9293 22.5475 29.4948 22.7275 29.0417 22.7275ZM32.4584 19.3109C32.0053 19.3109 31.5708 19.1309 31.2504 18.8105C30.9301 18.4901 30.7501 18.0556 30.7501 17.6025C30.7501 17.1494 30.9301 16.7149 31.2504 16.3946C31.5708 16.0742 32.0053 15.8942 32.4584 15.8942C32.9115 15.8942 33.346 16.0742 33.6664 16.3946C33.9868 16.7149 34.1667 17.1494 34.1667 17.6025C34.1667 18.0556 33.9868 18.4901 33.6664 18.8105C33.346 19.1309 32.9115 19.3109 32.4584 19.3109Z" fill="#FF9900"/>
</svg>
