<svg width="41" height="39" viewBox="0 0 41 39" fill="none" xmlns="http://www.w3.org/2000/svg">
<path d="M27.9545 17.654C31.0482 17.654 33.5268 15.2293 33.5268 12.2254C33.5268 9.22164 31.0482 6.79688 27.9545 6.79688C24.8609 6.79688 22.3636 9.22164 22.3636 12.2254C22.3636 15.2293 24.8609 17.654 27.9545 17.654ZM13.0455 17.654C16.1391 17.654 18.6177 15.2293 18.6177 12.2254C18.6177 9.22164 16.1391 6.79688 13.0455 6.79688C9.95182 6.79688 7.45455 9.22164 7.45455 12.2254C7.45455 15.2293 9.95182 17.654 13.0455 17.654ZM13.0455 21.2731C8.70318 21.2731 0 23.3902 0 27.6064V30.3207C0 31.3159 0.838636 32.1302 1.86364 32.1302H24.2273C25.2523 32.1302 26.0909 31.3159 26.0909 30.3207V27.6064C26.0909 23.3902 17.3877 21.2731 13.0455 21.2731ZM27.9545 21.2731C27.4141 21.2731 26.7991 21.3093 26.1468 21.3635C26.1841 21.3816 26.2027 21.4178 26.2214 21.4359C28.3459 22.9378 29.8182 24.9464 29.8182 27.6064V30.3207C29.8182 30.954 29.6877 31.5693 29.4827 32.1302H39.1364C40.1614 32.1302 41 31.3159 41 30.3207V27.6064C41 23.3902 32.2968 21.2731 27.9545 21.2731Z" fill="#FF9900"/>
</svg>
