<svg width="150" height="150" viewBox="0 0 150 150" fill="none" xmlns="http://www.w3.org/2000/svg">
<path fill-rule="evenodd" clip-rule="evenodd" d="M75 150C116.423 150 150 116.423 150 75C150 33.5775 116.423 0 75 0C33.5775 0 0 33.5775 0 75C0 116.423 33.5775 150 75 150ZM97.5 75C101.64 75 105 69.96 105 63.75C105 57.54 101.64 52.5 97.5 52.5C93.36 52.5 90 57.54 90 63.75C90 69.96 93.36 75 97.5 75ZM60 63.75C60 69.96 56.64 75 52.5 75C48.36 75 45 69.96 45 63.75C45 57.54 48.36 52.5 52.5 52.5C56.64 52.5 60 57.54 60 63.75ZM47.9775 115.853C48.4179 116.446 48.9711 116.948 49.6054 117.327C50.2397 117.707 50.9426 117.958 51.674 118.066C52.4054 118.174 53.1509 118.137 53.8679 117.957C54.5849 117.776 55.2593 117.456 55.8525 117.015C61.3785 112.875 68.0953 110.634 75 110.625C81.9044 110.635 88.6207 112.877 94.1475 117.015C94.7389 117.475 95.4163 117.813 96.1399 118.007C96.8636 118.202 97.6188 118.25 98.3613 118.149C99.1039 118.048 99.8187 117.8 100.464 117.418C101.109 117.037 101.671 116.531 102.118 115.929C102.565 115.327 102.887 114.643 103.065 113.915C103.244 113.187 103.275 112.431 103.157 111.691C103.039 110.951 102.774 110.242 102.379 109.605C101.983 108.969 101.464 108.418 100.852 107.985C93.388 102.404 84.3202 99.3841 75 99.375C65.6798 99.3841 56.612 102.404 49.1475 107.985C47.9492 108.873 47.1528 110.201 46.9334 111.676C46.7139 113.152 47.0895 114.654 47.9775 115.853Z" fill="#FF9900"/>
</svg>
