<svg width="390" height="390" viewBox="0 0 390 390" fill="none" xmlns="http://www.w3.org/2000/svg">
<path d="M111.662 165.344C110.687 171.34 114.757 177.084 120.307 180.643C126.108 184.356 134.379 186.387 144.113 184.949C148.464 184.359 152.639 182.846 156.358 180.511C160.077 178.177 163.254 175.075 165.677 171.413C169.772 165.214 171.454 157.665 169.577 152.067C169.359 151.421 168.982 150.839 168.48 150.377C167.978 149.915 167.368 149.586 166.706 149.422C166.043 149.257 165.35 149.263 164.691 149.437C164.031 149.611 163.425 149.948 162.931 150.418C148.338 164.263 131.861 167.667 117.081 162.183C116.518 161.975 115.916 161.894 115.318 161.947C114.72 161.999 114.141 162.184 113.623 162.487C113.104 162.79 112.66 163.204 112.321 163.699C111.982 164.195 111.757 164.751 111.662 165.344ZM274.779 165.344C275.746 171.34 271.676 177.084 266.126 180.643C260.325 184.356 252.062 186.387 242.32 184.949C237.97 184.358 233.797 182.844 230.08 180.51C226.362 178.175 223.186 175.074 220.764 171.413C216.669 165.214 214.979 157.665 216.864 152.067C217.082 151.421 217.459 150.839 217.961 150.377C218.463 149.915 219.073 149.586 219.736 149.422C220.398 149.257 221.091 149.263 221.751 149.437C222.41 149.611 223.016 149.948 223.511 150.418C238.103 164.263 254.581 167.667 269.352 162.183C269.915 161.973 270.518 161.892 271.117 161.943C271.716 161.995 272.296 162.179 272.816 162.483C273.335 162.786 273.78 163.2 274.12 163.696C274.459 164.193 274.685 164.75 274.779 165.344ZM270.221 251.875C256.246 222.934 227.809 203.125 195 203.125C162.191 203.125 133.754 222.934 119.779 251.875C115.968 259.756 122.346 268.125 131.105 268.125H258.895C267.654 268.125 274.032 259.756 270.221 251.875Z" fill="#FF9900"/>
<path fill-rule="evenodd" clip-rule="evenodd" d="M195 341.25C275.771 341.25 341.25 275.771 341.25 195C341.25 114.229 275.771 48.75 195 48.75C114.229 48.75 48.75 114.229 48.75 195C48.75 275.771 114.229 341.25 195 341.25ZM195 325C266.801 325 325 266.801 325 195C325 123.199 266.801 65 195 65C123.199 65 65 123.199 65 195C65 266.801 123.199 325 195 325Z" fill="#FF9900"/>
</svg>
