<svg width="41" height="38" viewBox="0 0 41 38" fill="none" xmlns="http://www.w3.org/2000/svg">
<path d="M2.05 6.33203H12.3C12.8437 6.33203 13.3651 6.53012 13.7496 6.88273C14.134 7.23534 14.35 7.71358 14.35 8.21224V34.5352C14.35 35.0338 14.134 35.5121 13.7496 35.8647C13.3651 36.2173 12.8437 36.4154 12.3 36.4154H2.05C1.50631 36.4154 0.984881 36.2173 0.600431 35.8647C0.215982 35.5121 0 35.0338 0 34.5352V8.21224C0 7.71358 0.215982 7.23534 0.600431 6.88273C0.984881 6.53012 1.50631 6.33203 2.05 6.33203ZM2.05 27.0143V30.7747H6.15V27.0143H2.05ZM20.5 11.9727H36.9C37.9874 11.9727 39.0302 12.3688 39.7991 13.0741C40.568 13.7793 41 14.7357 41 15.7331V27.0143C41 28.0116 40.568 28.9681 39.7991 29.6733C39.0302 30.3786 37.9874 30.7747 36.9 30.7747H20.5C19.4126 30.7747 18.3698 30.3786 17.6009 29.6733C16.832 28.9681 16.4 28.0116 16.4 27.0143V15.7331C16.4 14.7357 16.832 13.7793 17.6009 13.0741C18.3698 12.3688 19.4126 11.9727 20.5 11.9727ZM24.6 32.6549H32.8C33.3437 32.6549 33.8651 32.853 34.2496 33.2056C34.634 33.5583 34.85 34.0365 34.85 34.5352C34.85 35.0338 34.634 35.5121 34.2496 35.8647C33.8651 36.2173 33.3437 36.4154 32.8 36.4154H24.6C24.0563 36.4154 23.5349 36.2173 23.1504 35.8647C22.766 35.5121 22.55 35.0338 22.55 34.5352C22.55 34.0365 22.766 33.5583 23.1504 33.2056C23.5349 32.853 24.0563 32.6549 24.6 32.6549Z" fill="#FF9900"/>
</svg>
