<svg width="260" height="260" viewBox="0 0 260 260" fill="none" xmlns="http://www.w3.org/2000/svg">
<path d="M131.473 24.375C72.0688 23.5726 23.5727 72.0687 24.375 131.473C25.1672 188.444 71.5559 234.833 128.527 235.625C187.941 236.438 236.427 187.941 235.615 128.537C234.833 71.5559 188.444 25.1672 131.473 24.375ZM122.947 122.114L149.124 92.1527C150.542 90.5298 152.547 89.5368 154.698 89.392C156.848 89.2473 158.968 89.9627 160.591 91.3809C162.214 92.799 163.207 94.8038 163.351 96.9542C163.496 99.1046 162.781 101.224 161.363 102.847L135.185 132.808C134.483 133.612 133.629 134.269 132.673 134.743C131.716 135.217 130.676 135.497 129.611 135.569C128.547 135.641 127.478 135.502 126.467 135.161C125.456 134.819 124.522 134.282 123.718 133.58C122.915 132.878 122.257 132.024 121.784 131.068C121.31 130.112 121.029 129.071 120.958 128.007C120.886 126.942 121.025 125.874 121.366 124.862C121.707 123.851 122.244 122.917 122.947 122.114ZM103.213 168.248C101.689 169.771 99.6235 170.626 97.4696 170.626C95.3156 170.626 93.2498 169.771 91.7262 168.248L67.3766 143.873C66.6224 143.119 66.0242 142.222 65.6163 141.236C65.2084 140.25 64.9986 139.194 64.9991 138.126C64.9996 137.059 65.2102 136.003 65.619 135.017C66.0278 134.031 66.6268 133.136 67.3817 132.382C68.1366 131.627 69.0326 131.029 70.0187 130.621C71.0048 130.213 72.0615 130.004 73.1286 130.004C74.1957 130.005 75.2523 130.215 76.238 130.624C77.2237 131.033 78.1193 131.632 78.8735 132.387L103.248 156.762C104.766 158.29 105.615 160.358 105.609 162.512C105.602 164.666 104.74 166.73 103.213 168.248ZM192.994 102.847L136.18 167.847C135.448 168.686 134.552 169.365 133.546 169.843C132.541 170.321 131.448 170.587 130.335 170.625H130.061C128.993 170.625 127.936 170.415 126.95 170.006C125.963 169.598 125.067 168.999 124.313 168.243L99.968 143.868C98.4448 142.344 97.5896 140.277 97.5905 138.121C97.5915 135.966 98.4485 133.9 99.9731 132.377C101.498 130.853 103.565 129.998 105.72 129.999C107.875 130 109.942 130.857 111.465 132.382L126.598 147.53C126.991 147.923 127.461 148.232 127.979 148.436C128.496 148.64 129.05 148.736 129.606 148.718C130.162 148.699 130.709 148.567 131.212 148.328C131.714 148.09 132.163 147.751 132.529 147.332L180.771 92.1527C182.189 90.5298 184.194 89.5368 186.344 89.392C188.495 89.2473 190.615 89.9627 192.238 91.3809C193.86 92.799 194.853 94.8038 194.998 96.9542C195.143 99.1046 194.428 101.224 193.009 102.847H192.994Z" fill="#FF9900"/>
</svg>
