<svg width="294" height="294" viewBox="0 0 294 294" fill="none" xmlns="http://www.w3.org/2000/svg">
<path d="M63.6618 117.344C62.6868 123.34 66.7574 129.085 72.3068 132.643C78.108 136.357 86.3793 138.388 96.113 136.95C100.464 136.359 104.639 134.846 108.358 132.512C112.077 130.177 115.254 127.075 117.677 123.413C121.772 117.214 123.454 109.666 121.577 104.068C121.359 103.421 120.982 102.84 120.48 102.378C119.978 101.915 119.368 101.587 118.706 101.422C118.043 101.258 117.35 101.263 116.691 101.437C116.031 101.611 115.425 101.949 114.931 102.418C100.338 116.263 83.8605 119.668 69.0812 114.183C68.5181 113.975 67.9158 113.895 67.3178 113.947C66.7198 114 66.1409 114.184 65.6227 114.487C65.1044 114.79 64.6598 115.204 64.3208 115.7C63.9817 116.195 63.7567 116.751 63.6618 117.344ZM226.779 117.344C227.746 123.34 223.676 129.085 218.126 132.643C212.325 136.357 204.062 138.388 194.32 136.95C189.97 136.358 185.797 134.845 182.08 132.51C178.362 130.176 175.186 127.074 172.764 123.413C168.669 117.214 166.979 109.666 168.864 104.068C169.082 103.421 169.459 102.84 169.961 102.378C170.463 101.915 171.073 101.587 171.736 101.422C172.398 101.258 173.091 101.263 173.751 101.437C174.41 101.611 175.016 101.949 175.511 102.418C190.103 116.263 206.581 119.668 221.352 114.183C221.915 113.974 222.518 113.892 223.117 113.944C223.716 113.996 224.296 114.18 224.816 114.483C225.335 114.786 225.78 115.201 226.12 115.697C226.459 116.193 226.685 116.75 226.779 117.344ZM222.221 203.875C208.246 174.934 179.809 155.125 147 155.125C114.191 155.125 85.7537 174.934 71.7787 203.875C67.968 211.757 74.3462 220.125 83.1049 220.125H210.895C219.654 220.125 226.032 211.757 222.221 203.875Z" fill="#FF9900"/>
<path fill-rule="evenodd" clip-rule="evenodd" d="M147 293.25C227.771 293.25 293.25 227.771 293.25 147C293.25 66.2294 227.771 0.75 147 0.75C66.2294 0.75 0.75 66.2294 0.75 147C0.75 227.771 66.2294 293.25 147 293.25ZM147 277C218.801 277 277 218.801 277 147C277 75.1994 218.801 17 147 17C75.1994 17 17 75.1994 17 147C17 218.801 75.1994 277 147 277Z" fill="#FF9900"/>
</svg>
