<svg width="41" height="38" viewBox="0 0 41 38" fill="none" xmlns="http://www.w3.org/2000/svg">
<g clip-path="url(#clip0_7748_12644)">
<path d="M20.5013 7.714C25.2599 7.714 29.5367 9.23638 32.4169 11.9748C34.7869 12.2604 37.0226 13.1574 38.8693 14.5635C35.638 8.26975 28.9448 4.75 20.5013 4.75C12.1732 4.75 5.43381 8.265 2.16406 14.5398C3.85719 13.2589 5.87692 12.4027 8.02963 12.0531C10.8561 9.196 15.3097 7.714 20.5013 7.714Z" fill="#FF9900"/>
<path d="M30.7504 33.25C28.084 33.2529 25.5221 32.2898 23.6112 30.5662L23.6061 30.5615C23.3853 30.4077 23.1483 30.2748 22.8989 30.1649C22.1478 29.8418 21.3283 29.6787 20.5004 29.6875C19.4395 29.6875 18.6323 29.9321 18.1044 30.1649C17.8541 30.2747 17.6163 30.4076 17.3946 30.5615L17.3895 30.5662C16.1846 31.6503 14.7109 32.4435 13.0978 32.8759C11.4847 33.3084 9.78163 33.3669 8.13841 33.0463C6.49519 32.7257 4.96212 32.0358 3.674 31.0374C2.38588 30.0389 1.38216 28.7624 0.751097 27.3201C0.120035 25.8779 -0.119042 24.314 0.0548901 22.766C0.228822 21.218 0.810434 19.7333 1.74859 18.4425C2.68674 17.1517 3.9527 16.0943 5.43515 15.3632C6.9176 14.6322 8.57113 14.2499 10.2504 14.25H30.7504C33.4688 14.25 36.076 15.2509 37.9982 17.0325C39.9204 18.8141 41.0004 21.2304 41.0004 23.75C41.0004 26.2696 39.9204 28.6859 37.9982 30.4675C36.076 32.2491 33.4688 33.25 30.7504 33.25Z" fill="#FF9900"/>
</g>
<defs>
<clipPath id="clip0_7748_12644">
<rect width="41" height="38" fill="white"/>
</clipPath>
</defs>
</svg>
