<svg width="32" height="32" viewBox="0 0 32 32" fill="none" xmlns="http://www.w3.org/2000/svg">
<path fill-rule="evenodd" clip-rule="evenodd" d="M19.307 19.0483H19.3845C21.9223 17.9281 23.9462 15.8948 25.0549 13.352V18.9837C25.0652 22.5933 22.9276 25.8633 19.617 27.302H19.5266C18.4319 27.7655 17.2536 27.9986 16.0649 27.9866C14.916 27.9897 13.7782 27.7613 12.7195 27.3149L12.3836 27.1728C9.08025 25.7908 6.93773 22.5515 6.95865 18.9708V18.7383C6.98343 16.9045 7.73074 15.1546 9.03823 13.8687L9.27073 13.6491C11.3261 11.6361 13.0212 9.28565 14.2824 6.69992L16.052 3.08325C16.052 3.08325 17.8861 5.66659 19.5911 8.24992C21.6705 11.3352 20.9789 15.5072 18.0153 17.7566H17.8603C17.5526 18.1438 17.5861 18.7006 17.9378 19.0483C18.0849 19.1725 18.2756 19.2329 18.4674 19.2162C18.7543 19.2041 19.0375 19.1475 19.307 19.0483ZM18.7387 25.5066H18.8291V25.4937C21.4117 24.3617 23.0867 21.8163 23.1045 18.9966C22.2334 19.7632 21.2373 20.3749 20.1595 20.8049L19.9916 20.8695C19.5054 21.0588 18.9891 21.1594 18.4674 21.1666C17.7604 21.1915 17.0741 20.9254 16.5687 20.4303C15.5134 19.3874 15.4132 17.717 16.3362 16.5553C16.4489 16.4145 16.5791 16.2886 16.7237 16.1808H16.8141C18.9921 14.5561 19.5045 11.5044 17.9766 9.25742C17.4212 8.43075 16.8657 7.60409 16.3491 6.86784L16.0262 7.5395C14.6591 10.2949 12.8333 12.7976 10.627 14.9408L10.3945 15.1603C9.45633 16.0862 8.91842 17.3429 8.89616 18.6608V18.9062C8.86116 21.7209 10.537 24.2756 13.1328 25.3645L13.4687 25.5066C15.1526 26.2215 17.0547 26.2215 18.7387 25.5066Z" fill="white"/>
</svg>
