<svg width="23" height="20" viewBox="0 0 23 20" fill="none" xmlns="http://www.w3.org/2000/svg">
<path d="M8.66931 15.9464L7.78126 15.8003L8.66931 15.9464ZM10.1658 12.3962C10.2466 11.9057 9.91442 11.4427 9.42396 11.362C8.9335 11.2812 8.47046 11.6134 8.38973 12.1038L10.1658 12.3962ZM14.3307 15.9464L13.4426 16.0926L14.3307 15.9464ZM14.6103 12.1038C14.5295 11.6134 14.0665 11.2812 13.576 11.362C13.0856 11.4427 12.7534 11.9057 12.8342 12.3962L14.6103 12.1038ZM15.9444 12.25L15.9444 13.15L15.9444 12.25ZM7.05555 1V0.1V1ZM7.05556 12.25V11.35V12.25ZM6.15556 8.875C6.15556 9.37206 6.5585 9.775 7.05556 9.775C7.55261 9.775 7.95556 9.37206 7.95556 8.875L6.15556 8.875ZM7.95556 4.375C7.95556 3.87794 7.55261 3.475 7.05556 3.475C6.5585 3.475 6.15556 3.87794 6.15556 4.375L7.95556 4.375ZM9.27778 7.525C9.77483 7.525 10.1778 7.12206 10.1778 6.625C10.1778 6.12794 9.77483 5.725 9.27778 5.725V7.525ZM4.83333 5.725C4.33628 5.725 3.93333 6.12794 3.93333 6.625C3.93333 7.12206 4.33628 7.525 4.83333 7.525V5.725ZM14.8333 5.275C15.3304 5.275 15.7333 4.87206 15.7333 4.375C15.7333 3.87794 15.3304 3.475 14.8333 3.475V5.275ZM13.7222 3.475C13.2252 3.475 12.8222 3.87794 12.8222 4.375C12.8222 4.87206 13.2252 5.275 13.7222 5.275L13.7222 3.475ZM17.0556 8.65C17.5526 8.65 17.9556 8.24706 17.9556 7.75C17.9556 7.25294 17.5526 6.85 17.0556 6.85V8.65ZM15.9444 6.85C15.4474 6.85 15.0444 7.25294 15.0444 7.75C15.0444 8.24706 15.4474 8.65 15.9444 8.65V6.85ZM9.55736 16.0926L10.1658 12.3962L8.38973 12.1038L7.78126 15.8003L9.55736 16.0926ZM0.6 6.625V15.3457H2.4V6.625H0.6ZM5.10921 19.9C7.32222 19.9 9.19705 18.2815 9.55736 16.0926L7.78126 15.8003C7.56146 17.1355 6.42484 18.1 5.10921 18.1V19.9ZM5.10921 18.1C3.62346 18.1 2.4 16.8774 2.4 15.3457H0.6C0.6 17.8504 2.60833 19.9 5.10921 19.9V18.1ZM15.2187 15.8003L14.6103 12.1038L12.8342 12.3962L13.4426 16.0926L15.2187 15.8003ZM20.6 6.625V15.3457H22.4V6.625H20.6ZM17.8908 18.1C16.5752 18.1 15.4385 17.1355 15.2187 15.8003L13.4426 16.0926C13.8029 18.2815 15.6778 19.9 17.8908 19.9V18.1ZM17.8908 19.9C20.3917 19.9 22.4 17.8504 22.4 15.3457H20.6C20.6 16.8774 19.3765 18.1 17.8908 18.1V19.9ZM7.05555 1.9L15.9444 1.9V0.1L7.05555 0.1V1.9ZM15.9444 11.35H7.05556V13.15H15.9444V11.35ZM20.6 6.625C20.6 9.24512 18.5051 11.35 15.9444 11.35L15.9444 13.15C19.5203 13.15 22.4 10.2181 22.4 6.625H20.6ZM15.9444 1.9C18.5051 1.9 20.6 4.00488 20.6 6.625H22.4C22.4 3.03192 19.5203 0.0999998 15.9444 0.1V1.9ZM2.4 6.625C2.4 4.00488 4.49487 1.9 7.05555 1.9V0.1C3.47974 0.100001 0.6 3.03192 0.6 6.625H2.4ZM0.6 6.625C0.6 10.2181 3.47974 13.15 7.05556 13.15V11.35C4.49487 11.35 2.4 9.24512 2.4 6.625H0.6ZM7.95556 8.875L7.95556 4.375L6.15556 4.375L6.15556 8.875L7.95556 8.875ZM9.27778 5.725H4.83333V7.525H9.27778V5.725ZM14.8333 3.475L13.7222 3.475L13.7222 5.275L14.8333 5.275V3.475ZM17.0556 6.85H15.9444V8.65H17.0556V6.85Z" fill="white"/>
</svg>
