<svg width="19" height="24" viewBox="0 0 19 24" fill="none" xmlns="http://www.w3.org/2000/svg">
<path d="M18.9 12C18.9 11.5029 18.4971 11.1 18 11.1C17.5029 11.1 17.1 11.5029 17.1 12H18.9ZM1.9 12C1.9 11.5029 1.49706 11.1 1 11.1C0.502944 11.1 0.1 11.5029 0.1 12H1.9ZM8.28571 6.78889C8.78277 6.78889 9.18571 6.38595 9.18571 5.88889C9.18571 5.39183 8.78277 4.98889 8.28571 4.98889V6.78889ZM4.64286 8.65556C4.1458 8.65556 3.74286 9.0585 3.74286 9.55556C3.74286 10.0526 4.1458 10.4556 4.64286 10.4556V8.65556ZM8.28571 10.4556C8.78277 10.4556 9.18571 10.0526 9.18571 9.55556C9.18571 9.0585 8.78277 8.65556 8.28571 8.65556V10.4556ZM8.6 23C8.6 23.4971 9.00294 23.9 9.5 23.9C9.99706 23.9 10.4 23.4971 10.4 23H8.6ZM9.5 21.4556C14.697 21.4556 18.9 17.2166 18.9 12H17.1C17.1 16.2336 13.6918 19.6556 9.5 19.6556V21.4556ZM9.5 19.6556C5.30815 19.6556 1.9 16.2336 1.9 12H0.1C0.1 17.2166 4.303 21.4556 9.5 21.4556V19.6556ZM13.4571 5.88889V12H15.2571V5.88889H13.4571ZM5.54286 12V5.88889H3.74286V12H5.54286ZM9.5 15.9889C7.32005 15.9889 5.54286 14.2085 5.54286 12H3.74286C3.74286 15.1916 6.3149 17.7889 9.5 17.7889V15.9889ZM13.4571 12C13.4571 14.2085 11.68 15.9889 9.5 15.9889V17.7889C12.6851 17.7889 15.2571 15.1916 15.2571 12H13.4571ZM9.5 1.9C11.68 1.9 13.4571 3.68035 13.4571 5.88889H15.2571C15.2571 2.69731 12.6851 0.1 9.5 0.1V1.9ZM9.5 0.1C6.3149 0.1 3.74286 2.69731 3.74286 5.88889H5.54286C5.54286 3.68035 7.32005 1.9 9.5 1.9V0.1ZM4.64286 6.78889H8.28571V4.98889H4.64286V6.78889ZM4.64286 10.4556H8.28571V8.65556H4.64286V10.4556ZM8.6 20.5556V23H10.4V20.5556H8.6Z" fill="white"/>
</svg>
