<svg width="14" height="24" viewBox="0 0 14 24" fill="none" xmlns="http://www.w3.org/2000/svg">
<path d="M12.5 22.5V23.35C12.9694 23.35 13.35 22.9694 13.35 22.5H12.5ZM1.5 22.5H0.65C0.65 22.9694 1.03056 23.35 1.5 23.35L1.5 22.5ZM1.5 7.33333L1.32362 6.50183C0.930892 6.58514 0.65 6.93187 0.65 7.33333H1.5ZM12.5 7.33333H13.35C13.35 6.93187 13.0691 6.58514 12.6764 6.50183L12.5 7.33333ZM1.5 12H0.65C0.65 12.3412 0.853971 12.6493 1.16803 12.7825L1.5 12ZM12.5 12L12.832 12.7825C13.146 12.6493 13.35 12.3412 13.35 12H12.5ZM4.25 13.1667H5.1C5.1 12.8255 4.89603 12.5174 4.58197 12.3842L4.25 13.1667ZM9.75 13.1667L9.41803 12.3842C9.10397 12.5174 8.9 12.8255 8.9 13.1667H9.75ZM4.25 19.85H9.75V18.15H4.25V19.85ZM11.65 21.3333V22.5H13.35V21.3333H11.65ZM12.5 21.65H1.5V23.35H12.5V21.65ZM2.35 22.5V21.3333H0.65V22.5H2.35ZM9.75 19.85C10.9356 19.85 11.65 20.6397 11.65 21.3333H13.35C13.35 19.4496 11.6019 18.15 9.75 18.15V19.85ZM4.25 18.15C2.39807 18.15 0.65 19.4496 0.65 21.3333H2.35C2.35 20.6397 3.06437 19.85 4.25 19.85V18.15ZM1.67638 8.16483L7.17638 6.99817L6.82362 5.33517L1.32362 6.50183L1.67638 8.16483ZM6.82362 6.99817L12.3236 8.16483L12.6764 6.50183L7.17638 5.33517L6.82362 6.99817ZM2.35 12V7.33333H0.65V12H2.35ZM11.65 7.33333V12H13.35V7.33333H11.65ZM5.1 19V13.1667H3.4V19H5.1ZM4.58197 12.3842L1.83197 11.2175L1.16803 12.7825L3.91803 13.9492L4.58197 12.3842ZM12.168 11.2175L9.41803 12.3842L10.082 13.9492L12.832 12.7825L12.168 11.2175ZM8.9 13.1667V19H10.6V13.1667H8.9ZM8.9 3.83333C8.9 4.52698 8.18563 5.31667 7 5.31667V7.01667C8.85193 7.01667 10.6 5.71702 10.6 3.83333H8.9ZM7 5.31667C5.81437 5.31667 5.1 4.52698 5.1 3.83333H3.4C3.4 5.71702 5.14807 7.01667 7 7.01667V5.31667ZM5.1 3.83333C5.1 3.13969 5.81437 2.35 7 2.35V0.65C5.14807 0.65 3.4 1.94965 3.4 3.83333H5.1ZM7 2.35C8.18563 2.35 8.9 3.13969 8.9 3.83333H10.6C10.6 1.94965 8.85193 0.65 7 0.65V2.35Z" fill="white"/>
</svg>
