<svg width="26" height="28" viewBox="0 0 26 28" fill="none" xmlns="http://www.w3.org/2000/svg">
<path d="M20.8 9V2.75M5.2 25.25V19M17.8 5.875H23.8M2.2 22.125H8.2M6.4 1.5L5.45865 3.46115C5.14006 4.12487 4.98077 4.45673 4.76796 4.74431C4.57913 4.99949 4.35951 5.22826 4.11454 5.42496C3.83846 5.64663 3.51987 5.81257 2.8827 6.14443L1 7.125L2.8827 8.10557C3.51987 8.43743 3.83846 8.60337 4.11454 8.82504C4.35951 9.02174 4.57913 9.25051 4.76796 9.50569C4.98077 9.79327 5.14006 10.1251 5.45865 10.7889L6.4 12.75L7.34135 10.7889C7.65994 10.1251 7.81923 9.79327 8.03204 9.50569C8.22087 9.25051 8.44049 9.02174 8.68546 8.82504C8.96154 8.60337 9.28013 8.43743 9.9173 8.10557L11.8 7.125L9.9173 6.14443C9.28013 5.81257 8.96154 5.64663 8.68546 5.42496C8.44049 5.22826 8.22087 4.99949 8.03204 4.74431C7.81923 4.45673 7.65994 4.12487 7.34135 3.46115L6.4 1.5ZM19 14L17.8587 16.3778C17.5401 17.0415 17.3808 17.3734 17.168 17.661C16.9791 17.9162 16.7595 18.1449 16.5145 18.3416C16.2385 18.5633 15.9199 18.7292 15.2827 19.0611L13 20.25L15.2827 21.4389C15.9199 21.7708 16.2385 21.9367 16.5145 22.1584C16.7595 22.3551 16.9791 22.5838 17.168 22.839C17.3808 23.1266 17.5401 23.4585 17.8587 24.1222L19 26.5L20.1414 24.1222C20.4599 23.4585 20.6192 23.1266 20.832 22.839C21.0209 22.5838 21.2405 22.3551 21.4855 22.1584C21.7615 21.9367 22.0801 21.7708 22.7173 21.4389L25 20.25L22.7173 19.0611C22.0801 18.7292 21.7615 18.5633 21.4855 18.3416C21.2405 18.1449 21.0209 17.9162 20.832 17.661C20.6192 17.3734 20.4599 17.0415 20.1414 16.3778L19 14Z" stroke="white" stroke-width="1.8" stroke-linecap="round" stroke-linejoin="round"/>
</svg>
