<svg width="29" height="28" viewBox="0 0 29 28" fill="none" xmlns="http://www.w3.org/2000/svg">
<path d="M1 9.66667L1 8.76667C0.502944 8.76667 0.1 9.16961 0.1 9.66667H1ZM14.0714 9.66667V8.76667V9.66667ZM16 11.5238H15.1H16ZM1 19.7778H0.100001H1ZM16 19.7778H16.9H16ZM12.1 9.66667C12.1 10.1637 12.5029 10.5667 13 10.5667C13.4971 10.5667 13.9 10.1637 13.9 9.66667H12.1ZM13 1V0.1C12.5029 0.1 12.1 0.502944 12.1 1L13 1ZM28 1H28.9C28.9 0.502944 28.4971 0.1 28 0.1V1ZM16.5275 16.1602C16.1247 15.8689 15.5621 15.9592 15.2708 16.362C14.9795 16.7647 15.0698 17.3273 15.4725 17.6187L16.5275 16.1602ZM8.50002 21.2222L8.50002 22.1222L8.50002 21.2222ZM6.67287 19.3143C6.41691 18.8882 5.864 18.7503 5.43792 19.0063C5.01183 19.2622 4.87391 19.8151 5.12987 20.2412L6.67287 19.3143ZM11.8702 20.2412C12.1261 19.8151 11.9882 19.2622 11.5621 19.0063C11.136 18.7503 10.5831 18.8882 10.3272 19.3143L11.8702 20.2412ZM20.5 11.1111V10.2111V11.1111ZM17.1298 12.0921C16.8739 12.5182 17.0118 13.0711 17.4379 13.3271C17.864 13.583 18.4169 13.4451 18.6728 13.019L17.1298 12.0921ZM22.3272 13.019C22.5831 13.4451 23.136 13.583 23.5621 13.3271C23.9882 13.0711 24.1261 12.5182 23.8701 12.0921L22.3272 13.019ZM4.6 15.4444C4.6 15.9415 5.00295 16.3444 5.50001 16.3444C5.99706 16.3444 6.4 15.9415 6.4 15.4444L4.6 15.4444ZM6.4 14C6.4 13.5029 5.99706 13.1 5.5 13.1C5.00294 13.1 4.6 13.5029 4.6 14L6.4 14ZM10.6 15.4444C10.6 15.9415 11.0029 16.3444 11.5 16.3444C11.9971 16.3444 12.4 15.9415 12.4 15.4444H10.6ZM12.4 14C12.4 13.5029 11.9971 13.1 11.5 13.1C11.0029 13.1 10.6 13.5029 10.6 14H12.4ZM16.6 6.77778C16.6 7.27484 17.0029 7.67778 17.5 7.67778C17.9971 7.67778 18.4 7.27483 18.4 6.77778L16.6 6.77778ZM18.4 5.33333C18.4 4.83628 17.9971 4.43333 17.5 4.43333C17.0029 4.43333 16.6 4.83628 16.6 5.33333L18.4 5.33333ZM22.6 6.77778C22.6 7.27483 23.0029 7.67778 23.5 7.67778C23.9971 7.67778 24.4 7.27483 24.4 6.77778H22.6ZM24.4 5.33333C24.4 4.83628 23.9971 4.43333 23.5 4.43333C23.0029 4.43333 22.6 4.83628 22.6 5.33333H24.4ZM1.9 19.7778L1.9 9.66667H0.1L0.100001 19.7778H1.9ZM1 10.5667L14.0714 10.5667L14.0714 8.76667L1 8.76667L1 10.5667ZM15.1 11.5238L15.1 19.7778H16.9L16.9 11.5238H15.1ZM14.0714 10.5667C14.6718 10.5667 15.1 11.0269 15.1 11.5238H16.9C16.9 9.96937 15.6013 8.76667 14.0714 8.76667V10.5667ZM8.5 26.1C4.82261 26.1 1.9 23.2377 1.9 19.7778H0.100001C0.100001 24.2953 3.89313 27.9 8.5 27.9V26.1ZM8.5 27.9C13.1069 27.9 16.9 24.2953 16.9 19.7778H15.1C15.1 23.2377 12.1774 26.1 8.5 26.1V27.9ZM13.9 9.66667V1H12.1V9.66667H13.9ZM13 1.9H28V0.1H13V1.9ZM27.1 1V11.1111H28.9V1H27.1ZM20.5 19.2333C25.1069 19.2333 28.9 15.6286 28.9 11.1111H27.1C27.1 14.5711 24.1774 17.4333 20.5 17.4333V19.2333ZM20.5 17.4333C19.0047 17.4333 17.6305 16.958 16.5275 16.1602L15.4725 17.6187C16.8765 18.6341 18.6185 19.2333 20.5 19.2333V17.4333ZM8.50002 20.3222C7.70743 20.3222 7.02984 19.9086 6.67287 19.3143L5.12987 20.2412C5.81033 21.374 7.07177 22.1222 8.50002 22.1222L8.50002 20.3222ZM8.50002 22.1222C9.92828 22.1222 11.1897 21.374 11.8702 20.2412L10.3272 19.3143C9.97021 19.9086 9.29261 20.3222 8.50002 20.3222L8.50002 22.1222ZM20.5 10.2111C19.0717 10.2111 17.8103 10.9594 17.1298 12.0921L18.6728 13.019C19.0298 12.4248 19.7074 12.0111 20.5 12.0111V10.2111ZM20.5 12.0111C21.2926 12.0111 21.9702 12.4248 22.3272 13.019L23.8701 12.0921C23.1897 10.9594 21.9283 10.2111 20.5 10.2111V12.0111ZM6.4 15.4444L6.4 14L4.6 14L4.6 15.4444L6.4 15.4444ZM12.4 15.4444V14H10.6V15.4444H12.4ZM18.4 6.77778L18.4 5.33333L16.6 5.33333L16.6 6.77778L18.4 6.77778ZM24.4 6.77778V5.33333H22.6V6.77778H24.4Z" fill="white"/>
</svg>
