<svg width="28" height="24" viewBox="0 0 28 24" fill="none" xmlns="http://www.w3.org/2000/svg">
<path d="M25.8296 0.915696L2.05873 10.1032C0.454562 10.6865 0.454562 11.7074 1.76706 11.999L7.74623 13.8949L10.0796 20.8949C10.3712 21.624 10.2254 21.9157 10.9546 21.9157C11.5379 21.9157 11.8296 21.624 12.1212 21.3324C12.2671 21.1865 13.5796 19.874 15.0379 18.4157L21.1629 22.9365C22.3296 23.5199 23.0587 23.2282 23.3504 21.9157L27.4337 2.81153C27.8712 1.20736 26.8504 0.332362 25.8296 0.915696ZM22.7671 5.2907L11.3921 15.6449L10.9546 20.4574L8.62123 13.4574L22.0379 4.99903C22.6212 4.56153 23.2046 4.8532 22.7671 5.2907Z" fill="#FF9900"/>
</svg>
