<svg width="46" height="46" viewBox="0 0 46 46" fill="none" xmlns="http://www.w3.org/2000/svg">
<path d="M8.49228 40.8482C9.73695 34.7229 15.7589 30.0769 23 30.0769C30.2411 30.0769 36.263 34.7229 37.5077 40.8482C33.55 44.0691 28.5005 46 23 46C17.4995 46 12.45 44.0691 8.49228 40.8482Z" fill="white"/>
<path d="M30.0769 19.9038C30.0769 23.8937 26.8425 27.1282 22.8526 27.1282C18.8627 27.1282 15.6282 23.8937 15.6282 19.9038C15.6282 15.9139 18.8627 12.6795 22.8526 12.6795C26.8425 12.6795 30.0769 15.9139 30.0769 19.9038Z" fill="white"/>
<path d="M45.5 23C45.5 29.7571 42.5214 35.8185 37.8056 39.9428C36.165 33.959 30.1264 29.5769 23 29.5769C15.8736 29.5769 9.83498 33.959 8.19444 39.9428C3.4786 35.8185 0.5 29.7571 0.5 23C0.5 10.5736 10.5736 0.5 23 0.5C35.4264 0.5 45.5 10.5736 45.5 23ZM9.52433 41.0199C9.36339 40.8993 9.20411 40.7767 9.04655 40.652C10.3687 34.938 16.0794 30.5769 23 30.5769C29.9206 30.5769 35.6313 34.938 36.9535 40.652C33.6847 43.2393 29.6805 44.938 25.3055 45.3833C24.5475 45.4605 23.7784 45.5 23 45.5C22.2234 45.5 21.4559 45.4607 20.6995 45.3838C16.5335 44.9608 12.7034 43.4011 9.52433 41.0199ZM29.5769 19.9038C29.5769 23.6176 26.5663 26.6282 22.8526 26.6282C19.1388 26.6282 16.1282 23.6176 16.1282 19.9038C16.1282 16.1901 19.1388 13.1795 22.8526 13.1795C26.5663 13.1795 29.5769 16.1901 29.5769 19.9038ZM22.8526 27.6282C27.1186 27.6282 30.5769 24.1699 30.5769 19.9038C30.5769 15.6378 27.1186 12.1795 22.8526 12.1795C18.5865 12.1795 15.1282 15.6378 15.1282 19.9038C15.1282 24.1699 18.5865 27.6282 22.8526 27.6282Z" stroke="white"/>
</svg>
