<svg width="206" height="38" viewBox="0 0 206 38" fill="none" xmlns="http://www.w3.org/2000/svg">
<path d="M11.8423 12.1733C15.1709 12.1733 17.9459 14.005 19.2382 15.9844V12.6678H24.3222V37.4118H20.8694C19.9686 37.4118 19.2382 36.6312 19.2382 35.6656V34.0985C17.9459 36.0763 15.1709 37.9065 11.8423 37.9065C5.51187 37.9065 0.703125 32.1177 0.703125 25.0406C0.703125 17.9635 5.51187 12.1733 11.8423 12.1733ZM12.7672 17.123C8.6527 17.123 5.87901 20.5863 5.87901 25.0406C5.87901 29.4936 8.6527 32.9591 12.7672 32.9591C16.8804 32.9591 19.6554 29.4936 19.6554 25.0406C19.6554 20.5863 16.8806 17.123 12.7672 17.123Z" fill="#B8B8B8" fill-opacity="0.81"/>
<path d="M30.0938 12.6678H35.1791V16.0327C36.5645 13.5591 39.2004 12.1733 42.205 12.1733C47.5659 12.1733 51.0336 16.2313 51.0336 22.5168V37.411H47.5795C46.6789 37.411 45.9483 36.6289 45.9483 35.6648V23.4076C45.9483 19.4985 44.0984 17.123 41.1423 17.123C37.7678 17.123 35.1793 19.9438 35.1793 25.2378V37.411H31.7237C30.8244 37.411 30.0938 36.6289 30.0938 35.6648V12.6678Z" fill="#B8B8B8" fill-opacity="0.81"/>
<path d="M66.1949 12.1721C69.5222 12.1721 72.2972 14.0037 73.5908 15.9831V0.295898H78.6735V37.4106H75.2207C74.3215 37.4106 73.5908 36.6299 73.5908 35.6644V34.0973C72.2972 36.075 69.5222 37.9053 66.1949 37.9053C59.8616 37.9053 55.0547 32.1165 55.0547 25.0394C55.0547 17.9623 59.8619 12.1721 66.1949 12.1721ZM67.12 17.1217C63.0068 17.1217 60.2331 20.585 60.2331 25.0394C60.2331 29.4924 63.0068 32.9579 67.12 32.9579C71.2317 32.9579 74.0054 29.4924 74.0054 25.0394C74.0054 20.585 71.2317 17.1217 67.12 17.1217Z" fill="#B8B8B8" fill-opacity="0.81"/>
<path d="M84.4531 12.6681H89.5372V17.0725C90.4149 14.2517 93.0036 12.4209 95.6392 12.4209C96.2847 12.4209 96.9341 12.4709 97.6271 12.6189V18.2105C96.7465 17.9133 96.0094 17.7653 95.0858 17.7653C92.1731 17.7653 89.5374 20.3894 89.5374 25.3379V37.4113H86.0833C85.1841 37.4113 84.4534 36.6293 84.4534 35.6651V12.6681H84.4531Z" fill="#B8B8B8" fill-opacity="0.81"/>
<path d="M111.336 37.9065C104.497 37.9065 99.2266 32.2144 99.2266 25.042C99.2266 17.866 104.497 12.1733 111.336 12.1733C118.179 12.1733 123.446 17.8646 123.446 25.042C123.446 32.2144 118.179 37.9065 111.336 37.9065ZM111.336 32.8608C115.404 32.8608 118.27 29.4444 118.27 25.042C118.27 20.6384 115.404 17.2221 111.336 17.2221C107.223 17.2221 104.358 20.6384 104.358 25.042C104.358 29.4444 107.223 32.8608 111.336 32.8608Z" fill="#B8B8B8" fill-opacity="0.81"/>
<path d="M130.108 7.27488C128.259 7.27488 126.688 5.6435 126.688 3.61217C126.688 1.63276 128.259 0 130.108 0C132.002 0 133.482 1.63303 133.482 3.61217C133.482 5.6435 132.002 7.27488 130.108 7.27488ZM127.568 12.6676H132.651V37.4116H129.198C128.297 37.4116 127.568 36.6279 127.568 35.6654V12.6676Z" fill="#B8B8B8" fill-opacity="0.81"/>
<path d="M147.966 12.1721C151.294 12.1721 154.068 14.0037 155.363 15.9831V0.295898H160.447V37.4106H156.994C156.092 37.4106 155.363 36.6299 155.363 35.6644V34.0973C154.068 36.075 151.294 37.9053 147.966 37.9053C141.635 37.9053 136.828 32.1165 136.828 25.0394C136.828 17.9623 141.635 12.1721 147.966 12.1721ZM148.891 17.1217C144.779 17.1217 142.006 20.585 142.006 25.0394C142.006 29.4924 144.779 32.9579 148.891 32.9579C153.005 32.9579 155.779 29.4924 155.779 25.0394C155.779 20.585 153.005 17.1217 148.891 17.1217Z" fill="#B8B8B8" fill-opacity="0.81"/>
<path d="M169.287 15.817H164.312V12.5336H169.287V5.61499H172.54V12.5336H179.327V15.817H172.54V30.2C172.54 33.2348 173.796 34.4288 176.398 34.4288C177.327 34.4288 178.583 34.2294 179.327 33.8825V37.017C178.256 37.4652 177.142 37.6644 175.887 37.6644C171.936 37.6644 169.287 35.2241 169.287 30.4964V15.817Z" fill="#B8B8B8" fill-opacity="0.81"/>
<path d="M205.77 12.5317L194.895 37.4148H192.338L181.461 12.5317H185.087L193.593 32.2882L202.099 12.5317H205.77Z" fill="#B8B8B8" fill-opacity="0.81"/>
</svg>
