<svg width="96" height="40" viewBox="0 0 96 40" fill="none" xmlns="http://www.w3.org/2000/svg">
<path d="M20.1102 6.83959C21.4664 5.10393 22.1384 2.87789 21.9856 0.627441C19.9072 0.840708 17.9886 1.90603 16.6365 3.59758C15.9632 4.40782 15.4471 5.35152 15.118 6.37445C14.7888 7.39738 14.653 8.47937 14.7185 9.55825C15.7538 9.57982 16.7798 9.34549 17.7154 8.87371C18.6511 8.40193 19.4709 7.7056 20.1102 6.83959ZM21.8578 9.96832C18.8742 9.78481 16.3594 11.7808 14.9316 11.7808C13.5037 11.7808 11.33 10.068 8.98571 10.1133C7.45075 10.1593 5.95402 10.6327 4.6451 11.4863C3.33617 12.3399 2.2609 13.5437 1.52673 14.9775C-1.66997 20.8679 0.674279 29.6424 3.78574 34.4386C5.29884 36.7177 7.11031 39.4341 9.51849 39.3457C11.9267 39.2574 12.6726 37.7599 15.4217 37.7599C18.1709 37.7599 18.9807 39.3457 21.3676 39.2891C23.7545 39.2325 25.4168 37.0054 26.9086 34.5314C27.9846 32.8416 28.8245 30.9949 29.402 29.0488C27.9689 28.3744 26.7499 27.2739 25.8916 25.8799C25.0333 24.4859 24.5723 22.8579 24.5643 21.1919C24.582 19.7136 24.9483 18.2637 25.6296 16.975C26.311 15.6862 27.2856 14.5998 28.4643 13.8152C27.7154 12.6769 26.7298 11.7373 25.5841 11.0694C24.4384 10.4014 23.1633 10.0231 21.8578 9.96379V9.96832ZM40.8888 5.39643V11.8646H45.7478V16.1352H40.8888V31.439C40.8888 33.7226 41.8478 34.8871 43.979 34.8871C44.5634 34.8759 45.1468 34.8305 45.7265 34.7512V39.0558C44.7754 39.2195 43.8128 39.2953 42.8495 39.2823C37.82 39.2823 35.8806 37.2048 35.8806 31.9963V16.2371H32.0659V11.9552H35.7741V5.40096L40.8888 5.39643ZM62.733 39.0467H57.4051L48.4544 11.9552H53.7609L60.0477 33.7226H60.1756L66.4625 11.9552H71.6624L62.733 39.0467ZM86.1328 39.0467H81.5296V27.9455H71.6411V23.0564H81.5083V11.9552H86.1115V23.0564H96V27.9455H86.1328V39.0467Z" fill="#B8B8B8" fill-opacity="0.81"/>
</svg>
