<svg width="102" height="102" viewBox="0 0 102 102" fill="none" xmlns="http://www.w3.org/2000/svg">
<rect width="102" height="102" rx="51" fill="#150BF3"/>
<path d="M72.25 46.75V53.125C72.25 61.625 68 65.875 59.5 65.875H58.4375C57.7787 65.875 57.1412 66.1938 56.7375 66.725L53.55 70.975C52.1475 72.845 49.8525 72.845 48.45 70.975L45.2625 66.725C44.9225 66.2575 44.1363 65.875 43.5625 65.875H42.5C34 65.875 29.75 63.75 29.75 53.125V42.5C29.75 34 34 29.75 42.5 29.75H55.25" stroke="white" stroke-width="1.5" stroke-miterlimit="10" stroke-linecap="round" stroke-linejoin="round"/>
<path d="M66.9375 40.375C69.8715 40.375 72.25 37.9965 72.25 35.0625C72.25 32.1285 69.8715 29.75 66.9375 29.75C64.0035 29.75 61.625 32.1285 61.625 35.0625C61.625 37.9965 64.0035 40.375 66.9375 40.375Z" fill="#F72585" stroke="white" stroke-width="1.5" stroke-linecap="round" stroke-linejoin="round"/>
<path d="M59.4922 48.875H59.5113" stroke="white" stroke-width="2" stroke-linecap="round" stroke-linejoin="round"/>
<path d="M50.9903 48.875H51.0094" stroke="white" stroke-width="2" stroke-linecap="round" stroke-linejoin="round"/>
<path d="M42.4883 48.875H42.5074" stroke="white" stroke-width="2" stroke-linecap="round" stroke-linejoin="round"/>
</svg>
