<svg width="45" height="35" viewBox="0 0 45 35" fill="none" xmlns="http://www.w3.org/2000/svg">
<path d="M22.4998 27.3439C17.1666 27.3439 12.8495 23.3306 12.4522 18.2446L5.07641 12.7027C4.1068 13.8853 3.21453 15.1356 2.49453 16.5028C2.33369 16.8122 2.24989 17.1539 2.24989 17.5005C2.24989 17.8471 2.33369 18.1889 2.49453 18.4982C6.30758 25.7313 13.8563 30.6252 22.4998 30.6252C24.392 30.6252 26.2173 30.3518 27.9765 29.9102L24.328 27.1655C23.7254 27.2787 23.1135 27.3384 22.4998 27.3439ZM44.5653 31.3156L36.7923 25.475C39.1535 23.5404 41.0954 21.1686 42.5052 18.4975C42.666 18.1882 42.7498 17.8465 42.7498 17.4998C42.7498 17.1532 42.666 16.8115 42.5052 16.5021C38.6921 9.26903 31.1434 4.37518 22.4998 4.37518C18.8798 4.37945 15.3186 5.26547 12.1414 6.95233L3.19625 0.230551C3.07961 0.142304 2.94622 0.0772686 2.80371 0.0391615C2.6612 0.00105429 2.51236 -0.0093779 2.36571 0.008461C2.21905 0.0262999 2.07744 0.0720602 1.94898 0.143127C1.82052 0.214194 1.70772 0.309174 1.61704 0.42264L0.236801 2.15008C0.0537062 2.37908 -0.0283373 2.6694 0.00871461 2.95719C0.0457666 3.24499 0.19888 3.5067 0.434379 3.68475L41.8034 34.7698C41.9201 34.8581 42.0535 34.9231 42.196 34.9612C42.3385 34.9993 42.4873 35.0097 42.634 34.9919C42.7806 34.9741 42.9222 34.9283 43.0507 34.8572C43.1792 34.7862 43.292 34.6912 43.3827 34.5777L44.7636 32.8503C44.9466 32.6212 45.0285 32.3308 44.9914 32.043C44.9542 31.7552 44.8009 31.4936 44.5653 31.3156ZM31.6475 21.6086L28.8842 19.5318C29.1169 18.8779 29.2404 18.192 29.2498 17.5002C29.2636 16.4873 29.0327 15.4854 28.5759 14.5749C28.1191 13.6645 27.4491 12.8709 26.6196 12.2579C25.7901 11.6448 24.8242 11.2295 23.7997 11.0452C22.7751 10.861 21.7204 10.9129 20.7202 11.1968C21.1442 11.7553 21.3736 12.431 21.3748 13.1252C21.3644 13.3562 21.328 13.5854 21.2666 13.8088L16.0909 9.91981C17.8887 8.45911 20.1568 7.65812 22.4998 7.65643C23.8297 7.65571 25.1466 7.90984 26.3754 8.40428C27.6041 8.89872 28.7206 9.62378 29.6609 10.538C30.6013 11.4522 31.3471 12.5377 31.8556 13.7323C32.3642 14.9269 32.6256 16.2073 32.6248 17.5002C32.6248 18.9788 32.2529 20.3569 31.6475 21.6093V21.6086Z" fill="#150BF3"/>
</svg>
