<svg width="43" height="49" viewBox="0 0 43 49" fill="none" xmlns="http://www.w3.org/2000/svg">
<g clip-path="url(#clip0_200_4460)">
<path d="M42.1902 24.4417C42.1902 11.6324 32.9956 1.25403 21.6474 1.25403C10.2991 1.25403 1.10449 11.6324 1.10449 24.4417C1.10449 36.015 8.61672 45.608 18.4375 47.349V31.1447H13.219V24.4417H18.4375V19.333C18.4375 13.522 21.5024 10.3122 26.1966 10.3122C28.4447 10.3122 30.7956 10.7647 30.7956 10.7647V16.4682H28.2045C25.6532 16.4682 24.8572 18.2559 24.8572 20.0894V24.4417H30.5545L29.6433 31.1447H24.8572V47.349C34.678 45.608 42.1902 36.015 42.1902 24.4417Z" fill="#08035A"/>
</g>
<defs>
<clipPath id="clip0_200_4460">
<rect x="0.441406" y="0.505981" width="42.4111" height="47.8714" rx="20" fill="white"/>
</clipPath>
</defs>
</svg>
