<svg width="20" height="25" viewBox="0 0 20 25" fill="none" xmlns="http://www.w3.org/2000/svg">
<path fill-rule="evenodd" clip-rule="evenodd" d="M13.3069 16.0483H13.3844C15.9222 14.9281 17.9462 12.8948 19.0549 10.352V15.9837C19.0652 19.5933 16.9275 22.8633 13.6169 24.302H13.5265C12.4319 24.7655 11.2535 24.9986 10.0649 24.9866C8.91593 24.9897 7.77814 24.7613 6.71945 24.3149L6.38362 24.1728C3.08022 22.7908 0.937698 19.5515 0.958617 15.9708V15.7383C0.983401 13.9045 1.73071 12.1546 3.0382 10.8687L3.2707 10.6491C5.32606 8.63608 7.02115 6.28565 8.28237 3.69992L10.0519 0.083252C10.0519 0.083252 11.8861 2.66659 13.5911 5.24992C15.6705 8.33518 14.9789 12.5072 12.0153 14.7566H11.8603C11.5526 15.1438 11.586 15.7006 11.9378 16.0483C12.0849 16.1725 12.2755 16.2329 12.4674 16.2162C12.7542 16.2041 13.0375 16.1475 13.3069 16.0483ZM12.7386 22.5066H12.829V22.4937C15.4117 21.3617 17.0867 18.8163 17.1045 15.9966C16.2334 16.7632 15.2373 17.3749 14.1595 17.8049L13.9915 17.8695C13.5053 18.0588 12.9891 18.1594 12.4674 18.1666C11.7603 18.1915 11.074 17.9254 10.5686 17.4303C9.51336 16.3874 9.41314 14.717 10.3361 13.5553C10.4488 13.4145 10.579 13.2886 10.7236 13.1808H10.814C12.9921 11.5561 13.5045 8.50438 11.9765 6.25742C11.4211 5.43075 10.8657 4.60409 10.349 3.86784L10.0261 4.5395C8.65906 7.29486 6.8333 9.79763 4.62696 11.9408L4.39446 12.1603C3.4563 13.0862 2.91839 14.3429 2.89613 15.6608V15.9062C2.86113 18.7209 4.53698 21.2756 7.13279 22.3645L7.46863 22.5066C9.15255 23.2215 11.0547 23.2215 12.7386 22.5066Z" fill="white"/>
</svg>
