<svg width="23" height="20" viewBox="0 0 23 20" fill="none" xmlns="http://www.w3.org/2000/svg">
<path d="M9.27778 12.25L8.66931 15.9464C8.37926 17.7085 6.87353 19 5.10921 19C3.1159 19 1.5 17.3639 1.5 15.3457V6.625M1.5 6.625C1.5 3.5184 3.98731 1 7.05555 1L15.9444 1C19.0127 1 21.5 3.5184 21.5 6.625M1.5 6.625C1.5 9.7316 3.98731 12.25 7.05556 12.25H15.9444C19.0127 12.25 21.5 9.7316 21.5 6.625M13.7222 12.25L14.3307 15.9464C14.6207 17.7085 16.1265 19 17.8908 19C19.8841 19 21.5 17.3639 21.5 15.3457V6.625M7.05556 8.875L7.05556 4.375M9.27778 6.625H4.83333M14.8333 4.375L13.7222 4.375M17.0556 7.75H15.9444" stroke="white" stroke-width="1.8" stroke-linecap="round" stroke-linejoin="round"/>
</svg>
