<svg width="43" height="49" viewBox="0 0 43 49" fill="none" xmlns="http://www.w3.org/2000/svg">
<g clip-path="url(#clip0_200_4455)">
<path d="M42.6474 24.984C42.6474 38.2141 34.226 47.6295 21.7895 47.6295C9.86573 47.6295 0.236328 37.2698 0.236328 24.4418C0.236328 11.6137 9.86573 1.25403 21.7895 1.25403C27.5949 1.25403 32.4792 3.54475 36.2423 7.32211L30.376 13.3902C22.702 5.42408 8.43175 11.408 8.43175 24.4418C8.43175 32.5294 14.4371 39.0837 21.7895 39.0837C30.3239 39.0837 33.5221 32.5014 34.0261 29.0886H21.7895V21.1132H42.3085C42.5083 22.3006 42.6474 23.4413 42.6474 24.984Z" fill="#08035A"/>
</g>
<defs>
<clipPath id="clip0_200_4455">
<rect x="0.236328" y="0.505981" width="42.4111" height="47.8714" rx="20" fill="white"/>
</clipPath>
</defs>
</svg>
