<svg width="38" height="38" viewBox="0 0 38 38" fill="none" xmlns="http://www.w3.org/2000/svg">
<path d="M19 20.5833V19.5833V20.5833ZM9.5 20.5833V21.5833V20.5833ZM29.25 20.5833V21.5833V20.5833ZM28.928 11.0832L28.9195 12.0832L28.928 11.0832ZM25.887 8.75975L26.7564 8.26552L25.887 8.75975ZM26.3581 9.58808L27.2232 9.0865L26.3581 9.58808ZM19 19.5833L9.5 19.5833V21.5833L19 21.5833V19.5833ZM29.25 19.5833L19 19.5833V21.5833L29.25 21.5833V19.5833ZM32.25 16.5833C32.25 18.2402 30.9069 19.5833 29.25 19.5833V21.5833C32.0114 21.5833 34.25 19.3448 34.25 16.5833H32.25ZM32.25 15.0833V16.5833H34.25V15.0833H32.25ZM29.25 12.0833C30.9069 12.0833 32.25 13.4265 32.25 15.0833H34.25C34.25 12.3219 32.0114 10.0833 29.25 10.0833V12.0833ZM26.7564 8.26552C25.2245 5.57102 22.3256 3.75 19 3.75V5.75C21.5774 5.75 23.8268 7.15923 25.0177 9.25397L26.7564 8.26552ZM19 3.75C15.3733 3.75 12.2545 5.91507 10.8614 9.01898L12.6861 9.8379C13.7684 7.42634 16.1895 5.75 19 5.75V3.75ZM9.5 10.0833C6.32436 10.0833 3.75 12.6577 3.75 15.8333H5.75C5.75 13.7623 7.42893 12.0833 9.5 12.0833V10.0833ZM3.75 15.8333C3.75 19.009 6.32436 21.5833 9.5 21.5833V19.5833C7.42893 19.5833 5.75 17.9044 5.75 15.8333H3.75ZM10.8614 9.01898C10.5538 9.70451 10.0027 10.0833 9.5 10.0833V12.0833C11.0241 12.0833 12.1639 11.0015 12.6861 9.8379L10.8614 9.01898ZM29.25 10.0833C29.1468 10.0833 29.0697 10.0833 29.0167 10.0833C28.9902 10.0833 28.97 10.0833 28.9557 10.0833C28.9392 10.0833 28.935 10.0832 28.9364 10.0833L28.9195 12.0832C28.9378 12.0833 29.0488 12.0833 29.25 12.0833V10.0833ZM25.0177 9.25397C25.3248 9.79413 25.4837 10.0738 25.493 10.0897L27.2232 9.0865C27.2243 9.08838 27.2167 9.07512 27.1945 9.03608C27.1743 9.00061 27.1447 8.9486 27.1056 8.87982C27.0274 8.74227 26.9113 8.53798 26.7564 8.26552L25.0177 9.25397ZM28.9364 10.0833C28.2696 10.0776 28.0264 10.0046 27.8839 9.92166C27.7414 9.83877 27.5577 9.66337 27.2232 9.0865L25.493 10.0897C25.8617 10.7256 26.2619 11.2919 26.8781 11.6504C27.4943 12.0089 28.1844 12.077 28.9195 12.0832L28.9364 10.0833Z" fill="#1108D5"/>
<path d="M19 30.0833V26.9166" stroke="#1108D5" stroke-width="2" stroke-linecap="round"/>
<path d="M26.916 31.6666V26.9166" stroke="#1108D5" stroke-width="2" stroke-linecap="round"/>
<path d="M11.084 33.25V26.9166" stroke="#1108D5" stroke-width="2" stroke-linecap="round"/>
</svg>
