<svg width="28" height="28" viewBox="0 0 28 28" fill="none" xmlns="http://www.w3.org/2000/svg">
<path d="M24 5L21.7631 6.54546C21.429 6.77634 21.0324 6.9 20.6263 6.9H15.5526C14.8269 6.9 14.1594 7.29718 13.8132 7.93499V7.93499C13.3458 8.79615 13.579 9.8697 14.3614 10.4595L17.8033 13.0537C19.5113 14.341 20.4049 16.4402 20.1488 18.5636L20.0147 19.6751C19.9221 20.4432 19.7185 21.1938 19.4104 21.9034L18.5 24" stroke="#1108D5" stroke-width="1.75"/>
<path d="M2 11.1667L5.90751 10.4829C7.25959 10.2462 8.44273 11.4108 8.22755 12.7664L7.9898 14.2642C7.73026 15.8994 8.54223 17.518 10.0081 18.2876V18.2876C11.18 18.9028 11.7855 20.2343 11.4789 21.5219L10.8889 24" stroke="#1108D5" stroke-width="1.75"/>
<circle cx="14" cy="13" r="12.125" stroke="#1108D5" stroke-width="1.75"/>
</svg>
