<svg width="34" height="34" viewBox="0 0 34 34" fill="none" xmlns="http://www.w3.org/2000/svg">
<path d="M5.125 11.3333C5.125 9.97291 5.12686 9.04065 5.22093 8.34095C5.31162 7.66642 5.47332 7.34047 5.69858 7.11521C5.92384 6.88995 6.24979 6.72824 6.92432 6.63756C7.62402 6.54348 8.55628 6.54163 9.91667 6.54163H24.0833C25.4437 6.54163 26.376 6.54348 27.0757 6.63756C27.7502 6.72824 28.0762 6.88995 28.3014 7.11521C28.5267 7.34047 28.6884 7.66642 28.7791 8.34095C28.8731 9.04065 28.875 9.97291 28.875 11.3333V23.2083H5.125V11.3333Z" stroke="#1108D5" stroke-width="1.75"/>
<path d="M5.19444 23.2084C4.18959 23.2084 3.375 24.023 3.375 25.0278C3.375 26.5543 4.61244 27.7917 6.13889 27.7917H27.8611C29.3876 27.7917 30.625 26.5543 30.625 25.0278C30.625 24.023 29.8104 23.2084 28.8056 23.2084H5.19444Z" stroke="#1108D5" stroke-width="1.75"/>
</svg>
