<svg width="44" height="44" viewBox="0 0 44 44" fill="none" xmlns="http://www.w3.org/2000/svg">
<path d="M26.625 14.6666C26.625 17.2209 24.5543 19.2916 22 19.2916C19.4457 19.2916 17.375 17.2209 17.375 14.6666C17.375 12.1123 19.4457 10.0416 22 10.0416C24.5543 10.0416 26.625 12.1123 26.625 14.6666Z" stroke="#1108D5" stroke-width="1.75" stroke-linecap="round"/>
<path d="M25.9388 10.9916C26.4386 10.5425 27.051 10.2376 27.7106 10.1096C28.3702 9.98154 29.0522 10.0351 29.6837 10.2646C30.3152 10.494 30.8725 10.8907 31.2961 11.4123C31.7196 11.9339 31.9935 12.5608 32.0884 13.226C32.1834 13.8912 32.0958 14.5696 31.8351 15.1889C31.5744 15.8082 31.1503 16.3449 30.6082 16.7419C30.0661 17.1389 29.4263 17.3811 28.7572 17.4427C28.0881 17.5043 27.4149 17.3829 26.8094 17.0916" stroke="#1108D5" stroke-width="1.75"/>
<path d="M18.0542 10.9853C17.553 10.5372 16.9394 10.2339 16.2791 10.1076C15.6188 9.98136 14.9366 10.037 14.3055 10.2685C13.6743 10.5 13.118 10.8988 12.696 11.4221C12.274 11.9454 12.0022 12.5736 11.9097 13.2394C11.8171 13.9053 11.9073 14.5838 12.1706 15.2023C12.4339 15.8209 12.8604 16.3562 13.4044 16.7511C13.9485 17.146 14.5897 17.3856 15.2594 17.4442C15.9291 17.5028 16.6021 17.3782 17.2065 17.0839" stroke="#1108D5" stroke-width="1.75"/>
<path d="M35.5764 29.1607L34.7177 29.3289L35.5764 29.1607ZM23.9922 23.0742L23.346 22.4842L22.2603 23.6734L23.8487 23.9374L23.9922 23.0742ZM31.4982 30.25L30.6577 30.4932L30.8405 31.125H31.4982V30.25ZM28.4158 21.9584C30.5404 21.9584 31.9703 23.1257 32.9701 24.6837C33.9836 26.2629 34.488 28.1564 34.7177 29.3289L36.4351 28.9925C36.1889 27.7359 35.6315 25.5906 34.4429 23.7385C33.2406 21.8651 31.3281 20.2084 28.4158 20.2084V21.9584ZM24.6384 23.6642C25.5622 22.6524 26.7718 21.9584 28.4158 21.9584V20.2084C26.1979 20.2084 24.5417 21.1747 23.346 22.4842L24.6384 23.6642ZM23.8487 23.9374C28.0892 24.6421 29.8819 27.8116 30.6577 30.4932L32.3388 30.0069C31.4771 27.0285 29.3376 23.0755 24.1356 22.211L23.8487 23.9374ZM34.6441 29.375H31.4982V31.125H34.6441V29.375ZM34.7177 29.3289C34.719 29.3354 34.719 29.339 34.7189 29.3403C34.7189 29.3416 34.7187 29.342 34.7187 29.3421C34.7186 29.3423 34.7185 29.3429 34.7178 29.3441C34.7172 29.3453 34.716 29.3472 34.7139 29.3497C34.7057 29.359 34.6848 29.375 34.6441 29.375V31.125C35.7384 31.125 36.6637 30.1598 36.4351 28.9925L34.7177 29.3289Z" fill="#1108D5"/>
<path d="M20.0061 23.0742L20.1495 23.9374L21.738 23.6734L20.6523 22.4842L20.0061 23.0742ZM8.42183 29.1607L7.56315 28.9925L8.42183 29.1607ZM12.5 30.25V31.125H13.1578L13.3406 30.4932L12.5 30.25ZM15.5824 21.9584C17.2265 21.9584 18.4361 22.6524 19.3599 23.6642L20.6523 22.4842C19.4566 21.1747 17.8004 20.2084 15.5824 20.2084V21.9584ZM9.28051 29.3289C9.51019 28.1563 10.0146 26.2629 11.0282 24.6837C12.028 23.1257 13.4579 21.9584 15.5824 21.9584V20.2084C12.6702 20.2084 10.7576 21.8651 9.55536 23.7385C8.36674 25.5906 7.8093 27.7358 7.56315 28.9925L9.28051 29.3289ZM9.35408 29.375C9.31341 29.375 9.29251 29.359 9.28436 29.3497C9.28227 29.3472 9.28106 29.3453 9.2804 29.3441C9.27977 29.3429 9.27958 29.3423 9.27954 29.3421C9.27951 29.342 9.27936 29.3416 9.27931 29.3403C9.27927 29.339 9.27924 29.3354 9.28051 29.3289L7.56315 28.9925C7.33449 30.1598 8.25986 31.125 9.35408 31.125V29.375ZM12.5 29.375H9.35408V31.125H12.5V29.375ZM13.3406 30.4932C14.1164 27.8116 15.909 24.6421 20.1495 23.9374L19.8626 22.211C14.6607 23.0755 12.5212 27.0285 11.6595 30.0069L13.3406 30.4932Z" fill="#1108D5"/>
<path d="M21.9993 22.9166C30.2109 22.9166 31.7352 30.2118 32.0182 32.9202C32.0756 33.4695 31.635 33.9166 31.0827 33.9166H12.916C12.3637 33.9166 11.9231 33.4695 11.9805 32.9202C12.2635 30.2118 13.7878 22.9166 21.9993 22.9166Z" stroke="#1108D5" stroke-width="1.75" stroke-linecap="round"/>
</svg>
