<svg width="99" height="24" viewBox="0 0 99 24" fill="none" xmlns="http://www.w3.org/2000/svg">
<path d="M60.5 23V1H50.1471C50.7941 8.11765 56.643 12.0991 59.282 14.0811L52.7353 23H60.5Z" stroke="#1108D5" stroke-width="1.75"/>
<path d="M60.5 23V1H50.1471C50.7941 8.11765 56.643 12.0991 59.282 14.0811L52.7353 23H60.5Z" stroke="#1108D5" stroke-width="1.75"/>
<path d="M60.5 23V1H50.1471C50.7941 8.11765 56.643 12.0991 59.282 14.0811L52.7353 23H60.5Z" stroke="#1108D5" stroke-width="1.75"/>
<path d="M38.5 23V1H50.1471C49.599 6.70811 42.8391 12.0991 39.8702 14.0811L46.7215 23H38.5Z" stroke="#1108D5" stroke-width="1.75"/>
<path d="M38.5 23V1H50.1471C49.599 6.70811 42.8391 12.0991 39.8702 14.0811L46.7215 23H38.5Z" stroke="#A83939" stroke-width="1.75"/>
<path d="M38.5 23V1H50.1471C49.599 6.70811 42.8391 12.0991 39.8702 14.0811L46.7215 23H38.5Z" stroke="#1108D5" stroke-width="1.75"/>
</svg>
