<svg width="33" height="22" viewBox="0 0 33 22" fill="none" xmlns="http://www.w3.org/2000/svg">
<path d="M11.3333 11L11.3333 2.2C11.3333 2.04242 11.3601 1.88637 11.412 1.74078C11.4639 1.59519 11.54 1.4629 11.636 1.35147C11.7319 1.24004 11.8459 1.15165 11.9712 1.09135C12.0966 1.03104 12.231 1 12.3667 1L30.9667 1.00001C31.1024 1.00001 31.2367 1.03105 31.3621 1.09135C31.4875 1.15166 31.6014 1.24005 31.6973 1.35148C31.7933 1.46291 31.8694 1.5952 31.9213 1.74079C31.9733 1.88638 32 2.04242 32 2.20001L32 19.8C32 20.1183 31.8911 20.4235 31.6973 20.6485C31.5036 20.8736 31.2407 21 30.9667 21L12.3667 21C12.0926 21 11.8298 20.8736 11.636 20.6485C11.4422 20.4235 11.3333 20.1183 11.3333 19.8L11.3333 11ZM11.3333 11L2.69467 19.36C2.54377 19.5059 2.36019 19.5989 2.16543 19.6281C1.97066 19.6573 1.77278 19.6213 1.59495 19.5246C1.41712 19.4278 1.26671 19.2743 1.16134 19.0818C1.05598 18.8894 1.00001 18.666 1 18.438L1 3.562C1.00034 3.33412 1.05654 3.11106 1.16204 2.91891C1.26753 2.72676 1.41796 2.57347 1.59573 2.47697C1.77349 2.38046 1.97125 2.34473 2.16586 2.37396C2.36047 2.40318 2.54389 2.49615 2.69467 2.642L11.3333 11Z" stroke="#1108D5" stroke-width="1.75" stroke-linecap="round" stroke-linejoin="round"/>
</svg>
