<svg width="55" height="54" viewBox="0 0 55 54" fill="none" xmlns="http://www.w3.org/2000/svg">
<g clip-path="url(#clip0_200_4552)">
<path d="M52.3065 52.3495H52.2048V52.6145H52.1556V52.3495H52.0539V52.2996H52.3112L52.3065 52.3495ZM52.7035 52.6145H52.6527V52.3573L52.5606 52.5818H52.505L52.4129 52.3573V52.6145H52.3621V52.2996H52.4415L52.5336 52.5241L52.6257 52.2996H52.7035V52.6145ZM4.09081 52.6145H3.38405V44.7534H4.09081V52.6145ZM9.45905 44.7534C10.0761 44.7446 10.6902 44.8373 11.276 45.0277C11.789 45.1929 12.2607 45.4611 12.6609 45.8134C13.0421 46.1594 13.3391 46.5834 13.5345 47.0526C13.942 48.1028 13.942 49.2634 13.5345 50.3137C13.3407 50.7844 13.0421 51.2084 12.6609 51.5545C12.2601 51.9082 11.7883 52.1758 11.276 52.3401C10.6897 52.5307 10.075 52.6234 9.45746 52.6145H6.50811V44.7534H9.45905ZM7.21487 45.4049V51.9629H9.45746C9.98793 51.9723 10.5152 51.8928 11.0187 51.7291C11.4396 51.5888 11.8271 51.3643 12.1527 51.0681C12.4624 50.7798 12.7006 50.4275 12.8515 50.0362C13.1628 49.1633 13.1628 48.2124 12.8515 47.3394C12.7013 46.9465 12.4624 46.5921 12.1527 46.3028C11.8269 46.0062 11.4403 45.7814 11.0187 45.6434C10.5165 45.4826 9.99043 45.4052 9.46223 45.4143L7.21487 45.4049ZM22.4461 44.6645C23.1143 44.6635 23.7739 44.8128 24.3742 45.101C24.6521 45.2366 24.9094 45.4065 25.1413 45.6076C25.3684 45.804 25.5653 46.03 25.7273 46.281L25.1397 46.6629C25.0015 46.4563 24.8359 46.2686 24.6473 46.1048C24.2585 45.7664 23.7886 45.5305 23.2815 45.419C23.0135 45.3563 22.739 45.3249 22.4635 45.3254C22.0045 45.3208 21.5487 45.4034 21.1215 45.5671C20.7181 45.7206 20.3507 45.9529 20.0415 46.2498C19.731 46.552 19.4858 46.9126 19.3204 47.3098C18.9702 48.1904 18.9702 49.1681 19.3204 50.0487C19.4839 50.444 19.7278 50.8024 20.0372 51.102C20.3466 51.4017 20.715 51.6363 21.1199 51.7914C21.5487 51.9551 22.0045 52.0377 22.4635 52.0346C22.7383 52.0346 23.0099 52.005 23.2767 51.9442C23.7897 51.8351 24.2662 51.6013 24.6616 51.2614C24.8522 51.0978 25.0174 50.9091 25.154 50.7003L25.7321 51.1087C25.5638 51.3534 25.3636 51.5763 25.1365 51.7696C24.658 52.1668 24.0903 52.4467 23.48 52.5864C22.6017 52.7818 21.6841 52.7167 20.8435 52.3994C20.3559 52.2108 19.9096 51.9286 19.5332 51.5732C19.1592 51.2114 18.8642 50.7786 18.6661 50.3012C18.2468 49.2574 18.2468 48.0964 18.6661 47.0526C18.863 46.5772 19.1584 46.1438 19.5332 45.7822C19.9096 45.4236 20.3559 45.1431 20.8435 44.956C21.3597 44.7596 21.9092 44.6598 22.4635 44.6645H22.4461ZM28.1018 48.2576C28.2514 48.0159 28.4507 47.8075 28.6869 47.6456C28.9232 47.4838 29.1913 47.3721 29.474 47.3176C29.9654 47.2135 30.4766 47.2448 30.9511 47.408C31.2192 47.4915 31.465 47.6328 31.6703 47.8216C31.8756 48.0104 32.0352 48.242 32.1375 48.4992C32.2518 48.786 32.309 49.0916 32.3026 49.3986V52.6363H31.6419V49.5966C31.646 49.3519 31.6073 49.1083 31.5276 48.8764C31.4567 48.6727 31.3397 48.4873 31.1854 48.3342C31.0311 48.1811 30.8434 48.0643 30.6366 47.9926C30.3995 47.9106 30.1494 47.871 29.8981 47.8757C29.655 47.8734 29.4137 47.9157 29.1865 48.0004C28.9711 48.0814 28.7747 48.2044 28.609 48.3619C28.4433 48.5194 28.3118 48.7082 28.2225 48.917C28.1272 49.1414 28.0779 49.3846 28.0795 49.6262V52.6363H27.4236V44.5523H28.0795L28.1018 48.2576ZM36.6147 47.2599C36.9602 47.2569 37.3025 47.3243 37.6201 47.4579C37.9234 47.5873 38.1982 47.7759 38.4221 48.0144C38.6556 48.2638 38.8366 48.5522 38.9573 48.8686C39.0923 49.2147 39.1606 49.5841 39.1606 49.9551V50.2201H34.6135C34.631 50.5023 34.7025 50.7813 34.8263 51.037C34.9375 51.2692 35.0932 51.4766 35.2869 51.648C35.4775 51.8148 35.6983 51.9426 35.9381 52.0253C36.1875 52.1126 36.4527 52.1562 36.7179 52.1562C37.0689 52.1609 37.4168 52.0939 37.7376 51.9536C38.0393 51.8164 38.3141 51.6293 38.5508 51.4017L38.9002 51.8507C38.6 52.1586 38.2323 52.3953 37.8249 52.5428C37.6415 52.6086 37.4514 52.6551 37.2579 52.6815C37.0653 52.708 36.8711 52.7215 36.6766 52.7221C36.3018 52.7252 35.9302 52.6597 35.5823 52.5241C35.2592 52.3982 34.9657 52.2089 34.7199 51.9676C34.4742 51.7227 34.2823 51.4309 34.1561 51.1102C34.0172 50.7574 33.9482 50.3817 33.9528 50.0035C33.9496 49.6294 34.0179 49.2584 34.1561 48.9076C34.2768 48.5818 34.4642 48.2841 34.7056 48.0284C35.2183 47.5278 35.9122 47.247 36.6353 47.2475L36.6147 47.2599ZM36.6147 47.8258C36.3553 47.8238 36.0979 47.8714 35.8571 47.9661C35.6316 48.0534 35.4267 48.1843 35.252 48.3464C35.0754 48.5128 34.9312 48.7093 34.8263 48.9263C34.7152 49.1601 34.6421 49.4096 34.6151 49.6668H38.4968C38.4771 49.4085 38.4126 49.1555 38.3062 48.9185C38.2094 48.702 38.072 48.5053 37.9012 48.3386C37.5584 48.0073 37.0958 47.8228 36.6147 47.8258ZM43.1852 47.2599C43.5696 47.2568 43.9508 47.3285 44.3065 47.4704C44.6448 47.6076 44.9466 47.8164 45.188 48.0814L44.7639 48.5304C44.5588 48.3204 44.3117 48.1541 44.0382 48.042C43.7647 47.9299 43.4705 47.8743 43.1741 47.8788C42.8962 47.8753 42.6205 47.9278 42.364 48.0329C42.1075 48.138 41.8757 48.2935 41.6828 48.4899C41.4858 48.6831 41.3286 48.9107 41.2222 49.1648C41.0103 49.7132 41.0103 50.3187 41.2222 50.8671C41.4207 51.3674 41.8209 51.7696 42.3308 51.9754C42.5912 52.0845 42.8723 52.1391 43.1566 52.1375C43.4627 52.1407 43.766 52.0796 44.0461 51.9582C44.3145 51.8413 44.5575 51.6808 44.7671 51.4812L45.1785 51.9317C44.9339 52.1967 44.6337 52.4041 44.297 52.5412C43.9424 52.6844 43.5623 52.7565 43.1789 52.7532C42.7948 52.7575 42.4137 52.6871 42.0576 52.5459C41.729 52.4164 41.4307 52.2226 41.1809 51.9763C40.931 51.73 40.7349 51.4364 40.6043 51.1133C40.3313 50.4165 40.3313 49.645 40.6043 48.9481C40.7341 48.6241 40.9299 48.3294 41.1798 48.0823C41.4297 47.8352 41.7284 47.6407 42.0576 47.5109C42.4149 47.3488 42.8041 47.2584 43.1979 47.2459L43.1884 47.2599H43.1852ZM47.3988 49.5732H48.2803L50.588 47.3285H51.4186L48.8346 49.8195L51.4663 52.6098H50.6309L48.3232 50.1344H47.4417V52.6098H46.7492V44.5242H47.4036L47.3988 49.5732ZM10.2151 40.716V38.0208C10.231 37.7939 10.1971 37.5662 10.1157 37.3532C10.0344 37.1403 9.90737 36.9469 9.74334 36.7862C9.4114 36.4589 8.95082 36.2874 8.47911 36.3139C8.17484 36.2942 7.87072 36.3546 7.59821 36.4889C7.32569 36.6232 7.09466 36.8264 6.92899 37.0777C6.77793 36.8339 6.56293 36.6344 6.30645 36.5C6.04998 36.3657 5.76144 36.3014 5.47099 36.3139C5.2175 36.301 4.96497 36.3532 4.73827 36.4653C4.51158 36.5773 4.31854 36.7454 4.17817 36.953V36.423H3.21729V40.716H4.18611V38.3357C4.16567 38.1885 4.17886 38.0387 4.22474 37.8971C4.27062 37.7556 4.34802 37.6258 4.45134 37.5173C4.55505 37.4081 4.68192 37.3227 4.82298 37.2669C4.96404 37.2111 5.11585 37.1865 5.2677 37.1946C5.90299 37.1946 6.22699 37.5999 6.22699 38.3263V40.716H7.19581V38.3357C7.17616 38.1886 7.18989 38.0392 7.23602 37.8979C7.28215 37.7567 7.35954 37.6273 7.46264 37.5189C7.56605 37.4101 7.69237 37.3247 7.8328 37.2687C7.97324 37.2127 8.12441 37.1874 8.27581 37.1946C8.93176 37.1946 9.24464 37.5999 9.24464 38.3263V40.716H10.2151ZM24.5505 36.409H22.9813V35.1058H22.0125V36.409H21.1167V37.2476H22.0125V39.2071C22.0125 40.2047 22.4095 40.7971 23.5435 40.7971C23.9676 40.7971 24.3853 40.6833 24.7442 40.465L24.4679 39.6654C24.2153 39.8259 23.9279 39.921 23.6261 39.9428C23.1655 39.9428 22.9908 39.656 22.9908 39.2258V37.2476H24.5505V36.409ZM32.7378 36.2999C32.5043 36.293 32.2732 36.3478 32.0687 36.4586C31.8642 36.5694 31.6938 36.7321 31.5752 36.9296V36.409H30.6239V40.702H31.5848V38.2967C31.5848 37.5874 31.8976 37.1915 32.5059 37.1915C32.7119 37.1889 32.9164 37.226 33.1079 37.3006L33.4033 36.4012C33.184 36.3248 32.9531 36.2853 32.7203 36.2843L32.7378 36.2999ZM20.3591 36.7503C19.8151 36.4354 19.1909 36.2791 18.5596 36.2999C17.4431 36.2999 16.7125 36.8221 16.7125 37.6747C16.7125 38.3762 17.2493 38.8064 18.2372 38.9421L18.6978 39.0044C19.2235 39.0761 19.4729 39.2117 19.4729 39.4534C19.4729 39.7854 19.1235 39.974 18.4675 39.974C17.941 39.989 17.4245 39.831 17 39.5251L16.5394 40.253C17.0969 40.6334 17.7671 40.8298 18.4485 40.8095C19.7222 40.8095 20.4608 40.2265 20.4608 39.4081C20.4608 38.5913 19.8795 38.2593 18.9202 38.1237L18.458 38.0613C18.0419 38.0068 17.7115 37.9273 17.7115 37.6404C17.7115 37.3521 18.0244 37.1354 18.5501 37.1354C19.0361 37.1416 19.5126 37.2679 19.9351 37.5048L20.3591 36.7503ZM46.0726 36.2999C45.8389 36.2927 45.6075 36.3474 45.4026 36.4582C45.1978 36.569 45.0271 36.7318 44.9085 36.9296V36.409H43.9587V40.702H44.918V38.2967C44.918 37.5874 45.2325 37.1915 45.8408 37.1915C46.0462 37.1891 46.2501 37.2262 46.4411 37.3006L46.7365 36.4012C46.5172 36.3248 46.2863 36.2853 46.0536 36.2843L46.071 36.3014L46.0726 36.2999ZM33.7019 38.5461C33.6796 39.1572 33.921 39.748 34.3689 40.1751C34.5913 40.3869 34.856 40.5511 35.1463 40.6574C35.4366 40.7637 35.7463 40.8096 36.0556 40.7924C36.6322 40.8204 37.1992 40.6381 37.6439 40.2795L37.1833 39.5251C36.8505 39.7719 36.4458 39.9074 36.0286 39.9116C35.6753 39.885 35.345 39.7288 35.1037 39.474C34.8624 39.2192 34.7276 38.8846 34.7263 38.5368C34.7263 37.8197 35.2933 37.2211 36.0286 37.1634C36.4463 37.1681 36.8513 37.3037 37.1833 37.55L37.6439 36.794C37.1976 36.4358 36.6314 36.2536 36.0556 36.2827C35.7463 36.2655 35.4366 36.3114 35.1463 36.4177C34.856 36.5239 34.5913 36.6882 34.3689 36.9C34.1478 37.1106 33.9741 37.3644 33.8592 37.645C33.7443 37.9256 33.6907 38.2267 33.7019 38.529V38.5461ZM42.6929 38.5461V36.3996H41.7336V36.9203C41.5696 36.7157 41.3586 36.5522 41.1179 36.443C40.8772 36.3338 40.6136 36.2821 40.3486 36.2921C39.0749 36.2921 38.0409 37.2975 38.0409 38.5368C38.0409 39.7776 39.0733 40.783 40.3486 40.783C40.8886 40.8017 41.4032 40.5679 41.7336 40.1548V40.6755H42.6929V38.5461ZM39.1209 38.5461C39.1431 38.2058 39.3 37.8875 39.5583 37.6594C39.8166 37.4312 40.1556 37.3114 40.5027 37.3256C40.8498 37.3369 41.1786 37.4814 41.4185 37.7279C41.6584 37.9745 41.7903 38.3034 41.786 38.6443C41.7789 38.9851 41.6362 39.3095 41.3882 39.5482C41.1404 39.7868 40.8071 39.9207 40.4598 39.921C40.2774 39.9234 40.0964 39.8889 39.9281 39.8197C39.7598 39.7505 39.6077 39.6481 39.4815 39.5188C39.3558 39.3902 39.2589 39.2372 39.1968 39.0697C39.1347 38.9023 39.1089 38.7239 39.1209 38.5461ZM27.5363 36.3014C26.9271 36.3072 26.3451 36.5501 25.9183 36.9769C25.4916 37.4037 25.2549 37.9793 25.2604 38.5773C25.2795 39.8181 26.3261 40.8095 27.6015 40.7908C28.259 40.8142 28.9038 40.6006 29.4105 40.1907L28.9499 39.4986C28.5839 39.7835 28.1321 39.9414 27.665 39.9475C27.3492 39.9748 27.0351 39.8804 26.789 39.6843C26.5429 39.4882 26.3843 39.2058 26.3468 38.8969H29.6265V38.5383C29.6265 37.1899 28.7688 36.2921 27.5316 36.2921L27.5363 36.3014ZM27.5363 37.1354C27.8259 37.1294 28.1061 37.2358 28.3162 37.4316C28.4198 37.528 28.5029 37.6436 28.5607 37.7718C28.6185 37.9 28.6498 38.0381 28.6529 38.1782H26.3452C26.3632 37.8886 26.4959 37.6175 26.7149 37.4226C26.9339 37.2277 27.2219 37.1247 27.5173 37.1354H27.5363ZM51.614 38.5539V34.6833H50.6547V36.9281C50.4907 36.7235 50.2798 36.56 50.0391 36.4508C49.7984 36.3416 49.5347 36.2899 49.2698 36.2999C47.996 36.2999 46.9621 37.3069 46.9621 38.5461C46.9621 39.7869 47.9944 40.7908 49.2698 40.7908C49.8098 40.8111 50.3243 40.5773 50.6547 40.1626V40.6848H51.6156V38.5555L51.614 38.5539ZM48.0421 38.5539C48.0646 38.2139 48.2217 37.896 48.4799 37.6682C48.7382 37.4404 49.0769 37.3208 49.4238 37.3349C49.7707 37.3463 50.0992 37.4905 50.3391 37.7367C50.5789 37.9829 50.711 38.3115 50.7071 38.6521C50.7005 38.9931 50.5579 39.318 50.3099 39.557C50.062 39.796 49.7284 39.93 49.3809 39.9304C49.1985 39.9327 49.0175 39.8982 48.8492 39.8291C48.6809 39.7599 48.5289 39.6575 48.4026 39.5282C48.277 39.3995 48.18 39.2466 48.1179 39.0791C48.0559 38.9116 48.03 38.7333 48.0421 38.5555V38.5539ZM15.6293 38.5539V36.4105H14.6685V36.9312C14.5047 36.7264 14.2938 36.5625 14.0531 36.453C13.8123 36.3436 13.5486 36.2916 13.2835 36.3014C12.0098 36.3014 10.9758 37.3084 10.9758 38.5477C10.9758 39.7885 12.0082 40.7924 13.2835 40.7924C13.8235 40.8126 14.3381 40.5788 14.6685 40.1642V40.6864H15.6293V38.557V38.5539ZM12.0558 38.5539C12.0783 38.2139 12.2355 37.896 12.4937 37.6682C12.7519 37.4404 13.0907 37.3208 13.4376 37.3349C13.7844 37.3463 14.113 37.4905 14.3528 37.7367C14.5927 37.9829 14.7248 38.3115 14.7209 38.6521C14.7142 38.9931 14.5716 39.318 14.3237 39.557C14.0757 39.796 13.7422 39.93 13.3947 39.9304C13.2122 39.9327 13.0312 39.8982 12.8629 39.8291C12.6946 39.7599 12.5426 39.6575 12.4163 39.5282C12.2907 39.3995 12.1938 39.2466 12.1317 39.0791C12.0696 38.9116 12.0438 38.7333 12.0558 38.5555V38.5539ZM53.2118 40.0784C53.3295 40.0781 53.443 40.1215 53.5294 40.2C53.5821 40.2484 53.6213 40.3092 53.6433 40.3766C53.6652 40.4441 53.6693 40.5159 53.6549 40.5853C53.6406 40.6547 53.6084 40.7193 53.5614 40.773C53.5144 40.8267 53.4542 40.8677 53.3865 40.8921C53.3312 40.9152 53.2718 40.9269 53.2118 40.9264C53.1244 40.9263 53.0389 40.9017 52.9652 40.8556C52.8915 40.8095 52.8327 40.7438 52.7956 40.6661C52.7731 40.6142 52.7614 40.5582 52.7614 40.5018C52.7614 40.4453 52.773 40.3894 52.7956 40.3374C52.8181 40.2854 52.8511 40.2384 52.8926 40.1993C52.9341 40.1602 52.9832 40.1297 53.0371 40.1096C53.0927 40.0883 53.152 40.0777 53.2118 40.0784ZM53.2118 40.8376C53.2565 40.8378 53.3009 40.829 53.3421 40.8119C53.3833 40.7947 53.4206 40.7695 53.4516 40.7378C53.5092 40.6767 53.5412 40.5966 53.5412 40.5133C53.5412 40.4301 53.5092 40.35 53.4516 40.2889C53.388 40.2264 53.3018 40.1911 53.2118 40.1907C53.1203 40.1907 53.0325 40.226 52.9672 40.2889C52.9096 40.35 52.8776 40.4301 52.8776 40.5133C52.8776 40.5966 52.9096 40.6767 52.9672 40.7378C52.9989 40.769 53.0371 40.7939 53.0784 40.8095C53.1196 40.8298 53.1657 40.8407 53.2118 40.8407V40.8376ZM53.2388 40.3029C53.282 40.3007 53.3247 40.3134 53.3595 40.3388C53.3734 40.35 53.3844 40.3644 53.3916 40.3807C53.3987 40.3969 53.4019 40.4146 53.4008 40.4323C53.4023 40.4635 53.3912 40.4931 53.369 40.5133C53.3422 40.5371 53.3081 40.5513 53.2721 40.5539L53.4055 40.702H53.2991L53.1752 40.5539H53.1339V40.702H53.045V40.3076L53.2388 40.3029ZM53.1387 40.3793V40.4869H53.2388C53.2569 40.4921 53.2762 40.4921 53.2943 40.4869C53.2976 40.4806 53.2992 40.4736 53.2992 40.4666C53.2992 40.4596 53.2976 40.4526 53.2943 40.4463C53.2976 40.44 53.2992 40.4331 53.2992 40.4261C53.2992 40.419 53.2976 40.4121 53.2943 40.4058C53.2762 40.4006 53.2569 40.4006 53.2388 40.4058L53.1387 40.3793Z" fill="black"/>
<path d="M20.0508 3.68774H34.5895V29.1137H20.0508V3.68774Z" fill="#FF5F00"/>
<path d="M20.9738 16.4033C20.9737 13.9494 21.5453 11.5279 22.645 9.32403C23.7448 7.12019 25.3434 5.19237 27.3188 3.688C20.5068 -1.52159 10.7265 -0.763999 4.84525 5.43077C2.01201 8.40686 0.436035 12.3279 0.436035 16.401C0.436035 20.474 2.01201 24.3951 4.84525 27.3712C10.7249 33.566 20.5068 34.3236 27.3188 29.114C25.3441 27.6101 23.7458 25.683 22.6461 23.48C21.5464 21.2771 20.9744 18.8565 20.9738 16.4033Z" fill="#EB001B"/>
<path d="M52.6623 27.2759V26.0491H52.9085V25.795H52.2843V26.0491H52.5305V27.2744H52.6623V27.2759ZM53.8726 27.2759V25.795H53.6836L53.4628 26.8519L53.2436 25.795H53.0498V27.2759H53.1864V26.1645L53.3897 27.1263H53.5327L53.736 26.1645V27.2853L53.8726 27.2744V27.2759ZM54.2045 16.4031C54.2045 22.5948 50.5722 28.2408 44.8498 30.9469C42.0434 32.2732 38.9156 32.8042 35.8184 32.4804C32.7211 32.1565 29.7775 30.9906 27.3188 29.1138C29.2931 27.6088 30.8914 25.6815 31.9918 23.4785C33.0921 21.2755 33.6657 18.855 33.6686 16.4016C33.6686 11.4398 31.3276 6.75245 27.3188 3.6878C29.7775 1.81101 32.7211 0.645056 35.8184 0.321186C38.9156 -0.00268318 42.0434 0.528389 44.8498 1.85462C50.5722 4.56074 54.2045 10.2084 54.2045 16.3984V16.4031Z" fill="#F79E1B"/>
</g>
<defs>
<clipPath id="clip0_200_4552">
<rect width="54" height="53" fill="white" transform="translate(0.291992 0.0900879)"/>
</clipPath>
</defs>
</svg>
