<svg width="159" height="64" viewBox="0 0 159 64" fill="none" xmlns="http://www.w3.org/2000/svg">
<path d="M140.915 58.3677L140.594 31.0928L158.676 31.2149L158.712 34.2409L144.064 34.142L144.167 42.9337L158.526 43.0307L158.561 46.0567L144.203 45.9597L144.313 55.3649L158.962 55.4638L158.997 58.4898L140.915 58.3677Z" fill="white"/>
<path d="M131.663 58.4915V46.019H115.483V58.4915H112.039V31.3047H115.483V43.0028H131.663V31.3047H135.107V58.4915H131.663Z" fill="white"/>
<path d="M88.1484 58.4915V31.3047H106.273V34.3209H91.5909V43.0843H105.983V46.1005H91.5909V55.4753H106.273V58.4915H88.1484Z" fill="white"/>
<path d="M80.9683 58.432H58.4922V31.3047H61.9278V55.4224H77.4085V31.3047H80.8441V55.4224H84.0313V63.4345H80.9683V58.432Z" fill="white"/>
<path d="M42.9038 59.3153C35.0794 59.3153 28.8281 53.632 28.8281 45.31C28.8281 36.988 35.0794 31.3047 42.9038 31.3047C47.9131 31.3047 51.3078 33.6186 53.502 36.6632L50.6041 38.2465C49.0309 35.9731 46.1744 34.3087 42.9038 34.3087C36.9837 34.3087 32.3884 38.8554 32.3884 45.31C32.3884 51.724 36.9837 56.3113 42.9038 56.3113C46.1744 56.3113 49.0309 54.6875 50.6041 52.3736L53.5434 53.9568C51.225 57.042 47.9131 59.3153 42.9038 59.3153Z" fill="white"/>
<path d="M53.835 29.6052L51.1885 23.0588L35.9292 23.0208L33.2486 29.5539L29.0952 29.5436L41.2709 0.100454L45.9209 0.112038L57.9884 29.6156L53.835 29.6052ZM43.61 3.3762L37.0212 19.7536L50.0683 19.7861L43.61 3.3762Z" fill="white"/>
<path d="M21.4247 29.5265L21.4598 16.005L3.85387 15.9611L3.81872 29.4826L0.0718054 29.4733L0.148438 0L3.89535 0.00933434L3.86237 12.6912L21.4683 12.7351L21.5013 0.0531945L25.2482 0.0625288L25.1716 29.5358L21.4247 29.5265Z" fill="white"/>
<path d="M21.3544 58.9903L21.3895 45.4689L3.78356 45.425L3.7484 58.9465L0.00149289 58.9372L0.078125 29.4639L3.82504 29.4732L3.79206 42.1551L21.398 42.199L21.431 29.5171L25.1779 29.5264L25.1013 58.9997L21.3544 58.9903Z" fill="white"/>
</svg>
