<svg width="26" height="25" viewBox="0 0 26 25" fill="none" xmlns="http://www.w3.org/2000/svg">
<path d="M0 10.1115C0 11.5053 0.274992 12.8125 0.824976 14.0331C1.37496 15.2538 2.13784 16.3288 3.11362 17.258C4.0894 18.1872 5.2182 18.9137 6.50001 19.4374C7.78183 19.9611 9.15457 20.2229 10.6182 20.2229C11.7714 20.2229 12.8714 20.054 13.9181 19.7161C14.9649 19.3783 15.9229 18.9137 16.7922 18.3223L23.3388 24.5691C23.4985 24.7128 23.6737 24.8205 23.8644 24.8923C24.0551 24.9641 24.2569 25 24.4699 25C24.7714 25 25.0375 24.9345 25.2682 24.8036C25.4988 24.6726 25.6784 24.4931 25.8071 24.2651C25.9357 24.037 26 23.7835 26 23.5047C26 23.3021 25.9623 23.112 25.8869 22.9346C25.8115 22.7572 25.7029 22.6009 25.561 22.4658L19.0543 16.2317C19.7373 15.3869 20.2717 14.445 20.6576 13.4059C21.0435 12.3669 21.2364 11.2688 21.2364 10.1115C21.2364 8.71768 20.9615 7.41045 20.4115 6.18981C19.8615 4.96917 19.0986 3.89424 18.1229 2.96503C17.1471 2.03582 16.0183 1.30934 14.7364 0.785605C13.4546 0.261868 12.0819 0 10.6182 0C9.15457 0 7.78183 0.261868 6.50001 0.785605C5.2182 1.30934 4.0894 2.03582 3.11362 2.96503C2.13784 3.89424 1.37496 4.96917 0.824976 6.18981C0.274992 7.41045 0 8.71768 0 10.1115ZM2.27533 10.1115C2.27533 9.01334 2.49045 7.98487 2.92067 7.0261C3.35091 6.06732 3.94968 5.22258 4.71699 4.49188C5.48431 3.76119 6.37139 3.19099 7.37821 2.78129C8.38504 2.37159 9.46505 2.16675 10.6182 2.16675C11.7714 2.16675 12.8514 2.37159 13.8583 2.78129C14.8651 3.19099 15.7499 3.76119 16.5128 4.49188C17.2757 5.22258 17.8745 6.06732 18.3091 7.0261C18.7438 7.98487 18.9611 9.01334 18.9611 10.1115C18.9611 11.2097 18.7438 12.2381 18.3091 13.1969C17.8745 14.1557 17.2757 14.9983 16.5128 15.7247C15.7499 16.4512 14.8651 17.0215 13.8583 17.4354C12.8514 17.8493 11.7714 18.0562 10.6182 18.0562C9.46505 18.0562 8.38504 17.8493 7.37821 17.4354C6.37139 17.0215 5.48431 16.4512 4.71699 15.7247C3.94968 14.9983 3.35091 14.1557 2.92067 13.1969C2.49045 12.2381 2.27533 11.2097 2.27533 10.1115Z" fill="white" fill-opacity="0.86"/>
</svg>
