<svg width="50" height="51" viewBox="0 0 50 51" fill="none" xmlns="http://www.w3.org/2000/svg">
<rect y="0.929932" width="50" height="50" rx="15" fill="#0800C6"/>
<path fill-rule="evenodd" clip-rule="evenodd" d="M20.858 15.9348H29.142C30.1153 15.8864 31.0691 16.2035 31.7929 16.8161C32.5167 17.4287 32.951 18.2864 33 19.1999V34.8148C33.0013 35.1275 32.8621 35.4263 32.6166 35.6377C32.3711 35.8491 32.0419 35.9536 31.7101 35.9254C31.4192 35.9254 31.1364 35.8357 30.9053 35.67L25.7811 32.0161C25.2972 31.6756 24.6318 31.6756 24.1479 32.0161L19.071 35.67C18.8464 35.8311 18.5727 35.9206 18.2899 35.9254C17.9581 35.9536 17.6289 35.8491 17.3834 35.6377C17.1379 35.4263 16.9987 35.1275 17 34.8148V19.1999C17.049 18.2864 17.4833 17.4287 18.2071 16.8161C18.9309 16.2035 19.8847 15.8864 20.858 15.9348ZM26.8817 30.6945L31.2012 33.8042L31.1775 19.1999C31.0655 18.2316 30.1528 17.5228 29.1183 17.6006H20.8343C19.7998 17.5228 18.8872 18.2316 18.7752 19.1999V33.8042L23.0947 30.6945C24.2132 29.8948 25.7632 29.8948 26.8817 30.6945Z" fill="white" stroke="white"/>
</svg>
