<svg width="29" height="28" viewBox="0 0 29 28" fill="none" xmlns="http://www.w3.org/2000/svg">
<path d="M13 9.66667V1H28V11.1111C28 15.0998 24.6421 18.3333 20.5 18.3333C18.8116 18.3333 17.2535 17.7961 16 16.8894M5.90137 19.7778C6.42008 20.6413 7.3896 21.2222 8.50002 21.2222C9.61044 21.2222 10.58 20.6413 11.0987 19.7778M17.9013 12.5556C18.4201 11.6921 19.3896 11.1111 20.5 11.1111C21.6104 11.1111 22.5799 11.6921 23.0987 12.5556M5.5 15.4444L5.5 14M11.5 15.4444V14M17.5 6.77778L17.5 5.33333M23.5 6.77778V5.33333M1 9.66667L1 19.7778C1 23.7665 4.35787 27 8.5 27C12.6421 27 16 23.7665 16 19.7778L16 11.5238C16 10.4981 15.1365 9.66667 14.0714 9.66667L1 9.66667Z" stroke="white" stroke-width="1.8" stroke-linecap="round" stroke-linejoin="round"/>
</svg>
