<svg width="36" height="22" viewBox="0 0 36 22" fill="none" xmlns="http://www.w3.org/2000/svg">
<path d="M22.6113 2.3512H12.9863V19.6476H22.6113V2.3512Z" fill="#FF5F00"/>
<path d="M13.5963 11C13.5948 9.33423 13.9723 7.68995 14.7002 6.19164C15.4281 4.69332 16.4873 3.38024 17.7977 2.3518C16.175 1.0763 14.2261 0.28309 12.1739 0.0628231C10.1217 -0.157443 8.04888 0.204126 6.19244 1.1062C4.33599 2.00828 2.77079 3.41447 1.67575 5.16404C0.58071 6.91362 0 8.93599 0 11C0 13.064 0.58071 15.0864 1.67575 16.836C2.77079 18.5855 4.33599 19.9917 6.19244 20.8938C8.04888 21.7959 10.1217 22.1574 12.1739 21.9372C14.2261 21.7169 16.175 20.9237 17.7977 19.6482C16.4873 18.6198 15.4281 17.3067 14.7002 15.8084C13.9723 14.31 13.5948 12.6658 13.5963 11Z" fill="#EB001B"/>
<path d="M35.596 11C35.596 13.064 35.0154 15.0863 33.9204 16.8359C32.8254 18.5855 31.2603 19.9917 29.4039 20.8938C27.5475 21.7959 25.4747 22.1574 23.4225 21.9372C21.3703 21.7169 19.4215 20.9237 17.7988 19.6482C19.1081 18.6187 20.1665 17.3054 20.8942 15.8073C21.622 14.3093 22.0001 12.6655 22.0001 11C22.0001 9.33449 21.622 7.69073 20.8942 6.19265C20.1665 4.69457 19.1081 3.38127 17.7988 2.3518C19.4215 1.0763 21.3703 0.283085 23.4225 0.0628212C25.4747 -0.157443 27.5475 0.204133 29.4039 1.10622C31.2603 2.00831 32.8254 3.4145 33.9204 5.16408C35.0154 6.91366 35.596 8.93601 35.596 11Z" fill="#F79E1B"/>
<path d="M34.5451 17.8158V17.4616H34.6879V17.3895H34.3242V17.4616H34.4671V17.8158H34.5451ZM35.2511 17.8158V17.3888H35.1396L35.0114 17.6825L34.8831 17.3888H34.7716V17.8158H34.8503V17.4937L34.9706 17.7714H35.0522L35.1724 17.493V17.8158H35.2511Z" fill="#F79E1B"/>
</svg>
