<svg width="62" height="37" viewBox="0 0 62 37" fill="none" xmlns="http://www.w3.org/2000/svg">
<path fill-rule="evenodd" clip-rule="evenodd" d="M30.8119 32.5783C27.5482 35.3354 23.3141 37 18.6873 37C8.36632 37 -0.000488281 28.7173 -0.000488281 18.5C-0.000488281 8.28273 8.36632 0 18.6873 0C23.3141 0 27.5482 1.66455 30.8119 4.42172C34.0755 1.66455 38.3096 0 42.9364 0C53.2574 0 61.6242 8.28273 61.6242 18.5C61.6242 28.7173 53.2574 37 42.9364 37C38.3096 37 34.0755 35.3354 30.8119 32.5783Z" fill="#ED0006"/>
<path fill-rule="evenodd" clip-rule="evenodd" d="M30.8047 32.5817C34.8235 29.1884 37.3719 24.1388 37.3719 18.5C37.3719 12.8612 34.8235 7.81158 30.8047 4.41833C34.0678 1.66318 38.3003 0 42.9252 0C53.2462 0 61.613 8.28273 61.613 18.5C61.613 28.7173 53.2462 37 42.9252 37C38.3003 37 34.0678 35.3368 30.8047 32.5817Z" fill="#F9A000"/>
<path fill-rule="evenodd" clip-rule="evenodd" d="M30.803 32.5796C34.8195 29.1864 37.3662 24.1383 37.3662 18.5014C37.3662 12.8644 34.8195 7.81632 30.803 4.4231C26.7864 7.81632 24.2397 12.8644 24.2397 18.5014C24.2397 24.1383 26.7864 29.1864 30.803 32.5796Z" fill="#FF5E00"/>
</svg>
