<svg width="74" height="20" viewBox="0 0 74 20" fill="none" xmlns="http://www.w3.org/2000/svg">
<path fill-rule="evenodd" clip-rule="evenodd" d="M7.31519 0.182459C7.96436 0.178576 9.89367 0.00481212 10.7109 2.76292C11.2614 4.62081 12.1383 7.66412 13.3416 11.8928H13.8316C15.122 7.43462 16.0085 4.39131 16.491 2.76292C17.3167 -0.0239182 19.381 0.182514 20.2068 0.182514L26.5775 0.182522V20H20.0843V8.32122H19.6489L16.0292 20H11.1439L7.52431 8.31256H7.08889V20H0.595703V0.182522L7.31519 0.182459ZM35.9016 0.182522V11.87H36.4195L40.8225 2.25946C41.6772 0.346946 43.4988 0.182522 43.4988 0.182522H49.7823V20H43.1535V8.31256H42.6355L38.3189 17.9231C37.4642 19.8269 35.5562 20 35.5562 20H29.2728V0.182522H35.9016ZM72.6943 9.59992C71.7697 12.2202 68.8659 14.0967 65.6511 14.0967H58.6995V20H52.3959V9.59992H72.6943Z" fill="#0F754E"/>
<path fill-rule="evenodd" clip-rule="evenodd" d="M65.9562 0.182373H52.0664C52.397 4.59442 56.1965 8.37142 60.1298 8.37142H73.1334C73.8838 4.70449 71.3006 0.182373 65.9562 0.182373Z" fill="url(#paint0_linear_200_4365)"/>
<defs>
<linearGradient id="paint0_linear_200_4365" x1="73.261" y1="5.33364" x2="52.0664" y2="5.33364" gradientUnits="userSpaceOnUse">
<stop stop-color="#1F5CD7"/>
<stop offset="1" stop-color="#02AEFF"/>
</linearGradient>
</defs>
</svg>
