<svg width="121" height="37" viewBox="0 0 121 37" fill="none" xmlns="http://www.w3.org/2000/svg">
<g clip-path="url(#clip0_200_4524)">
<path fill-rule="evenodd" clip-rule="evenodd" d="M11.041 34.8249H0.624023V0.00264286H11.041C15.7032 0.00264286 16.7296 3.63657 17.2555 5.44957L21.5551 20.4874C21.6342 20.7834 21.7236 20.9737 21.9764 20.9896C22.2291 20.9737 22.3159 20.7834 22.3976 20.4874L26.6947 5.44957C27.2257 3.63657 28.2521 0.00264286 32.9142 0.00264286H43.3313V34.8249H32.9142V14.3322C32.7304 13.7931 31.9925 13.8935 31.8725 14.3322L25.6223 34.8249H18.3304L12.0802 14.3322C11.9602 13.8935 11.2249 13.7931 11.041 14.3322V34.8249ZM58.5151 0V20.4954C58.6989 21.0345 59.4342 20.9367 59.5568 20.4954L66.7925 4.7915C67.6376 2.9045 68.784 0.1295 71.1279 0H81.5449V34.8223H71.1279V14.1551C70.944 13.616 70.1908 13.7138 70.0708 14.1551L63.1134 30.0387C61.3593 33.9475 60.3049 34.8249 58.5151 34.8249H48.0981V0.00264286H58.5151V0ZM86.6155 15.8915H119.347C118.244 19.2664 114.453 23.6668 108.593 23.6668H97.0325V34.8249H86.6155V15.8915Z" fill="#3CA436"/>
<path fill-rule="evenodd" clip-rule="evenodd" d="M119.817 14.1525H102.558C94.2139 14.1525 86.5799 9.38218 85.2573 0.00268555H108.593C115.704 0.00268555 121.191 6.72876 119.817 14.1525Z" fill="url(#paint0_linear_200_4524)"/>
</g>
<defs>
<linearGradient id="paint0_linear_200_4524" x1="85.2573" y1="598.117" x2="3794.46" y2="1967.65" gradientUnits="userSpaceOnUse">
<stop stop-color="#00A5E2"/>
<stop offset="1" stop-color="#007CC4"/>
</linearGradient>
<clipPath id="clip0_200_4524">
<rect width="120" height="37" fill="white" transform="translate(0.624023)"/>
</clipPath>
</defs>
</svg>
