<svg width="193" height="51" viewBox="0 0 193 51" fill="none" xmlns="http://www.w3.org/2000/svg">
<rect y="0.929932" width="193" height="50" rx="14" fill="#0800C6"/>
<path d="M56.44 34.0899C55.04 34.0899 53.7733 33.7833 52.64 33.1699C51.52 32.5433 50.64 31.6899 50 30.6099C49.36 29.5166 49.04 28.2899 49.04 26.9299C49.04 25.5699 49.36 24.3499 50 23.2699C50.64 22.1766 51.5267 21.3233 52.66 20.7099C53.7933 20.0833 55.06 19.7699 56.46 19.7699C57.5533 19.7699 58.5533 19.9566 59.46 20.3299C60.3667 20.6899 61.14 21.2299 61.78 21.9499L60.48 23.2099C59.4267 22.1033 58.1133 21.5499 56.54 21.5499C55.5 21.5499 54.56 21.7833 53.72 22.2499C52.88 22.7166 52.22 23.3633 51.74 24.1899C51.2733 25.0033 51.04 25.9166 51.04 26.9299C51.04 27.9433 51.2733 28.8633 51.74 29.6899C52.22 30.5033 52.88 31.1433 53.72 31.6099C54.56 32.0766 55.5 32.3099 56.54 32.3099C58.1 32.3099 59.4133 31.7499 60.48 30.6299L61.78 31.8899C61.14 32.6099 60.36 33.1566 59.44 33.5299C58.5333 33.9033 57.5333 34.0899 56.44 34.0899ZM77.5155 33.9299L77.4955 23.7299L72.4355 32.2299H71.5155L66.4555 23.7899V33.9299H64.5355V19.9299H66.1755L72.0155 29.7699L77.7755 19.9299H79.4155L79.4355 33.9299H77.5155ZM90.0933 34.0899C88.6799 34.0899 87.4066 33.7833 86.2733 33.1699C85.1399 32.5433 84.2466 31.6833 83.5933 30.5899C82.9533 29.4966 82.6333 28.2766 82.6333 26.9299C82.6333 25.5833 82.9533 24.3633 83.5933 23.2699C84.2466 22.1766 85.1399 21.3233 86.2733 20.7099C87.4066 20.0833 88.6799 19.7699 90.0933 19.7699C91.4933 19.7699 92.7599 20.0833 93.8933 20.7099C95.0266 21.3233 95.9133 22.1766 96.5533 23.2699C97.1933 24.3499 97.5133 25.5699 97.5133 26.9299C97.5133 28.2899 97.1933 29.5166 96.5533 30.6099C95.9133 31.6899 95.0266 32.5433 93.8933 33.1699C92.7599 33.7833 91.4933 34.0899 90.0933 34.0899ZM90.0933 32.3099C91.1199 32.3099 92.0399 32.0766 92.8533 31.6099C93.6799 31.1433 94.3266 30.5033 94.7933 29.6899C95.2733 28.8633 95.5133 27.9433 95.5133 26.9299C95.5133 25.9166 95.2733 25.0033 94.7933 24.1899C94.3266 23.3633 93.6799 22.7166 92.8533 22.2499C92.0399 21.7833 91.1199 21.5499 90.0933 21.5499C89.0666 21.5499 88.1333 21.7833 87.2933 22.2499C86.4666 22.7166 85.8133 23.3633 85.3333 24.1899C84.8666 25.0033 84.6333 25.9166 84.6333 26.9299C84.6333 27.9433 84.8666 28.8633 85.3333 29.6899C85.8133 30.5033 86.4666 31.1433 87.2933 31.6099C88.1333 32.0766 89.0666 32.3099 90.0933 32.3099ZM110.171 21.6699H105.371V33.9299H103.411V21.6699H98.6311V19.9299H110.171V21.6699ZM118.062 19.9299C119.875 19.9299 121.302 20.3633 122.342 21.2299C123.382 22.0966 123.902 23.2899 123.902 24.8099C123.902 26.3299 123.382 27.5233 122.342 28.3899C121.302 29.2566 119.875 29.6899 118.062 29.6899H114.602V33.9299H112.602V19.9299H118.062ZM118.002 27.9499C119.269 27.9499 120.235 27.6833 120.902 27.1499C121.569 26.6033 121.902 25.8233 121.902 24.8099C121.902 23.7966 121.569 23.0233 120.902 22.4899C120.235 21.9433 119.269 21.6699 118.002 21.6699H114.602V27.9499H118.002ZM136.844 32.1899V33.9299H126.684V19.9299H136.564V21.6699H128.684V25.9699H135.704V27.6699H128.684V32.1899H136.844ZM149.605 21.6699H144.805V33.9299H142.845V21.6699H138.065V19.9299H149.605V21.6699ZM158.175 24.8099C159.842 24.8099 161.115 25.1833 161.995 25.9299C162.889 26.6766 163.335 27.7766 163.335 29.2299C163.335 30.7633 162.855 31.9299 161.895 32.7299C160.949 33.5299 159.589 33.9299 157.815 33.9299H152.035V19.9299H154.015V24.8099H158.175ZM157.735 32.3499C158.895 32.3499 159.782 32.0899 160.395 31.5699C161.022 31.0366 161.335 30.2699 161.335 29.2699C161.335 27.3499 160.135 26.3899 157.735 26.3899H154.015V32.3499H157.735Z" fill="white"/>
<path d="M24.2809 35.6263C23.7495 35.9622 23.2364 36.0194 22.7419 35.798C22.2473 35.5766 22 35.1834 22 34.6185V18.1961C22 17.6311 22.2584 17.2494 22.7751 17.0509C23.2918 16.8524 23.7937 16.8982 24.2809 17.1883L37.3023 25.159C37.7599 25.4491 37.9924 25.869 37.9998 26.4187C38.0072 26.9685 37.7747 27.3961 37.3023 27.7014L24.2809 35.6263Z" fill="white"/>
</svg>
