<svg width="164" height="52" viewBox="0 0 164 52" fill="none" xmlns="http://www.w3.org/2000/svg">
<path fill-rule="evenodd" clip-rule="evenodd" d="M69.2851 30.4676C66.9658 30.4641 64.7425 29.5407 63.1032 27.8999C61.4639 26.2592 60.5423 24.0351 60.5408 21.7157C60.5423 19.3964 61.4639 17.1723 63.1032 15.5315C64.7425 13.8908 66.9658 12.9673 69.2851 12.9638C71.6048 12.9668 73.8286 13.8901 75.4683 15.5309C77.1081 17.1717 78.0298 19.396 78.0313 21.7157C78.0293 24.0353 77.1074 26.2593 75.4678 27.9C73.8281 29.5407 71.6047 30.4641 69.2851 30.4676ZM69.2851 9.42505C62.5136 9.42505 57.0059 14.9385 57.0059 21.7157C57.0059 25.8171 58.7277 29.4718 61.9852 32.2845C65.0394 34.9206 69.4163 36.7356 74.4679 37.5775C75.1901 37.1784 76.5584 35.8404 76.9918 34.9206C73.2686 34.2782 71.562 33.6415 71.562 33.6415C71.562 33.6415 72.039 33.6225 72.995 33.3526C77.9686 31.9576 81.6157 27.041 81.5663 21.7157C81.5036 14.9385 76.0586 9.42505 69.2851 9.42505ZM161.147 29.8785V30.4866H161.514C161.62 30.4866 161.704 30.4581 161.765 30.4011C161.795 30.3734 161.818 30.3396 161.834 30.3018C161.85 30.2641 161.857 30.2234 161.856 30.1826C161.856 29.9811 161.742 29.8785 161.514 29.8785H161.147ZM162.223 30.1674C162.223 30.3194 162.181 30.4524 162.099 30.5608C162.014 30.6717 161.895 30.7518 161.761 30.7888L162.293 31.6251H161.88L161.394 30.8135H161.147V31.627H160.795V29.5516H161.561C161.737 29.5444 161.908 29.605 162.04 29.7207C162.101 29.7775 162.149 29.8469 162.18 29.924C162.212 30.0011 162.226 30.0841 162.223 30.1674ZM160.358 31.7543C160.497 31.8946 160.664 32.0045 160.848 32.0771C161.032 32.1497 161.229 32.1834 161.426 32.1762C161.861 32.1762 162.217 32.0356 162.494 31.7543C162.634 31.6078 162.742 31.4347 162.814 31.2453C162.885 31.0559 162.917 30.8541 162.909 30.652C162.917 30.4507 162.885 30.2498 162.814 30.0613C162.743 29.8728 162.634 29.7007 162.494 29.5554C162.355 29.4161 162.188 29.3071 162.004 29.2351C161.82 29.1632 161.623 29.1299 161.426 29.1373C161.229 29.1299 161.032 29.1632 160.849 29.2351C160.665 29.3071 160.498 29.4161 160.358 29.5554C160.218 29.7009 160.109 29.8733 160.038 30.0621C159.967 30.2509 159.935 30.4523 159.944 30.6539C159.944 31.1043 160.081 31.4711 160.358 31.7543ZM160.086 29.2969C160.262 29.1223 160.471 28.9856 160.702 28.895C160.932 28.8045 161.179 28.7621 161.426 28.7705C161.968 28.7705 162.415 28.9453 162.764 29.2969C162.94 29.4753 163.077 29.6876 163.168 29.921C163.258 30.1544 163.3 30.4038 163.291 30.6539C163.291 31.2107 163.116 31.6669 162.764 32.0166C162.589 32.1909 162.38 32.3275 162.15 32.4181C161.92 32.5086 161.673 32.5511 161.426 32.543C161.179 32.5514 160.932 32.509 160.702 32.4185C160.471 32.3279 160.262 32.1911 160.086 32.0166C159.737 31.6669 159.56 31.2107 159.56 30.6539C159.56 30.1008 159.737 29.6466 160.086 29.2969ZM137.2 27.3622L133.051 16.3487H129.357L135.408 31.722L132.732 38.0887C134.492 38.0887 136.419 37.9652 137.174 36.1084C138.941 31.7524 145.099 16.3487 145.099 16.3487H141.402L137.2 27.3622ZM123.336 32.8566C123.336 32.8566 126.766 32.792 126.766 30.4619V9.54288H123.336V32.8585V32.8566ZM111.083 29.6352C109.01 29.6352 105.906 28.2497 105.857 24.4335V24.4069C105.857 21.3926 108.081 19.1215 111.026 19.1215C113.227 19.1215 115.014 20.2713 115.814 22.208C116.127 22.8636 116.279 23.6296 116.251 24.4278C116.23 25.2034 116.051 25.9666 115.724 26.6704C114.917 28.5272 113.182 29.6352 111.083 29.6352ZM116.222 18.5171C115.266 17.183 113.4 15.8887 110.654 15.8887C105.963 15.8887 102.428 19.5377 102.428 24.3784C102.428 26.64 103.202 28.742 104.604 30.2966C106.123 31.9785 108.215 32.8661 110.652 32.8661C113.016 32.8661 115.04 31.9025 116.22 30.2491V32.8566C116.22 32.8566 119.653 32.8015 119.653 30.4657V16.3487H116.222V18.5152V18.5171ZM96.1775 25.2963C96.1775 28.0692 94.7388 29.6105 92.1294 29.6352C89.482 29.6352 88.1953 28.1319 88.1953 25.0378V16.3506H84.7649V25.7277C84.7649 27.0828 84.993 29.0118 86.0781 30.5227C87.19 32.066 88.9441 32.8547 91.2951 32.8699H91.3901C94.2029 32.8699 95.6492 31.5946 96.3505 30.6045V32.8585C96.3505 32.8585 99.608 32.8015 99.608 30.5817V16.3487H96.1775V25.2963ZM153.324 22.8712C151.542 22.1015 150.245 21.4345 150.268 20.4006C150.284 19.7164 151.184 19.0588 152.121 19.0911C153.123 19.1272 153.866 19.819 154.282 20.3721C154.282 20.3721 156.156 18.768 156.382 18.597C155.413 16.9891 153.761 16.0826 151.912 16.0427C149.274 15.9857 147.083 18.0553 147.024 20.6571C146.975 22.9131 148.296 23.8443 150.027 24.8269L152.874 26.429C153.531 26.889 153.843 27.2329 153.826 27.9399C153.801 29.0498 152.876 29.7682 151.675 29.8405C150.793 29.8918 150.067 29.3805 149.381 28.6621C148.043 27.2596 145.99 27.9323 145.363 28.1357C146.669 31.1404 149.139 32.8908 151.606 32.944C154.716 33.0143 157.201 30.7185 157.266 27.7176C157.298 26.2751 156.667 24.4829 153.324 22.8712Z" fill="#262626"/>
<path fill-rule="evenodd" clip-rule="evenodd" d="M22.0635 0.045166C36.0248 0.045166 43.0453 7.51992 43.0453 7.51992C43.0453 7.51992 43.8473 13.0542 43.3342 24.1951C42.5607 41.0261 22.0673 51.135 22.0654 51.135C22.0654 51.135 1.5702 41.0261 0.796691 24.1951C0.28355 13.0542 1.08747 7.51992 1.08747 7.51992C1.08747 7.51992 8.1023 0.045166 22.0635 0.045166Z" fill="#ED2E26"/>
<path fill-rule="evenodd" clip-rule="evenodd" d="M11.5898 22.1694C11.5898 16.2189 16.2917 11.3763 22.0693 11.3763C24.8512 11.3804 27.5179 12.4878 29.4843 14.4556C31.4508 16.4235 32.5562 19.091 32.5583 21.8729C32.5583 26.4931 28.5881 30.2941 25.5301 32.2498C26.7161 32.9264 29.335 33.6371 31.8437 33.8671C33.6774 32.4517 35.1622 30.6347 36.1839 28.5558C37.2056 26.4768 37.7369 24.1913 37.7372 21.8748C37.7372 13.2274 30.7091 6.1936 22.0693 6.1936C13.4295 6.1936 6.40137 13.2255 6.40137 21.8729C6.40137 27.0955 8.57366 31.7328 12.6845 35.2887C16.5274 38.6108 22.1491 40.8306 28.5482 41.8797C29.9355 41.1138 32.3055 38.8503 33.1949 37.5237C27.8507 36.8357 22.7915 35.532 19.4009 33.7512C14.2182 31.0315 11.5898 27.1336 11.5898 22.1694Z" fill="white"/>
<path fill-rule="evenodd" clip-rule="evenodd" d="M90.5659 43.4974C89.6631 43.4974 88.9922 44.2709 88.9922 45.1527C88.9887 45.5745 89.1522 45.9806 89.447 46.2822C89.7419 46.5838 90.1441 46.7565 90.5659 46.7625C91.4838 46.7625 92.1395 46.0061 92.1395 45.109C92.1395 44.2424 91.4401 43.4974 90.5659 43.4974ZM90.5583 47.2224C89.437 47.2224 88.4829 46.2816 88.4829 45.1603C88.4829 44.0086 89.4009 43.0394 90.5583 43.0394C91.6948 43.0394 92.6489 43.9934 92.6489 45.1299C92.6489 46.2759 91.7024 47.2224 90.5583 47.2224ZM96.5829 47.1274V44.9342C96.5829 44.5541 96.4879 44.1112 96.2028 43.8414C95.9674 43.6231 95.6582 43.5018 95.3371 43.5018C95.0161 43.5018 94.7069 43.6231 94.4715 43.8414C94.194 44.1036 94.0989 44.5332 94.0989 44.8981V47.1274H93.5896V43.142H94.0989V43.6513H94.1142C94.3764 43.2427 94.863 43.0394 95.3362 43.0394C96.4803 43.0394 97.0923 43.8338 97.0923 44.9342V47.1274H96.5829ZM99.16 43.6V47.1274H98.6488V43.6H97.8126V43.142H98.6488V41.7356H99.16V43.142H100.114V43.6H99.16ZM100.973 43.142H102.874V47.1274H100.973V43.142ZM100.973 41.7356H102.874V42.4654H100.973V41.7356Z" fill="#262626"/>
<path fill-rule="evenodd" clip-rule="evenodd" d="M105.783 47.1274V44.9342C105.783 44.5541 105.688 44.1112 105.403 43.8414C105.167 43.6226 104.858 43.501 104.536 43.501C104.215 43.501 103.905 43.6226 103.669 43.8414C103.394 44.1036 103.299 44.5332 103.299 44.8981V47.1274H102.79V43.142H103.299V43.6513H103.314C103.574 43.2427 104.063 43.0394 104.536 43.0394C105.68 43.0394 106.292 43.8338 106.292 44.9342V47.1274H105.783ZM110.363 47.1274V46.5078H110.35C110.116 46.9962 109.599 47.2224 109.076 47.2224C108.558 47.2224 108.033 47.04 107.706 46.6256C107.421 46.2683 107.357 45.7875 107.357 45.3428V43.142H107.866V45.3352C107.866 46.1581 108.164 46.7625 109.075 46.7625C109.23 46.7697 109.385 46.7451 109.53 46.6902C109.676 46.6353 109.809 46.5512 109.92 46.4432C110.27 46.1068 110.335 45.7134 110.335 45.2459V43.142H110.844V47.1274H110.363ZM113.875 43.4974C112.973 43.4974 112.302 44.2709 112.302 45.1527C112.298 45.5745 112.462 45.9806 112.756 46.2822C113.051 46.5838 113.454 46.7565 113.875 46.7625C114.793 46.7625 115.449 46.0061 115.449 45.109C115.449 44.2424 114.75 43.4974 113.875 43.4974ZM113.868 47.2224C112.746 47.2224 111.792 46.2816 111.792 45.1603C111.792 44.0086 112.71 43.0394 113.868 43.0394C115.004 43.0394 115.958 43.9934 115.958 45.1299C115.958 46.2759 115.01 47.2224 113.868 47.2224ZM119.849 47.1274V46.5078H119.835C119.602 46.9962 119.085 47.2224 118.562 47.2224C118.043 47.2224 117.519 47.04 117.192 46.6256C116.907 46.2683 116.842 45.7875 116.842 45.3428V43.142H117.351V45.3352C117.351 46.1581 117.65 46.7625 118.56 46.7625C118.715 46.7697 118.871 46.7451 119.016 46.6902C119.161 46.6353 119.294 46.5512 119.406 46.4432C119.756 46.1068 119.82 45.7134 119.82 45.2459V43.142H120.329V47.1274H119.849ZM143.942 47.1274V46.5078H143.926C143.694 46.9962 143.178 47.2224 142.653 47.2224C142.136 47.2224 141.612 47.04 141.285 46.6256C141 46.2683 140.933 45.7875 140.933 45.3428V43.142H141.444V45.3352C141.444 46.1581 141.743 46.7625 142.653 46.7625C142.808 46.7695 142.963 46.7447 143.108 46.6898C143.253 46.6349 143.385 46.551 143.497 46.4432C143.847 46.1068 143.913 45.7134 143.913 45.2459V43.142H144.422V47.1274H143.942ZM148.605 43.142H150.506V47.1274H148.605V43.142ZM148.605 41.7356H150.506V42.4654H148.605V41.7356Z" fill="#262626"/>
<path fill-rule="evenodd" clip-rule="evenodd" d="M151.507 43.6006V47.1279H150.996V43.6006H150.16V43.1425H150.996V41.7362H151.507V43.1425H152.461V43.6006H151.507ZM154.365 48.5267H153.833L154.525 46.9968L152.974 43.1425H153.514L154.782 46.3202L156.135 43.1425H156.675L154.365 48.5267ZM132.893 43.8628C133.14 43.6158 133.479 43.4922 133.91 43.4922C134.103 43.4881 134.294 43.523 134.473 43.5949C134.628 43.6593 134.767 43.7555 134.882 43.8773C134.998 43.9991 135.086 44.1437 135.142 44.3019C135.196 44.4511 135.23 44.6072 135.242 44.7656H132.462C132.504 44.4258 132.655 44.109 132.893 43.8628ZM135.206 46.2271C135.063 46.3681 134.9 46.4884 134.724 46.5844C134.483 46.7099 134.214 46.772 133.942 46.7649C133.744 46.7669 133.546 46.7334 133.359 46.6661C133.182 46.6014 133.019 46.5015 132.881 46.3725C132.744 46.2436 132.633 46.0881 132.557 45.9154C132.471 45.7147 132.427 45.4989 132.426 45.2806V45.2236H135.784V45.0811C135.784 44.8036 135.746 44.5413 135.67 44.2943C135.598 44.0556 135.478 43.8339 135.318 43.6424C135.157 43.4529 134.956 43.3016 134.729 43.1996C134.469 43.0856 134.187 43.0298 133.903 43.0361C133.604 43.0361 133.332 43.0912 133.093 43.1996C132.857 43.304 132.646 43.4568 132.473 43.6481C132.302 43.8362 132.171 44.0605 132.078 44.3171C131.983 44.5856 131.936 44.8686 131.939 45.1533C131.939 45.4669 131.989 45.7501 132.088 46.0066C132.178 46.25 132.32 46.4715 132.502 46.6566C132.684 46.8378 132.901 46.9795 133.14 47.0728C133.388 47.1717 133.663 47.2211 133.965 47.2211C134.332 47.2211 134.644 47.1488 134.898 47.0082C135.149 46.8714 135.356 46.7155 135.526 46.5445L135.206 46.2271ZM122.868 44.8169C122.161 44.6516 121.867 44.5261 121.867 44.1764C121.867 43.8115 122.235 43.5664 122.783 43.5664C123.231 43.5664 123.638 43.726 123.902 44.0054L124.269 43.6386C124.073 43.4453 123.841 43.2932 123.586 43.1913C123.331 43.0894 123.057 43.0399 122.783 43.0456C121.937 43.0456 121.346 43.5093 121.346 44.1764C121.346 44.9937 122.157 45.1837 122.748 45.3243C123.474 45.4954 123.799 45.6379 123.799 46.0389C123.799 46.4571 123.431 46.706 122.811 46.706C122.582 46.7122 122.354 46.672 122.141 46.5877C121.928 46.5034 121.735 46.3769 121.572 46.2157L121.205 46.5825C121.599 46.9911 122.18 47.2268 122.811 47.2268C123.853 47.2268 124.318 46.63 124.318 46.0389C124.318 45.159 123.446 44.9537 122.868 44.8169ZM87.5184 46.075C87.0946 46.4837 86.5643 46.7402 85.9486 46.7402C84.7322 46.7402 83.6774 45.6626 83.6774 44.452C83.6774 43.2281 84.7037 42.1429 85.9429 42.1429C86.5377 42.1429 87.1117 42.3804 87.5317 42.7928L87.8928 42.4317C87.3685 41.9326 86.6725 41.6537 85.9486 41.6525C84.3844 41.6525 83.1377 42.8708 83.1377 44.4463C83.1377 46.0047 84.411 47.2287 85.9562 47.2287C86.6879 47.2287 87.3702 46.9341 87.8852 46.4438L87.5184 46.077V46.075ZM139.783 46.3126C139.631 46.4598 139.452 46.5754 139.256 46.6527C139.06 46.73 138.85 46.7675 138.639 46.763C138.422 46.7666 138.207 46.7267 138.006 46.6458C137.806 46.5648 137.623 46.4444 137.47 46.2916C137.316 46.1389 137.195 45.9569 137.113 45.7565C137.031 45.5561 136.99 45.3413 136.993 45.1248C136.993 44.2049 137.728 43.4998 138.639 43.4998C139.085 43.4998 139.494 43.6785 139.788 43.9883L140.134 43.6405C139.728 43.2507 139.186 43.0352 138.623 43.0399C137.458 43.0399 136.483 43.9655 136.483 45.1381C136.483 46.3259 137.453 47.223 138.623 47.223C139.239 47.223 139.731 47.0139 140.113 46.6414L139.783 46.3126ZM129.313 44.0966C128.431 43.8876 127.853 43.7089 127.853 43.1121C127.853 42.5496 128.402 42.1714 129.222 42.1714C129.868 42.1714 130.461 42.4051 130.845 42.8157L131.211 42.4489C130.729 41.9414 130.006 41.6506 129.22 41.6506C128.11 41.6506 127.332 42.2512 127.332 43.114C127.332 44.165 128.408 44.4178 129.195 44.6021C130.088 44.8112 130.723 45.0146 130.723 45.6873C130.723 46.3183 130.162 46.7098 129.26 46.7098C128.539 46.7098 127.885 46.4438 127.458 45.9857L127.091 46.3525C127.616 46.9094 128.402 47.2306 129.26 47.2306C130.465 47.2306 131.242 46.6243 131.242 45.6873C131.242 44.5489 130.128 44.2867 129.313 44.0966ZM146.081 43.1425H145.572V47.1279H146.081V44.8986C146.081 44.5337 146.176 44.1194 146.452 43.8571C146.689 43.6442 146.999 43.53 147.318 43.5379C147.385 43.5379 147.476 43.5455 147.541 43.5569V43.0494C147.467 43.0434 147.393 43.0403 147.318 43.0399C146.845 43.0399 146.343 43.268 146.081 43.6747V43.1425Z" fill="#262626"/>
</svg>
