<svg width="158" height="27" viewBox="0 0 158 27" fill="none" xmlns="http://www.w3.org/2000/svg">
<path d="M6.0022 7.41499C5.88622 6.92036 5.91521 6.42573 5.97321 6.1475C6.11819 5.37464 6.61112 4.53994 8.03193 4.53994C9.36576 4.53994 10.1197 5.40555 10.1197 6.73487C10.1197 7.16767 10.1197 8.21877 10.1197 8.21877H15.7449V6.51847C15.7449 1.29392 11.3085 0.459229 8.11892 0.459229C4.11745 0.459229 0.840888 1.8813 0.231969 5.80744C0.0579921 6.88944 0.0289962 7.84779 0.289961 9.05346C1.27583 13.9689 9.30776 15.3909 10.4676 18.5133C10.6996 19.1007 10.6126 19.8426 10.5256 20.3063C10.3516 21.1101 9.82969 21.9448 8.32189 21.9448C6.90108 21.9448 6.06019 21.0792 6.06019 19.7499V17.4313H0V19.2862C0 24.6653 3.97247 26.2728 8.20591 26.2728C12.2944 26.2728 15.6289 24.7889 16.1799 20.77C16.4408 18.6988 16.2378 17.3385 16.1509 16.8439C15.223 11.743 6.64012 10.2282 6.0022 7.41499ZM79.4494 7.47682C79.3625 7.0131 79.3915 6.48755 79.4204 6.24024C79.5944 5.46737 80.0584 4.63268 81.4792 4.63268C82.784 4.63268 83.5379 5.49829 83.5379 6.7967C83.5379 7.2295 83.5379 8.2806 83.5379 8.2806H89.1052V6.61122C89.1052 1.41758 84.7557 0.613801 81.5952 0.613801C77.6227 0.613801 74.3751 2.00495 73.7662 5.90018C73.6212 6.95127 73.5632 7.90962 73.8242 9.11529C74.7811 13.9689 82.726 15.3909 83.8859 18.4824C84.0888 19.0698 84.0308 19.8117 83.9149 20.2445C83.7409 21.0483 83.2479 21.8521 81.7401 21.8521C80.3483 21.8521 79.4784 20.9865 79.4784 19.688V17.3695H73.4762V19.1934C73.4762 24.5107 77.3907 26.1183 81.5952 26.1183C85.6256 26.1183 88.9602 24.6344 89.4821 20.6773C89.7431 18.606 89.5401 17.2767 89.4531 16.7821C88.5542 11.7739 80.0874 10.2591 79.4494 7.47682ZM130.715 20.6155L125.408 1.23209H117.028V25.0672H122.567L122.248 5.06549L127.96 25.0672H135.992V1.23209H130.425L130.715 20.6155ZM24.1828 1.23209L20.0073 25.2836H26.0965L29.2571 2.99422L32.3307 25.2836H38.3909L34.2155 1.20118H24.1828V1.23209ZM58.2823 1.23209L55.4406 20.059L52.599 1.23209H43.3782L42.8853 25.3145H48.5396L48.6845 3.02513L52.57 25.2836H58.2823L62.1677 2.99422L62.3127 25.2836H67.967L67.474 1.20118H58.2823V1.23209ZM110.765 1.23209H105.053V19.0388C105.053 19.348 105.053 19.688 104.995 19.9663C104.879 20.5536 104.415 21.7284 102.82 21.7284C101.255 21.7284 100.791 20.5846 100.675 19.9663C100.617 19.719 100.617 19.348 100.617 19.0388V1.23209H94.9044V18.4824C94.9044 18.9152 94.9334 19.8426 94.9624 20.059C95.3683 24.5416 98.6739 26.0255 102.82 26.0255C106.967 26.0255 110.301 24.5725 110.707 20.059C110.736 19.8117 110.794 18.9152 110.765 18.4824V1.23209ZM149.968 11.7739V15.2982H152.288V18.7915C152.288 19.1007 152.288 19.4407 152.23 19.719C152.143 20.3682 151.563 21.4811 149.91 21.4811C148.286 21.4811 147.706 20.3682 147.619 19.719C147.59 19.4407 147.561 19.1007 147.561 18.7915V7.78596C147.561 7.38407 147.59 6.98219 147.677 6.64213C147.793 6.05475 148.286 4.91092 149.91 4.91092C151.65 4.91092 152.056 6.11658 152.172 6.64213C152.23 6.98219 152.23 7.56956 152.23 7.56956V8.89889H157.913V8.09511C157.913 8.09511 157.942 7.26042 157.884 6.48755C157.449 1.97404 153.97 0.551973 149.968 0.551973C145.967 0.551973 142.545 2.00495 142.052 6.48755C141.994 6.88944 141.936 7.63139 141.936 8.09511V18.2041C141.936 18.637 141.936 18.977 142.023 19.7808C142.4 24.1706 145.967 25.7164 149.968 25.7164C153.999 25.7164 157.536 24.1706 157.913 19.7808C157.971 18.977 158 18.637 158 18.2041V11.743H149.968V11.7739Z" fill="#B8B8B8" fill-opacity="0.81"/>
</svg>
