<svg width="27" height="25" viewBox="0 0 27 25" fill="none" xmlns="http://www.w3.org/2000/svg">
<path d="M18.1875 24H8.8125M1 14.4936V5.90697C1 4.18947 1 3.33008 1.3406 2.67409C1.64021 2.09706 2.11793 1.62826 2.70593 1.33425C3.37441 1 4.25014 1 6.00031 1H21.0003C22.7505 1 23.6243 1 24.2928 1.33425C24.8808 1.62826 25.3601 2.09706 25.6597 2.67409C26 3.32944 26 4.18779 26 5.90193V14.4981C26 16.2122 26 17.0693 25.6597 17.7247C25.3601 18.3017 24.8808 18.7721 24.2928 19.0661C23.625 19.4 22.7516 19.4 21.0048 19.4H5.99517C4.24843 19.4 3.37375 19.4 2.70593 19.0661C2.11793 18.7721 1.64021 18.3017 1.3406 17.7247C1 17.0687 1 16.2111 1 14.4936Z" stroke="white" stroke-width="2" stroke-linecap="round" stroke-linejoin="round"/>
</svg>
