<svg width="141" height="36" viewBox="0 0 141 36" fill="none" xmlns="http://www.w3.org/2000/svg">
<path d="M10.4427 0.543392C5.42555 1.46939 1.6598 4.19777 0.511703 7.75294C-0.48714 10.812 0.0065409 14.5822 1.72868 17.0294C3.68045 19.8074 5.78146 20.6342 14.6907 22.0893C19.926 22.9492 20.856 23.2303 21.6367 24.2059C22.2222 24.9169 22.4059 25.7933 22.2107 27.0004C22.05 28.0753 21.6481 28.6871 20.6608 29.365C18.8353 30.6217 16.1488 31.1013 13.2441 30.6879C9.91461 30.2084 7.48064 29.1005 5.80442 27.2815C4.69077 26.0744 4.08228 24.6524 3.78378 22.5358L3.72637 22.0893H2.17644H0.626513V28.2902V34.4911H2.34866H4.0708V33.7801C4.0708 32.9037 4.30042 32.2588 4.59892 32.2918C4.71373 32.2918 5.41407 32.6226 6.13737 33.0029C7.871 33.8958 9.52425 34.5407 11.3612 35.0037C13.4507 35.5494 17.1361 35.5494 19.1453 35.0202C24.2084 33.6808 27.0212 31.1509 27.9627 27.0831C28.6286 24.2059 27.9971 20.5515 26.4472 18.2861C24.4495 15.3759 21.74 14.2845 12.7963 12.8294C6.81475 11.8538 6.2407 11.6223 5.91923 9.91911C5.57481 8.13326 6.964 6.51276 9.52425 5.68598C10.5116 5.3718 11.0168 5.3222 13.1408 5.3222C14.9662 5.3222 15.8732 5.38834 16.6424 5.58677C20.6263 6.66158 22.9111 8.67893 23.7147 11.8538L23.9673 12.8294H25.3221H26.6883V7.37262V1.91585H25.1384H23.5884V2.64342C23.5884 3.08989 23.5195 3.48674 23.4162 3.63556C23.221 3.91667 23.1177 3.88359 21.5333 2.92453C19.7079 1.81664 17.0558 0.890644 14.8859 0.593002C13.7148 0.44418 11.1775 0.41111 10.4427 0.543392Z" fill="#B8B8B8" fill-opacity="0.81"/>
<path d="M47.9487 0.625359C45.6649 1.00145 42.8916 2.0643 41.004 3.30703C37.5316 5.5799 35.4109 8.76847 34.3039 13.3633C33.966 14.7695 33.931 15.1456 33.8844 17.3694C33.8145 20.1329 33.9427 21.2775 34.537 23.4195C35.0613 25.3327 35.6556 26.6572 36.7043 28.2106C37.8579 29.9438 39.0697 31.2029 40.5845 32.3148C47.0864 36.9914 56.6879 36.3046 62.1878 30.7451C64.693 28.2106 66.301 24.695 66.8254 20.6398C67.0351 18.9719 66.9186 15.2764 66.6156 13.674C66.1379 11.2049 65.229 9.04645 63.7958 7.0352C60.7662 2.76742 56.0004 0.396435 50.5821 0.461842C49.615 0.478195 48.4265 0.543602 47.9487 0.625359ZM52.1552 5.26922C56.7928 6.39748 59.6825 10.8288 59.9156 17.1569C60.0321 20.0674 59.5893 22.7491 58.6688 24.7277C58.4124 25.2836 57.7366 26.3628 57.1657 27.1477C56.3267 28.3087 55.9538 28.7011 55.1265 29.2407C54.5672 29.6004 53.6001 30.091 52.9825 30.3036C51.9571 30.6797 51.6891 30.7124 50.1044 30.647C48.1585 30.5652 47.2263 30.2709 45.7814 29.3061C43.6024 27.8345 41.8895 24.9566 41.237 21.6209C41.1205 21.0322 41.0273 19.7404 40.9923 18.3996C40.9224 15.5871 41.1088 14.2463 41.9012 11.9407C42.3673 10.5671 42.6353 10.0439 43.3694 8.98104C44.756 7.00249 46.0727 6.03775 48.2983 5.35098C49.5101 4.97489 50.8734 4.94219 52.1552 5.26922Z" fill="#B8B8B8" fill-opacity="0.81"/>
<path d="M70.1641 5.73336V7.64013L71.7519 7.73627C73.5454 7.84843 73.9224 8.00867 74.1737 8.82586C74.3223 9.37065 74.3679 14.2097 74.2994 25.2818L74.2766 29.8003L73.911 30.1208C73.5797 30.3932 73.3284 30.4413 71.969 30.4413H70.3925V32.3641V34.2869H76.6755H82.9585V32.4442V30.6175L82.5929 30.5374C82.3873 30.4893 81.5534 30.4253 80.7309 30.3932C79.9198 30.3612 79.1659 30.281 79.0516 30.2169C78.6404 29.9606 78.6175 29.4478 78.6404 21.0997L78.6746 12.9759L82.5472 17.8149C84.6835 20.4908 88.5104 25.2818 91.0578 28.4704L95.6958 34.2869H97.9691H100.242L100.162 32.8127C100.06 30.6336 99.934 9.11427 100.025 8.58551C100.14 7.94457 100.619 7.73627 102.356 7.64013C103.201 7.59206 103.909 7.51195 103.944 7.46387C103.978 7.43183 104.012 6.61464 104.012 5.65324L104.035 3.92273L97.615 3.87466L91.1835 3.84261V5.68529C91.1835 7.4799 91.1949 7.52797 91.4462 7.54399C91.5833 7.54399 92.4287 7.60809 93.3197 7.67218C95.0218 7.80037 95.2274 7.89651 95.4216 8.61755C95.5245 8.98609 95.7758 22.2854 95.6844 22.4136C95.6273 22.4937 94.9533 21.6605 90.0525 15.4595C87.8935 12.7355 84.9348 9.00211 83.484 7.15943L80.8566 3.84261H75.5103H70.1641V5.73336Z" fill="#B8B8B8" fill-opacity="0.81"/>
<path d="M106.453 5.68529C106.453 7.33569 106.476 7.52797 106.662 7.54399C106.766 7.54399 107.578 7.60809 108.448 7.67218C110.687 7.84843 110.385 7.52797 114.816 14.418C116.313 16.7574 118.099 19.5615 118.784 20.651L120.036 22.654L120.002 26.2271C119.967 29.3677 119.944 29.8164 119.758 30.0727C119.596 30.3131 119.271 30.3612 117.832 30.4413C116.881 30.4893 116.081 30.5534 116.046 30.6015C116.023 30.6496 115.965 31.4988 115.93 32.4762L115.86 34.2869H123.458H131.044V32.3641V30.4413H129.246C127.483 30.4413 127.437 30.4253 127.158 30.0407L126.869 29.6561V26.0829V22.5097L129.258 18.6642C132.123 14.0655 134.675 10.0757 135.499 8.88995C136.195 7.91253 136.624 7.6882 137.784 7.6882C138.201 7.6882 138.944 7.64013 139.431 7.59206L140.324 7.4799V5.66927V3.84261H134.06H127.796V5.66927V7.4799L128.829 7.59206C130.047 7.73627 130.337 7.92855 130.116 8.50539C129.85 9.22644 127.066 13.8251 125.384 16.3568L124.804 17.2221L124.491 16.8215C124.177 16.4209 121.335 11.7902 120.106 9.67509C119.178 8.07276 119.224 7.6882 120.35 7.6882C120.651 7.6882 121.092 7.64013 121.335 7.59206L121.765 7.4799V5.66927V3.84261H114.109H106.453V5.68529Z" fill="#B8B8B8" fill-opacity="0.81"/>
</svg>
