<svg width="14" height="24" viewBox="0 0 14 24" fill="none" xmlns="http://www.w3.org/2000/svg">
<path d="M9.75 19H4.25M9.75 19C11.2688 19 12.5 20.0447 12.5 21.3333V22.5H1.5V21.3333C1.5 20.0447 2.73122 19 4.25 19M9.75 19V13.1667L12.5 12V7.33333L7 6.16667M4.25 19V13.1667L1.5 12V7.33333L7 6.16667M7 6.16667C8.51878 6.16667 9.75 5.122 9.75 3.83333C9.75 2.54467 8.51878 1.5 7 1.5C5.48122 1.5 4.25 2.54467 4.25 3.83333C4.25 5.122 5.48122 6.16667 7 6.16667Z" stroke="white" stroke-width="1.7" stroke-linecap="round" stroke-linejoin="round"/>
</svg>
