<svg width="26" height="27" viewBox="0 0 26 27" fill="none" xmlns="http://www.w3.org/2000/svg">
<path fill-rule="evenodd" clip-rule="evenodd" d="M26 13.5C26 20.6797 20.1797 26.5 13 26.5C5.8203 26.5 0 20.6797 0 13.5C0 6.3203 5.8203 0.5 13 0.5C20.1797 0.5 26 6.3203 26 13.5ZM13.4659 10.0972C12.2014 10.6231 9.67432 11.7116 5.88455 13.3628C5.26915 13.6075 4.94678 13.8469 4.91743 14.081C4.86783 14.4766 5.36327 14.6324 6.03793 14.8445C6.1297 14.8734 6.22478 14.9033 6.32227 14.935C6.98602 15.1508 7.8789 15.4032 8.34306 15.4132C8.76411 15.4223 9.23404 15.2487 9.75286 14.8925C13.2938 12.5023 15.1216 11.2941 15.2363 11.2681C15.3173 11.2497 15.4295 11.2266 15.5055 11.2942C15.5815 11.3617 15.574 11.4897 15.566 11.524C15.5169 11.7332 13.5721 13.5413 12.5657 14.4769C12.252 14.7686 12.0294 14.9755 11.9839 15.0228C11.882 15.1286 11.7781 15.2288 11.6783 15.325C11.0617 15.9194 10.5992 16.3652 11.7039 17.0932C12.2348 17.443 12.6596 17.7323 13.0834 18.0209C13.5462 18.3361 14.0078 18.6505 14.6051 19.042C14.7573 19.1417 14.9026 19.2453 15.0441 19.3462C15.5827 19.7302 16.0666 20.0752 16.6645 20.0202C17.0118 19.9882 17.3707 19.6616 17.5529 18.6874C17.9836 16.3851 18.8301 11.3967 19.0257 9.34105C19.0429 9.16096 19.0213 8.93047 19.004 8.82929C18.9867 8.72811 18.9505 8.58395 18.819 8.47723C18.6632 8.35085 18.4228 8.3242 18.3152 8.32609C17.8263 8.3347 17.0761 8.59555 13.4659 10.0972Z" fill="white"/>
</svg>
