<svg width="295" height="429" viewBox="0 0 295 429" fill="none" xmlns="http://www.w3.org/2000/svg">
<path fill-rule="evenodd" clip-rule="evenodd" d="M294.004 424.005C295 422.048 295 419.486 295 414.362V338.697C295 333.726 290.53 329.879 286.697 326.714C283.797 324.318 281.949 320.694 281.949 316.637C281.949 312.58 283.797 308.956 286.697 306.56C290.53 303.395 295 299.548 295 294.577L295 14.6377C295 9.5145 295 6.95288 294.004 4.99576C293.127 3.27386 291.728 1.87546 290.008 0.996552C288.053 3.05176e-05 285.492 0 280.372 0L14.6277 0C9.50772 0 6.94754 3.05176e-05 4.99173 0.996552C3.27167 1.87546 1.87289 3.27386 0.996521 4.99576C0 6.95288 0 9.5145 0 14.6377L0 294.577C0 299.548 4.47031 303.395 8.30258 306.56C11.2026 308.956 13.051 312.58 13.051 316.637C13.051 320.694 11.2026 324.318 8.30258 326.714C4.47031 329.879 0 333.726 0 338.697V414.362C0 419.486 0 422.048 0.996521 424.005C1.87289 425.726 3.27167 427.126 4.99173 428.003C6.94754 429 9.50772 429 14.6277 429L280.372 429C285.492 429 288.053 429 290.008 428.003C291.728 427.126 293.127 425.726 294.004 424.005ZM256.185 309.245C252.105 309.245 248.797 312.554 248.797 316.637C248.797 320.719 252.105 324.029 256.185 324.029C260.265 324.029 263.572 320.719 263.572 316.637C263.572 312.554 260.265 309.245 256.185 309.245ZM222.851 316.637C222.851 312.554 226.158 309.245 230.238 309.245C234.318 309.245 237.625 312.554 237.625 316.637C237.625 320.719 234.318 324.029 230.238 324.029C226.158 324.029 222.851 320.719 222.851 316.637ZM202.658 309.245C198.579 309.245 195.271 312.554 195.271 316.637C195.271 320.719 198.579 324.029 202.658 324.029C206.739 324.029 210.046 320.719 210.046 316.637C210.046 312.554 206.739 309.245 202.658 309.245ZM167.692 316.637C167.692 312.554 171 309.245 175.079 309.245C179.159 309.245 182.467 312.554 182.467 316.637C182.467 320.719 179.159 324.029 175.079 324.029C171 324.029 167.692 320.719 167.692 316.637ZM147.5 309.245C143.42 309.245 140.113 312.554 140.113 316.637C140.113 320.719 143.42 324.029 147.5 324.029C151.58 324.029 154.887 320.719 154.887 316.637C154.887 312.554 151.58 309.245 147.5 309.245ZM112.533 316.637C112.533 312.554 115.841 309.245 119.921 309.245C124.001 309.245 127.308 312.554 127.308 316.637C127.308 320.719 124.001 324.029 119.921 324.029C115.841 324.029 112.533 320.719 112.533 316.637ZM92.3415 309.245C88.2614 309.245 84.9542 312.554 84.9542 316.637C84.9542 320.719 88.2614 324.029 92.3415 324.029C96.4213 324.029 99.7289 320.719 99.7289 316.637C99.7289 312.554 96.4213 309.245 92.3415 309.245ZM57.375 316.637C57.375 312.554 60.6823 309.245 64.762 309.245C68.8421 309.245 72.1494 312.554 72.1494 316.637C72.1494 320.719 68.8421 324.029 64.762 324.029C60.6823 324.029 57.375 320.719 57.375 316.637ZM37.1829 309.245C33.1028 309.245 29.7955 312.554 29.7955 316.637C29.7955 320.719 33.1028 324.029 37.1829 324.029C41.2626 324.029 44.5702 320.719 44.5702 316.637C44.5702 312.554 41.2626 309.245 37.1829 309.245Z" fill="#150BF3"/>
</svg>
