<svg width="106" height="54" viewBox="0 0 106 54" fill="none" xmlns="http://www.w3.org/2000/svg">
<path d="M6.18669 18.6338L0.576172 1.21625H2.97601L5.65254 9.80112C6.39036 12.1491 7.03019 14.2722 7.48557 16.3147H7.53745C8.02356 14.2953 8.73641 12.0972 9.50305 9.82418L12.4121 1.21625H14.7831L8.63073 18.6338H6.18669ZM15.9648 12.7908C16.0166 15.8689 17.9534 17.1313 20.2034 17.1313C21.8155 17.1313 22.78 16.8489 23.6254 16.4838L24.0097 18.1151C23.2142 18.4744 21.8654 18.8894 19.9017 18.8894C16.0973 18.8894 13.8224 16.357 13.8224 12.5795C13.8224 8.80775 16.0166 5.83533 19.6154 5.83533C23.6485 5.83533 24.7226 9.42644 24.7226 11.7225C24.7226 12.1837 24.6707 12.5487 24.6419 12.787H15.9648V12.7908ZM22.5456 11.1596C22.5744 9.71274 21.9576 7.46276 19.4329 7.46276C17.1599 7.46276 16.1703 9.58592 15.9878 11.1596H22.5456ZM26.4806 10.0202C26.4806 8.55028 26.4537 7.28407 26.3788 6.11585H28.3444L28.4174 8.57526H28.5212C29.0803 6.89595 30.4349 5.83725 31.9413 5.83725C32.1949 5.83725 32.3775 5.86607 32.5754 5.9141V8.0584C32.3245 8.00157 32.0678 7.97449 31.8106 7.9777C30.2293 7.9777 29.1091 9.19203 28.8017 10.8982C28.7498 11.2114 28.698 11.5707 28.698 11.9646V18.6319H26.4826V10.0221L26.4806 10.0202ZM36.4105 2.60543C36.4374 3.37976 35.8725 4.00422 34.981 4.00422C34.1932 4.00422 33.6283 3.38553 33.6283 2.60351C33.6283 1.80613 34.2162 1.18167 35.0328 1.18167C35.8725 1.18167 36.4105 1.80613 36.4105 2.60351V2.60543ZM33.9069 6.12162H36.1588V18.6281H33.9069V6.12162ZM39.0889 18.6338V7.85473H37.352V6.12546H39.0889V5.52982C39.0889 3.77173 39.4732 2.16927 40.5166 1.16245C41.3562 0.336247 42.4822 0 43.5274 0C44.3209 0 45.0069 0.180613 45.4411 0.365068L45.1376 2.12316C44.6867 1.9237 44.197 1.82721 43.7042 1.84071C41.7905 1.84071 41.3101 3.54693 41.3101 5.45489V6.12738H44.2921V7.85665H41.3101V18.6338H39.0889ZM49.0111 2.60543C49.0399 3.37976 48.4731 4.00422 47.5835 4.00422C46.7957 4.00422 46.2289 3.38553 46.2289 2.60351C46.2289 1.80613 46.8169 1.18167 47.6335 1.18167C48.4731 1.18167 49.0111 1.80613 49.0111 2.60351V2.60543ZM46.5094 6.12162H48.7536V18.6281H46.5094V6.12162ZM52.7118 12.7908C52.7656 15.8689 54.7004 17.1313 56.9504 17.1313C58.5625 17.1313 59.527 16.8489 60.3724 16.4838L60.7567 18.1151C59.9612 18.4744 58.6086 18.8894 56.643 18.8894C52.8386 18.8894 50.5655 16.357 50.5655 12.5795C50.5655 8.80775 52.7579 5.83533 56.3567 5.83533C60.3916 5.83533 61.4638 9.42644 61.4638 11.7225C61.4638 12.1837 61.4119 12.5487 61.3831 12.787H52.7118V12.7908ZM59.2926 11.1596C59.3156 9.71274 58.7046 7.46276 56.1799 7.46276C53.9126 7.46276 52.9173 9.58592 52.7348 11.1596H59.2926ZM73.9011 0.278605V15.3943C73.9011 16.5049 73.9222 17.7711 73.9972 18.6281H71.9854L71.8836 16.4569H71.8317C71.14 17.8518 69.6375 18.9105 67.6219 18.9105C64.6341 18.9105 62.3438 16.3551 62.3438 12.5545C62.315 8.39465 64.8685 5.83725 67.8851 5.83725C69.7681 5.83725 71.0497 6.74608 71.6088 7.75289H71.6607V0.278605H73.9011ZM71.6492 11.2114C71.6492 10.929 71.6261 10.5389 71.5454 10.2507C71.2149 8.80583 69.9872 7.61263 68.3078 7.61263C65.9829 7.61263 64.6053 9.67815 64.6053 12.4488C64.6053 14.9851 65.8273 17.0717 68.256 17.0717C69.7585 17.0717 71.1342 16.0649 71.5454 14.3587C71.6194 14.0381 71.6542 13.7097 71.6492 13.3807V11.2114ZM82.2169 18.6338C82.2688 17.7769 82.3188 16.5107 82.3188 15.4001V0.278605H84.5419V8.13333H84.5937C85.3815 6.74031 86.8091 5.83148 88.8016 5.83148C91.8644 5.83148 94.0356 8.4177 94.0125 12.2125C94.0125 16.6836 91.2303 18.9048 88.4711 18.9048C86.6842 18.9048 85.2547 18.2054 84.3363 16.5568H84.2613L84.1614 18.6223H82.2189L82.2169 18.6338ZM84.5361 13.619C84.5361 13.9014 84.588 14.1858 84.6379 14.4452C85.0722 16.0246 86.3691 17.1063 88.0023 17.1063C90.3503 17.1063 91.7568 15.1676 91.7568 12.299C91.7568 9.79536 90.4771 7.64914 88.083 7.64914C86.5517 7.64914 85.124 8.70591 84.6629 10.4429C84.611 10.7023 84.5361 11.0097 84.5361 11.3728V13.619ZM96.4623 6.12162L99.1657 13.5133C99.4443 14.3414 99.7537 15.3252 99.9535 16.0707H100.005C100.24 15.3194 100.49 14.3645 100.799 13.4576L103.249 6.11585H105.626L102.255 15.035C100.651 19.3275 99.5538 21.5256 98.0225 22.8686C96.9273 23.8466 95.8282 24.2328 95.2691 24.3443L94.7042 22.4286C95.4244 22.1889 96.0913 21.8117 96.6679 21.3181C97.2808 20.8262 98.0455 19.9539 98.5605 18.7837C98.6623 18.5531 98.7372 18.3725 98.7372 18.24C98.7372 18.1131 98.6854 17.9287 98.5835 17.6443L94.0125 6.11585H96.4623V6.12162Z" fill="#1A1F71"/>
<path d="M37.8127 27.1662L31.0032 44.6011L28.2499 29.7813C27.9367 28.1269 26.6551 27.1662 25.2332 27.1662H14.1006L13.9526 27.906C16.2372 28.4152 18.8311 29.2202 20.4086 30.081C21.3674 30.6133 21.646 31.0763 21.9553 32.3368L27.1758 52.7806H34.0929L44.6952 27.1662H37.8127ZM47.4947 27.1662L42.0917 52.7806H48.6322L54.0314 27.1662H47.4947ZM62.6201 34.2639C62.6431 33.3436 63.5058 32.3713 65.3965 32.112C66.338 31.9909 68.9165 31.8987 71.8524 33.2571L72.9995 27.831C71.4297 27.2527 69.395 26.6917 66.8818 26.6917C60.4104 26.6917 55.8625 30.179 55.824 35.1651C55.7894 38.8523 59.0789 40.9043 61.5537 42.1379C64.0996 43.3868 64.9623 44.1899 64.945 45.3255C64.9354 47.0432 62.9121 47.7945 61.0387 47.8233C57.7435 47.8752 55.8356 46.928 54.31 46.2093L53.1321 51.8199C54.6577 52.5308 57.4803 53.1514 60.4104 53.1802C67.2756 53.1802 71.7718 49.739 71.7948 44.4167C71.8121 37.6533 62.5586 37.2844 62.6201 34.2639ZM81.5633 43.7115L85.041 34.091L87.0009 43.7115H81.5633ZM84.0476 27.1662C83.4481 27.1626 82.8614 27.34 82.3643 27.6753C81.8672 28.0106 81.4829 28.4881 81.2616 29.0454L71.447 52.7806H78.3257L79.6899 48.957H88.0634L88.8512 52.7806H94.919L89.6409 27.1662H84.0476Z" fill="#1A1F71"/>
</svg>
