<svg width="58" height="54" viewBox="0 0 58 54" fill="none" xmlns="http://www.w3.org/2000/svg">
<path d="M9.95801 18.5704C10.053 15.9963 10.6661 13.4677 11.7606 11.1359C12.8552 8.80409 14.4087 6.71693 16.3282 4.99921C13.163 8.5189 11.4148 13.0869 11.4214 17.8205C11.4214 28.427 20.0159 37.0279 30.6176 37.0279C35.5419 37.0279 40.0319 35.1698 43.431 32.1178C41.6916 34.065 39.5721 35.6357 37.203 36.7331C34.834 37.8305 32.2653 38.4315 29.6553 38.4992C40.0192 38.2249 48.3363 29.7349 48.3363 19.2981C48.3363 8.69007 39.7433 0.0907478 29.14 0.0907478C18.7825 0.0907478 10.3401 8.30006 9.95801 18.5704ZM13.5442 19.2981C13.5442 10.7289 20.4472 3.77209 28.9926 3.69282H29.1416C37.7552 3.69282 44.739 10.6782 44.739 19.2981V19.3235V19.3821V19.4154V19.4345V19.4598L44.7374 19.5137V19.5296V19.5423V19.555V19.5692V19.5819V19.593V19.6073L44.7358 19.6215C44.563 28.0909 37.6474 34.905 29.1416 34.905C20.528 34.905 13.5442 27.9165 13.5442 19.2981Z" fill="url(#paint0_linear_200_4532)"/>
<path d="M28.8953 3.69212H28.9936H28.8969M28.7986 3.69529L28.8937 3.6937H28.7986M26.9373 3.84591L27.015 3.83481C26.9885 3.83806 26.9637 3.84176 26.9373 3.84591ZM13.5469 19.2958C13.5469 27.9173 20.5291 34.9043 29.1427 34.9043C32.2568 34.9038 35.2995 33.9713 37.8791 32.2269C40.4588 30.4824 42.4574 28.0058 43.6176 25.1159C42.724 27.335 41.3333 29.3196 39.5525 30.917C42.124 28.0574 43.5445 24.3464 43.5399 20.5007C43.5399 11.8808 36.5577 4.89387 27.9425 4.89387C24.0986 4.88882 20.3895 6.30955 17.5326 8.8812C14.9665 11.7439 13.5472 15.4529 13.5469 19.2974" fill="url(#paint1_radial_200_4532)"/>
<path d="M44.7457 19.2993C44.7457 10.6794 37.7635 3.69244 29.1499 3.69244C37.7635 3.69244 44.7457 10.6794 44.7457 19.2977V19.2993Z" fill="url(#paint2_radial_200_4532)"/>
<path d="M29.1188 3.69056H29.0126H28.9841C26.8174 3.70913 24.6784 4.18032 22.7045 5.07393C20.7305 5.96753 18.9651 7.26381 17.5215 8.87964C20.3784 6.30799 24.0875 4.88726 27.9314 4.89231C36.5465 4.89231 43.5287 11.8793 43.5287 20.4976C43.5338 24.3431 42.1138 28.054 39.543 30.9138C41.1358 29.4882 42.4179 27.7497 43.3093 25.8068C44.2007 23.8638 44.6823 21.7581 44.7241 19.6209V19.5939L44.7257 19.5812V19.5131L44.7273 19.4592V19.2974C44.7273 10.6791 37.7451 3.69056 29.1315 3.69056H29.1188Z" fill="url(#paint3_radial_200_4532)"/>
<path d="M9.94434 19.0995V19.1153V19.1185V19.1312V19.1359V19.147V19.1534V19.1629V19.1676V19.2992C9.94434 29.9073 18.5373 38.5066 29.139 38.5066H29.3229C31.9896 38.4836 34.6221 37.9035 37.0515 36.8035C39.4809 35.7035 41.6535 34.1079 43.43 32.1189C39.9136 35.2848 35.3482 37.0342 30.6166 37.029C20.0149 37.029 11.4204 28.4297 11.4204 17.8216C11.4204 12.8925 13.2753 8.40104 16.3272 5.00031C14.3413 6.7773 12.7479 8.94903 11.6488 11.3767C10.5498 13.8044 9.96926 16.4347 9.94434 19.0995Z" fill="url(#paint4_linear_200_4532)"/>
<path d="M36.4849 18.5012H29.3188L32.7845 12.4956H39.9506L36.4849 18.5012ZM25.7135 12.4956H18.5981L29.1348 30.7533L32.6925 24.5876L25.7135 12.4956Z" fill="white"/>
<path d="M5.6219 44.612H7.82564L4.95285 52.9006H2.8379L0 44.612H2.20373L3.91757 50.505L5.6219 44.612ZM8.51847 44.612H14.6445V46.2212H10.5843V47.7258H14.3734V49.2985H10.5843V51.2708H15.0076V52.9038H8.51847V44.612ZM18.5399 46.161V48.4044H20.2522C20.5455 48.3933 21.4967 48.3695 21.4967 47.2644C21.4967 46.2086 20.7325 46.1737 20.2997 46.161H18.5399ZM16.463 44.612H20.1935C21.0623 44.6231 22.142 44.6358 22.9046 45.4571C23.2914 45.8915 23.5609 46.5494 23.5609 47.3009C23.5609 48.9672 22.4242 49.3778 21.8598 49.5903L23.7734 52.9006H21.4856L19.8415 49.9422H18.5399V52.9006H16.463V44.612ZM27.2106 52.9006H25.1448V44.612H27.2106V52.9006ZM30.0849 50.4115C30.2958 50.6477 30.4718 50.8332 30.8824 51.0584C31.4341 51.3517 31.9985 51.4563 32.4789 51.4563C33.3002 51.4563 34.0041 51.0695 34.0041 50.494C34.0041 49.836 33.1718 49.7314 32.5614 49.6489C32.1053 49.5967 31.6515 49.5264 31.2011 49.4381C30.6953 49.3318 28.9704 48.9672 28.9704 47.1836C28.9704 45.0464 30.8729 44.4123 32.3029 44.4123C34.2165 44.4123 35.2487 45.3397 35.9637 45.985L34.4385 47.079C34.1974 46.8181 33.921 46.5924 33.6173 46.4083C33.2028 46.1815 32.7404 46.0565 32.2681 46.0437C31.4468 46.0437 31.0362 46.5145 31.0362 46.9125C31.0362 47.5467 31.7401 47.6418 32.0921 47.6893C32.972 47.794 34.1563 48.0159 34.6256 48.1808C35.5768 48.5344 36.0572 49.2748 36.0572 50.2117C36.0572 50.811 35.8353 51.469 35.4009 51.9731C34.6494 52.842 33.454 53.0893 32.2919 53.0893C29.9565 53.0893 29.0291 52.008 28.5122 51.4087L30.0849 50.4115ZM39.7069 52.9006H37.6426V44.612H39.7069V52.9006ZM47.2994 52.1254C46.9586 52.4424 46.2531 53.0893 44.8579 53.0893C42.5464 53.0893 41.1258 51.2106 41.1258 48.769C41.1258 46.1023 42.8508 44.3298 45.2099 44.3298C47.4041 44.3298 48.4727 45.7393 48.8595 46.2434L47.2868 47.1947C46.9935 46.7492 46.5131 46.0215 45.3621 46.0215C43.7893 46.0215 43.19 47.3247 43.19 48.7088C43.19 49.6489 43.45 50.4131 43.8496 50.8221C44.1667 51.163 44.7295 51.4214 45.3621 51.4214C45.7378 51.4214 46.1595 51.3263 46.5004 51.1043C47.0394 50.7524 47.1108 50.3069 47.1694 49.8725H45.3145V48.2981H48.9182V52.9006H47.2994V52.1254ZM50.6193 44.612H52.6487L54.4449 47.664C55.1013 48.8277 55.3011 49.2018 55.6895 49.9311L55.5944 44.612H57.5761V52.9006H55.5468L53.9978 50.2831C53.2479 49.0496 53.1068 48.7928 52.544 47.6878L52.6027 52.9006H50.6209L50.6193 44.612Z" fill="#656263"/>
<defs>
<linearGradient id="paint0_linear_200_4532" x1="5911.27" y1="-790.875" x2="3199.95" y2="1922.93" gradientUnits="userSpaceOnUse">
<stop stop-color="white"/>
<stop offset="1" stop-color="#868484"/>
</linearGradient>
<radialGradient id="paint1_radial_200_4532" cx="0" cy="0" r="1" gradientUnits="userSpaceOnUse" gradientTransform="translate(4206.83 923.125) scale(1559.64 1559.7)">
<stop stop-color="#1560A7"/>
<stop offset="1" stop-color="#0F457B"/>
</radialGradient>
<radialGradient id="paint2_radial_200_4532" cx="0" cy="0" r="1" gradientUnits="userSpaceOnUse" gradientTransform="translate(2652.75 2467.41) scale(1545.04 1545.21)">
<stop stop-color="#1560A7"/>
<stop offset="1" stop-color="#0F457B"/>
</radialGradient>
<radialGradient id="paint3_radial_200_4532" cx="0" cy="0" r="1" gradientUnits="userSpaceOnUse" gradientTransform="translate(3812.16 1317.74) scale(1559.6 1559.62)">
<stop stop-color="#145CA0"/>
<stop offset="1" stop-color="#0E4275"/>
</radialGradient>
<linearGradient id="paint4_linear_200_4532" x1="5915.31" y1="-790.975" x2="3202.3" y2="1923.71" gradientUnits="userSpaceOnUse">
<stop stop-color="#EBEBEB"/>
<stop offset="1" stop-color="#7D7A7B"/>
</linearGradient>
</defs>
</svg>
