<svg width="66" height="21" viewBox="0 0 66 21" fill="none" xmlns="http://www.w3.org/2000/svg">
<path d="M32.7795 0.37093L28.4369 20.6811H23.1843L27.5273 0.37093H32.7795ZM54.8768 13.4855L57.6412 5.85859L59.2321 13.4855H54.8768ZM60.739 20.6811H65.5957L61.3527 0.37093H56.8727C55.8631 0.37093 55.0119 0.956559 54.6352 1.85967L46.7542 20.6811H52.2703L53.3653 17.6479H60.1029L60.739 20.6811ZM47.0277 14.0506C47.0506 8.69035 39.6207 8.39342 39.6705 5.99837C39.6865 5.27067 40.3806 4.49547 41.8975 4.29721C42.6496 4.20037 44.7249 4.12179 47.0775 5.20626L47.9976 0.897631C46.7341 0.440365 45.1081 0 43.0847 0C37.8924 0 34.2398 2.75913 34.2106 6.71328C34.1772 9.63732 36.8198 11.2677 38.8066 12.2416C40.855 13.237 41.5413 13.8751 41.5313 14.7645C41.5171 16.1272 39.8979 16.7307 38.3901 16.7535C35.748 16.7946 34.2165 16.039 32.9959 15.4699L32.0425 19.9224C33.2717 20.4852 35.5366 20.9749 37.8819 21C43.4021 21 47.0113 18.2733 47.0277 14.0506ZM25.2743 0.37093L16.7641 20.6811H11.2128L7.02461 4.47217C6.77072 3.47541 6.54925 3.10905 5.77709 2.68787C4.51405 2.00174 2.42908 1.35992 0.595703 0.960671L0.719908 0.37093H9.65708C10.7955 0.37093 11.8197 1.12878 12.0804 2.44073L14.2928 14.1944L19.7564 0.37093H25.2743Z" fill="#1434CB"/>
</svg>
