<svg width="105" height="35" viewBox="0 0 105 35" fill="none" xmlns="http://www.w3.org/2000/svg">
<path fill-rule="evenodd" clip-rule="evenodd" d="M26.2511 34.2278H17.164L10.3498 7.46659C10.0264 6.23557 9.33965 5.14728 8.32947 4.63436C5.80848 3.34536 3.03051 2.31951 0 1.80213V0.771818H14.6386C16.6589 0.771818 18.1742 2.31951 18.4267 4.11697L21.9623 23.4207L31.045 0.771818H39.8796L26.2511 34.2278ZM44.9291 34.2278H36.3471L43.4139 0.771818H51.9959L44.9291 34.2278ZM63.1007 10.0399C63.3532 8.238 64.8685 7.20769 66.6363 7.20769C69.4142 6.949 72.4403 7.46639 74.9657 8.75093L76.481 1.54769C73.9556 0.517384 71.1776 0 68.6566 0C60.3271 0 54.2661 4.63415 54.2661 11.0658C54.2661 15.9586 58.5593 18.5277 61.5899 20.0754C64.8685 21.6186 66.1312 22.6489 65.8786 24.1922C65.8786 26.507 63.3532 27.5373 60.8322 27.5373C57.8017 27.5373 54.7712 26.7657 51.9977 25.4767L50.4824 32.6844C53.5129 33.9689 56.7915 34.4863 59.8221 34.4863C69.1617 34.7405 74.9657 30.1109 74.9657 23.1619C74.9657 14.4109 63.1007 13.898 63.1007 10.0399ZM104.999 34.2278L98.1852 0.771818H90.8659C89.3506 0.771818 87.8353 1.80213 87.3303 3.34536L74.712 34.2278H83.5465L85.3099 29.3394H96.1648L97.175 34.2278H104.999ZM92.1306 9.78141L94.6516 22.3904H87.5848L92.1306 9.78141Z" fill="#172B85"/>
</svg>
