<svg width="27" height="27" viewBox="0 0 27 27" fill="none" xmlns="http://www.w3.org/2000/svg">
<g clip-path="url(#clip0_200_4316)">
<path fill-rule="evenodd" clip-rule="evenodd" d="M1.89795 1.89795C0 3.7959 0 6.85058 0 12.96V14.04C0 20.1494 0 23.2041 1.89795 25.1021C3.7959 27 6.85058 27 12.96 27H14.04C20.1494 27 23.2041 27 25.1021 25.1021C27 23.2041 27 20.1494 27 14.04V12.96C27 6.85058 27 3.7959 25.1021 1.89795C23.2041 0 20.1494 0 14.04 0H12.96C6.85058 0 3.7959 0 1.89795 1.89795ZM4.55632 8.21256C4.70257 15.2326 8.21256 19.4513 14.3663 19.4513H14.7151V15.4351C16.9764 15.6601 18.6862 17.3138 19.3725 19.4513H22.5676C21.6901 16.2563 19.3837 14.4901 17.9437 13.8151C19.3837 12.9826 21.4087 10.9576 21.8924 8.21256H18.9899C18.3599 10.4401 16.4926 12.4651 14.7151 12.6563V8.21256H11.8125V15.9976C10.0125 15.5476 7.74006 13.3651 7.63881 8.21256H4.55632Z" fill="white"/>
</g>
<defs>
<clipPath id="clip0_200_4316">
<rect width="27" height="27" fill="white"/>
</clipPath>
</defs>
</svg>
