<svg width="133" height="37" viewBox="0 0 133 37" fill="none" xmlns="http://www.w3.org/2000/svg">
<path d="M22.5501 31.559H16.827V4.58576H14.2714C9.5921 4.58576 7.14447 6.81354 7.14447 10.1381C7.14447 13.9082 8.83621 15.6561 12.3277 17.8839L15.2072 19.7347L6.9285 31.559H0.773438L8.22431 21.0028C3.94096 18.0895 1.52932 15.2448 1.52932 10.4465C1.52932 4.44867 5.92066 0.370117 14.2354 0.370117H22.5141V31.559H22.5501Z" fill="#B8B8B8" fill-opacity="0.81"/>
<path d="M126.967 31.925C129.564 31.925 131.404 31.4765 132.775 30.5105V26.129C131.368 27.0605 129.673 27.647 127.291 27.647C123.286 27.647 121.627 24.68 121.627 19.988C121.627 15.0544 123.647 12.5359 127.327 12.5359C129.492 12.5359 131.621 13.2604 132.739 13.9504V9.39641C131.549 8.77541 129.492 8.3269 126.678 8.3269C119.498 8.3269 115.782 13.2604 115.782 20.1605C115.818 27.716 119.462 31.925 126.967 31.925ZM91.861 29.924V25.5425C90.1292 26.681 87.1706 27.6815 84.4646 27.6815C80.3516 27.6815 78.8001 25.8185 78.5476 22.0235H92.1135V19.1945C92.1135 11.2939 88.4695 8.3269 82.8771 8.3269C76.022 8.3269 72.7748 13.3294 72.7748 20.195C72.7748 28.0955 76.8518 31.925 83.9956 31.925C87.5675 31.925 90.2013 30.9935 91.861 29.924ZM40.3752 8.74091V17.7109H32.8706V8.74091H27.2422V31.4765H32.8706V21.989H40.3752V31.4765H46.0036V8.74091H40.3752ZM71.3677 27.1985H68.8782V8.74091H52.498V10.6729C52.498 16.2274 52.1372 23.4035 50.1528 27.1985H48.3488V36.6515H53.5443V31.4765H66.1361V36.6515H71.3316V27.1985H71.3677ZM109.793 31.4765H116.179L107.159 19.229L115.096 8.74091H109.432L101.494 19.229V8.74091H95.8658V31.4765H101.494V20.2985L109.793 31.4765ZM82.7328 12.5359C85.511 12.5359 86.3769 14.7439 86.3769 17.6074V18.0559H78.5476C78.6919 14.4334 80.0629 12.5359 82.7328 12.5359ZM63.2498 27.1985H55.3122C56.8636 23.783 57.2966 17.5729 57.2966 13.6399V12.9499H63.2498V27.1985Z" fill="#B8B8B8" fill-opacity="0.81"/>
</svg>
