<svg width="22" height="22" viewBox="0 0 22 22" fill="none" xmlns="http://www.w3.org/2000/svg">
<path d="M12.0415 11.2693L14.0103 13.2381C14.1707 13.3985 14.2509 13.5992 14.2509 13.8401C14.2509 14.0804 14.1707 14.2881 14.0103 14.4631C13.8353 14.6381 13.6276 14.7256 13.3873 14.7256C13.1463 14.7256 12.9384 14.6381 12.7634 14.4631L10.904 12.6037C10.6998 12.3995 10.5467 12.1735 10.4446 11.9256C10.3425 11.6777 10.2915 11.4079 10.2915 11.1162V8.49121C10.2915 8.24329 10.3755 8.03534 10.5435 7.86734C10.7109 7.69992 10.9186 7.61621 11.1665 7.61621C11.4144 7.61621 11.6224 7.69992 11.7904 7.86734C11.9578 8.03534 12.0415 8.24329 12.0415 8.49121V11.2693ZM11.1665 4.11621C11.4144 4.11621 11.6224 4.19992 11.7904 4.36734C11.9578 4.53534 12.0415 4.74329 12.0415 4.99121C12.0415 5.23913 11.9578 5.44709 11.7904 5.61509C11.6224 5.7825 11.4144 5.86621 11.1665 5.86621C10.9186 5.86621 10.7109 5.7825 10.5435 5.61509C10.3755 5.44709 10.2915 5.23913 10.2915 4.99121C10.2915 4.74329 10.3755 4.53534 10.5435 4.36734C10.7109 4.19992 10.9186 4.11621 11.1665 4.11621ZM18.1665 11.1162C18.1665 11.3641 18.0825 11.5718 17.9145 11.7392C17.7471 11.9072 17.5394 11.9912 17.2915 11.9912C17.0436 11.9912 16.8359 11.9072 16.6685 11.7392C16.5005 11.5718 16.4165 11.3641 16.4165 11.1162C16.4165 10.8683 16.5005 10.6603 16.6685 10.4923C16.8359 10.3249 17.0436 10.2412 17.2915 10.2412C17.5394 10.2412 17.7471 10.3249 17.9145 10.4923C18.0825 10.6603 18.1665 10.8683 18.1665 11.1162ZM11.1665 16.3662C11.4144 16.3662 11.6224 16.4502 11.7904 16.6182C11.9578 16.7856 12.0415 16.9933 12.0415 17.2412C12.0415 17.4891 11.9578 17.6968 11.7904 17.8642C11.6224 18.0322 11.4144 18.1162 11.1665 18.1162C10.9186 18.1162 10.7109 18.0322 10.5435 17.8642C10.3755 17.6968 10.2915 17.4891 10.2915 17.2412C10.2915 16.9933 10.3755 16.7856 10.5435 16.6182C10.7109 16.4502 10.9186 16.3662 11.1665 16.3662ZM5.9165 11.1162C5.9165 11.3641 5.8328 11.5718 5.66538 11.7392C5.49738 11.9072 5.28942 11.9912 5.0415 11.9912C4.79359 11.9912 4.58563 11.9072 4.41763 11.7392C4.25021 11.5718 4.1665 11.3641 4.1665 11.1162C4.1665 10.8683 4.25021 10.6603 4.41763 10.4923C4.58563 10.3249 4.79359 10.2412 5.0415 10.2412C5.28942 10.2412 5.49738 10.3249 5.66538 10.4923C5.8328 10.6603 5.9165 10.8683 5.9165 11.1162ZM11.1665 19.8662C9.95609 19.8662 8.81859 19.6364 7.754 19.1767C6.68942 18.7176 5.76338 18.0943 4.97588 17.3068C4.18838 16.5193 3.56509 15.5933 3.106 14.5287C2.64634 13.4641 2.4165 12.3266 2.4165 11.1162C2.4165 9.90579 2.64634 8.76829 3.106 7.70371C3.56509 6.63913 4.18838 5.71309 4.97588 4.92559C5.76338 4.13809 6.68942 3.5145 7.754 3.05484C8.81859 2.59575 9.95609 2.36621 11.1665 2.36621C12.3769 2.36621 13.5144 2.59575 14.579 3.05484C15.6436 3.5145 16.5696 4.13809 17.3571 4.92559C18.1446 5.71309 18.7679 6.63913 19.227 7.70371C19.6867 8.76829 19.9165 9.90579 19.9165 11.1162C19.9165 12.3266 19.6867 13.4641 19.227 14.5287C18.7679 15.5933 18.1446 16.5193 17.3571 17.3068C16.5696 18.0943 15.6436 18.7176 14.579 19.1767C13.5144 19.6364 12.3769 19.8662 11.1665 19.8662ZM11.1665 18.1162C13.1207 18.1162 14.7759 17.4381 16.1321 16.0818C17.4884 14.7256 18.1665 13.0704 18.1665 11.1162C18.1665 9.16204 17.4884 7.50684 16.1321 6.15059C14.7759 4.79434 13.1207 4.11621 11.1665 4.11621C9.21234 4.11621 7.55713 4.79434 6.20088 6.15059C4.84463 7.50684 4.1665 9.16204 4.1665 11.1162C4.1665 13.0704 4.84463 14.7256 6.20088 16.0818C7.55713 17.4381 9.21234 18.1162 11.1665 18.1162Z" fill="#181818"/>
</svg>
