<svg width="90" height="90" viewBox="0 0 90 90" fill="none" xmlns="http://www.w3.org/2000/svg">
<g id="ic:twotone-discord">
<path id="Vector" d="M72.2624 19.9874C67.2749 17.6624 61.8749 15.9749 56.2499 14.9999C56.2006 14.9984 56.1516 15.0076 56.1062 15.027C56.0609 15.0465 56.0203 15.0756 55.9874 15.1124C55.3125 16.3499 54.5249 17.9624 53.9999 19.1999C48.0337 18.2999 41.9662 18.2999 36 19.1999C35.475 17.9249 34.6875 16.3499 33.975 15.1124C33.9375 15.0374 33.8249 14.9999 33.7124 14.9999C28.0875 15.9749 22.725 17.6624 17.7 19.9874C17.6624 19.9874 17.625 20.0249 17.5875 20.0624C7.38745 35.3249 4.57495 50.1749 5.96245 64.8749C5.96245 64.9499 5.99995 65.0249 6.07495 65.0624C12.825 70.0124 19.3125 73.0124 25.725 74.9999C25.8375 75.0374 25.9499 74.9999 25.9874 74.9249C27.4874 72.8624 28.8375 70.6874 30 68.3999C30.0749 68.2499 30 68.0999 29.85 68.0624C27.7125 67.2374 25.6875 66.2624 23.7 65.1374C23.55 65.0624 23.5499 64.8374 23.6625 64.7249C24.0749 64.4249 24.4874 64.0874 24.9 63.7874C24.975 63.7124 25.0875 63.7124 25.1625 63.7499C38.0625 69.6374 51.9749 69.6374 64.7249 63.7499C64.7999 63.7124 64.9124 63.7124 64.9874 63.7874C65.3999 64.1249 65.8124 64.4249 66.2249 64.7624C66.3749 64.8749 66.3749 65.0999 66.1874 65.1749C64.2374 66.3374 62.1749 67.2749 60.0374 68.0999C59.8874 68.1374 59.8499 68.3249 59.8874 68.4374C61.0874 70.7249 62.4375 72.8999 63.9 74.9624C64.0125 74.9999 64.1249 75.0374 64.2374 74.9999C70.6874 73.0124 77.1749 70.0124 83.9249 65.0624C83.9999 65.0249 84.0374 64.9499 84.0374 64.8749C85.6874 47.8874 81.2999 33.1499 72.4124 20.0624C72.3749 20.0249 72.3374 19.9874 72.2624 19.9874ZM31.95 55.9124C28.0875 55.9124 24.8625 52.3499 24.8625 47.9624C24.8625 43.5749 28.0125 40.0124 31.95 40.0124C35.925 40.0124 39.0749 43.6124 39.0374 47.9624C39.0374 52.3499 35.8875 55.9124 31.95 55.9124ZM58.0874 55.9124C54.2249 55.9124 51 52.3499 51 47.9624C51 43.5749 54.1499 40.0124 58.0874 40.0124C62.0624 40.0124 65.2124 43.6124 65.1749 47.9624C65.1749 52.3499 62.0624 55.9124 58.0874 55.9124Z" fill="#FF9900"/>
</g>
</svg>
