<svg width="28" height="29" viewBox="0 0 28 29" fill="none" xmlns="http://www.w3.org/2000/svg">
<g clip-path="url(#clip0_2546_9815)">
<path d="M24.7188 14.2109H23.1875C23.0672 14.2109 22.9688 14.3094 22.9688 14.4297V23.1797H5.03125V5.24219H13.7812C13.9016 5.24219 14 5.14375 14 5.02344V3.49219C14 3.37187 13.9016 3.27344 13.7812 3.27344H3.9375C3.45352 3.27344 3.0625 3.66445 3.0625 4.14844V24.2734C3.0625 24.7574 3.45352 25.1484 3.9375 25.1484H24.0625C24.5465 25.1484 24.9375 24.7574 24.9375 24.2734V14.4297C24.9375 14.3094 24.8391 14.2109 24.7188 14.2109Z" fill="#181818"/>
<path d="M9.73164 14.8371L9.67969 18.0883C9.67695 18.3316 9.87383 18.5312 10.1172 18.5312H10.1281L13.3547 18.452C13.4094 18.4492 13.4641 18.4273 13.5023 18.3891L24.8746 7.04141C24.9594 6.95664 24.9594 6.81719 24.8746 6.73242L21.4758 3.33633C21.432 3.29258 21.3773 3.27344 21.3199 3.27344C21.2625 3.27344 21.2078 3.29531 21.1641 3.33633L9.79453 14.684C9.75503 14.7253 9.73258 14.78 9.73164 14.8371ZM11.468 15.4824L21.3199 5.65234L22.5559 6.88555L12.6984 16.7211L11.4488 16.7512L11.468 15.4824Z" fill="#181818"/>
</g>
<defs>
<clipPath id="clip0_2546_9815">
<rect width="28" height="28" fill="white" transform="translate(0 0.210938)"/>
</clipPath>
</defs>
</svg>
