<svg width="22" height="22" viewBox="0 0 22 22" fill="none" xmlns="http://www.w3.org/2000/svg">
<path d="M4.1665 18.1162C3.68525 18.1162 3.27342 17.945 2.931 17.6026C2.588 17.2596 2.4165 16.8475 2.4165 16.3662V5.86621C2.4165 5.38496 2.588 4.97313 2.931 4.63071C3.27342 4.28771 3.68525 4.11621 4.1665 4.11621H18.1665C18.6478 4.11621 19.0599 4.28771 19.4029 4.63071C19.7453 4.97313 19.9165 5.38496 19.9165 5.86621V16.3662C19.9165 16.8475 19.7453 17.2596 19.4029 17.6026C19.0599 17.945 18.6478 18.1162 18.1665 18.1162H4.1665ZM11.1665 11.8381C11.2394 11.8381 11.3158 11.827 11.3958 11.8048C11.4763 11.7833 11.553 11.7506 11.6259 11.7068L17.8165 7.83496C17.9332 7.76204 18.0207 7.67104 18.079 7.56196C18.1373 7.45229 18.1665 7.33184 18.1665 7.20059C18.1665 6.90892 18.0425 6.69017 17.7946 6.54434C17.5467 6.3985 17.2915 6.40579 17.029 6.56621L11.1665 10.2412L5.304 6.56621C5.0415 6.40579 4.7863 6.402 4.53838 6.55484C4.29046 6.70825 4.1665 6.9235 4.1665 7.20059C4.1665 7.34642 4.19567 7.47388 4.254 7.58296C4.31234 7.69263 4.39984 7.77663 4.5165 7.83496L10.7071 11.7068C10.78 11.7506 10.8568 11.7833 10.9373 11.8048C11.0172 11.827 11.0936 11.8381 11.1665 11.8381Z" fill="#181818"/>
</svg>
