<svg width="30" height="30" viewBox="0 0 30 30" fill="none" xmlns="http://www.w3.org/2000/svg">
<g clip-path="url(#clip0_2546_9842)">
<path d="M14.6789 29.042C14.6789 29.042 25.6881 18.7212 25.6881 10.8908C25.6881 8.00235 24.5282 5.23225 22.4636 3.18983C20.399 1.14742 17.5987 0 14.6789 0C11.7591 0 8.95887 1.14742 6.89425 3.18983C4.82963 5.23225 3.66974 8.00235 3.66974 10.8908C3.66974 18.7212 14.6789 29.042 14.6789 29.042ZM14.6789 16.3361C13.219 16.3361 11.8189 15.7624 10.7866 14.7412C9.75427 13.72 9.17433 12.335 9.17433 10.8908C9.17433 9.44656 9.75427 8.06151 10.7866 7.0403C11.8189 6.01909 13.219 5.44538 14.6789 5.44538C16.1388 5.44538 17.5389 6.01909 18.5712 7.0403C19.6036 8.06151 20.1835 9.44656 20.1835 10.8908C20.1835 12.335 19.6036 13.72 18.5712 14.7412C17.5389 15.7624 16.1388 16.3361 14.6789 16.3361Z" fill="#181818"/>
</g>
<defs>
<clipPath id="clip0_2546_9842">
<rect width="29.3578" height="29.042" fill="white"/>
</clipPath>
</defs>
</svg>
