<svg width="84" height="84" viewBox="0 0 84 84" fill="none" xmlns="http://www.w3.org/2000/svg">
<path d="M42 7C22.68 7 7 22.68 7 42C7 61.32 22.68 77 42 77C61.32 77 77 61.32 77 42C77 22.68 61.32 7 42 7ZM58.24 30.8C57.715 36.33 55.44 49.77 54.285 55.965C53.795 58.59 52.815 59.465 51.905 59.57C49.875 59.745 48.335 58.24 46.375 56.945C43.295 54.915 41.545 53.655 38.57 51.695C35.105 49.42 37.345 48.16 39.34 46.13C39.865 45.605 48.825 37.45 49 36.715C49.0243 36.6037 49.0211 36.4881 48.9906 36.3783C48.9601 36.2685 48.9033 36.1678 48.825 36.085C48.615 35.91 48.335 35.98 48.09 36.015C47.775 36.085 42.875 39.34 33.32 45.78C31.92 46.725 30.66 47.215 29.54 47.18C28.28 47.145 25.9 46.48 24.115 45.885C21.91 45.185 20.195 44.8 20.335 43.575C20.405 42.945 21.28 42.315 22.925 41.65C33.145 37.205 39.935 34.265 43.33 32.865C53.06 28.805 55.055 28.105 56.385 28.105C56.665 28.105 57.33 28.175 57.75 28.525C58.1 28.805 58.205 29.19 58.24 29.47C58.205 29.68 58.275 30.31 58.24 30.8Z" fill="#FF9900"/>
</svg>
