<svg width="82" height="82" viewBox="0 0 82 82" fill="none" xmlns="http://www.w3.org/2000/svg">
<g id="uil:vk">
<path id="Vector" d="M51.4994 6.83325H30.5347C11.3877 6.83325 6.83331 11.3877 6.83331 30.5005V51.4652C6.83331 70.6087 11.3536 75.1666 30.5006 75.1666H51.4652C70.6088 75.1666 75.1666 70.6463 75.1666 51.4993V30.5347C75.1666 11.3877 70.6464 6.83325 51.4994 6.83325ZM61.9988 55.5891H57.0139C55.1279 55.5891 54.5607 54.0618 51.1782 50.6793C48.2262 47.8333 46.9791 47.4779 46.2309 47.4779C45.1991 47.4779 44.9155 47.7615 44.9155 49.1862V53.6689C44.9155 54.8818 44.5226 55.5925 41.3553 55.5925C38.2815 55.3859 35.3007 54.4521 32.6585 52.8678C30.0163 51.2836 27.7883 49.0943 26.158 46.4803C22.2875 41.6627 19.5944 36.0086 18.2928 29.9675C18.2928 29.2192 18.5764 28.5428 20.0011 28.5428H24.9826C26.2639 28.5428 26.7251 29.1133 27.2274 30.4288C29.6464 37.5491 33.7737 43.7401 35.4479 43.7401C36.0902 43.7401 36.3704 43.4565 36.3704 41.8541V34.5219C36.1586 31.177 34.3819 30.8934 34.3819 29.6839C34.4047 29.3649 34.5509 29.0673 34.7895 28.8543C35.028 28.6412 35.3402 28.5295 35.6597 28.5428H43.4907C44.5601 28.5428 44.9155 29.0758 44.9155 30.357V40.2517C44.9155 41.3211 45.3767 41.6764 45.6979 41.6764C46.3402 41.6764 46.8356 41.3211 48.011 40.1458C50.5354 37.0672 52.598 33.6373 54.1336 29.9641C54.2906 29.5229 54.5876 29.1451 54.9794 28.8885C55.3711 28.6319 55.836 28.5104 56.3032 28.5428H61.2881C62.7812 28.5428 63.099 29.291 62.7812 30.357C60.9687 34.4175 58.7259 38.2719 56.0914 41.8541C55.555 42.6741 55.3397 43.1012 56.0914 44.0612C56.5868 44.8095 58.3327 46.2684 59.5081 47.6556C61.2161 49.3593 62.6344 51.3304 63.7071 53.4912C64.1342 54.8784 63.4201 55.5891 61.9988 55.5891Z" fill="#FF9900"/>
</g>
</svg>
