<svg width="90" height="90" viewBox="0 0 90 90" fill="none" xmlns="http://www.w3.org/2000/svg">
<path fill-rule="evenodd" clip-rule="evenodd" d="M26.2088 18.3374C38.7171 17.3589 51.2829 17.3589 63.7913 18.3374L72.1913 18.9974C74.4663 19.1748 76.6166 20.1086 78.2993 21.65C79.9821 23.1913 81.1005 25.2516 81.4763 27.5024C83.415 39.0899 83.415 50.9137 81.4763 62.4974C81.1006 64.7477 79.9828 66.8075 78.3008 68.3488C76.6188 69.8901 74.4694 70.8243 72.195 71.0024L63.795 71.6587C51.2854 72.6376 38.7184 72.6376 26.2088 71.6587L17.8088 71.0024C15.5337 70.8251 13.3834 69.8913 11.7007 68.3499C10.018 66.8085 8.89956 64.7483 8.52376 62.4974C6.58827 50.9127 6.58827 39.0872 8.52376 27.5024C8.8994 25.2522 10.0172 23.1924 11.6992 21.6511C13.3812 20.1097 15.5306 19.1756 17.805 18.9974L26.205 18.3412L26.2088 18.3374ZM37.5 54.2624V35.7374C37.5003 35.5386 37.5533 35.3435 37.6536 35.1718C37.7538 35.0001 37.8978 34.8581 38.0708 34.7601C38.2438 34.6622 38.4397 34.6119 38.6385 34.6142C38.8373 34.6166 39.0319 34.6716 39.2025 34.7737L54.6413 44.0362C54.8074 44.1363 54.9449 44.2776 55.0403 44.4464C55.1358 44.6153 55.1859 44.806 55.1859 44.9999C55.1859 45.1939 55.1358 45.3846 55.0403 45.5534C54.9449 45.7223 54.8074 45.8636 54.6413 45.9637L39.2025 55.2262C39.0319 55.3282 38.8373 55.3833 38.6385 55.3856C38.4397 55.388 38.2438 55.3377 38.0708 55.2397C37.8978 55.1418 37.7538 54.9998 37.6536 54.8281C37.5533 54.6564 37.5003 54.4613 37.5 54.2624Z" fill="#FF9900"/>
</svg>
