<svg width="56" height="44" viewBox="0 0 56 44" fill="none" xmlns="http://www.w3.org/2000/svg">
<path d="M7.41979 43.4702H48.58C53.2634 43.4702 55.6501 41.1285 55.6501 36.4901V12.9153C55.6501 8.27693 53.2634 5.95773 48.58 5.95773H42.1402C40.3614 5.95773 39.821 5.59746 38.8078 4.47164L37.0065 2.44515C35.8806 1.20674 34.7323 0.53125 32.4131 0.53125H23.429C21.1098 0.53125 19.9615 1.20674 18.8357 2.44515L17.0343 4.47164C16.0211 5.57495 15.4582 5.95773 13.7019 5.95773H7.41979C2.71384 5.95773 0.349609 8.27693 0.349609 12.9153V36.4901C0.349609 41.1285 2.71384 43.4702 7.41979 43.4702ZM7.46482 39.8451C5.25821 39.8451 3.97477 38.6517 3.97477 36.31V13.118C3.97477 10.7763 5.25821 9.58288 7.46482 9.58288H14.6026C16.629 9.58288 17.7323 9.2001 18.8582 7.93918L20.6145 5.95773C21.8979 4.51667 22.5734 4.15641 24.5548 4.15641H31.2873C33.2687 4.15641 33.9442 4.51667 35.2277 5.95773L36.984 7.93918C38.1098 9.2001 39.2131 9.58288 41.2396 9.58288H48.5124C50.7415 9.58288 52.025 10.7763 52.025 13.118V36.31C52.025 38.6517 50.7415 39.8451 48.5124 39.8451H7.46482ZM27.9999 36.6027C34.7999 36.6027 40.2714 31.1537 40.2714 24.2862C40.2714 17.4411 34.8224 11.9921 27.9999 11.9921C21.1774 11.9921 15.7059 17.4411 15.7059 24.2862C15.7059 31.1537 21.1774 36.6027 27.9999 36.6027ZM41.1945 16.0001C41.1945 17.5762 42.5005 18.8146 44.0316 18.8146C45.5402 18.7921 46.8237 17.5537 46.8237 16.0001C46.8237 14.514 45.5402 13.208 44.0316 13.208C42.5005 13.208 41.1945 14.514 41.1945 16.0001ZM27.9999 33.1802C23.1138 33.1802 19.1059 29.2398 19.1059 24.2862C19.1059 19.355 23.0913 15.3921 27.9999 15.3921C32.9085 15.3921 36.8714 19.355 36.8714 24.2862C36.8714 29.2398 32.9085 33.1802 27.9999 33.1802Z" fill="white" fill-opacity="0.7"/>
</svg>
