<svg width="26" height="26" viewBox="0 0 26 26" fill="none" xmlns="http://www.w3.org/2000/svg">
<path d="M2.0625 21.0959H3.48047C3.80859 21.0959 3.94922 21.0373 4.20703 20.8264L4.99219 20.2287L5.01562 20.2522C5.44922 20.6858 6.03516 20.7678 6.63281 20.51L10.5234 18.9045C10.8164 18.7873 10.957 18.6819 11.1328 18.5061L22.3477 7.37326C23.4492 6.28341 23.4375 5.00607 22.3242 3.88107L19.8633 1.39669C18.7383 0.283413 17.4609 0.259976 16.3594 1.34982L5.13281 12.4826C4.95703 12.6467 4.85156 12.7756 4.73438 13.0686L3.09375 16.9592C2.84766 17.5334 2.90625 18.1076 3.33984 18.5529L1.72266 20.2639C1.37109 20.6272 1.54688 21.0959 2.0625 21.0959ZM17.543 2.66232C17.8828 2.34591 18.2812 2.32248 18.5977 2.63888L21.0703 5.13498C21.3867 5.4631 21.3633 5.86154 21.0352 6.18966L20.1562 7.05685L16.6641 3.54123L17.543 2.66232ZM6.94922 13.1858L15.5625 4.63107L19.0547 8.14669L10.4414 16.7014L6.94922 13.1858ZM6.45703 18.6936C6.22266 18.7756 6.04688 18.7756 5.83594 18.5647L5.03906 17.7678C4.82812 17.5569 4.82812 17.3694 4.92188 17.1584L6.05859 14.4983L9.11719 17.5803L6.45703 18.6936ZM1.82812 25.2795H24.2227C24.7383 25.2795 25.1719 24.8459 25.1719 24.3303C25.1719 23.8147 24.7383 23.3928 24.2227 23.3928H1.82812C1.3125 23.3928 0.890625 23.8147 0.890625 24.3303C0.890625 24.8459 1.3125 25.2795 1.82812 25.2795Z" fill="white" fill-opacity="0.6"/>
</svg>
