<svg width="30" height="24" viewBox="0 0 30 24" fill="none" xmlns="http://www.w3.org/2000/svg">
<path d="M1.5 0.832031H9C9.39782 0.832031 9.77936 0.983207 10.0607 1.2523C10.342 1.5214 10.5 1.88637 10.5 2.26693V22.3555C10.5 22.736 10.342 23.101 10.0607 23.3701C9.77936 23.6392 9.39782 23.7904 9 23.7904H1.5C1.10218 23.7904 0.720644 23.6392 0.43934 23.3701C0.158035 23.101 0 22.736 0 22.3555V2.26693C0 1.88637 0.158035 1.5214 0.43934 1.2523C0.720644 0.983207 1.10218 0.832031 1.5 0.832031ZM1.5 16.6159V19.4857H4.5V16.6159H1.5ZM15 5.13672H27C27.7956 5.13672 28.5587 5.43907 29.1213 5.97726C29.6839 6.51545 30 7.2454 30 8.00651V16.6159C30 17.377 29.6839 18.1069 29.1213 18.6451C28.5587 19.1833 27.7956 19.4857 27 19.4857H15C14.2044 19.4857 13.4413 19.1833 12.8787 18.6451C12.3161 18.1069 12 17.377 12 16.6159V8.00651C12 7.2454 12.3161 6.51545 12.8787 5.97726C13.4413 5.43907 14.2044 5.13672 15 5.13672ZM18 20.9206H24C24.3978 20.9206 24.7794 21.0718 25.0607 21.3408C25.342 21.6099 25.5 21.9749 25.5 22.3555C25.5 22.736 25.342 23.101 25.0607 23.3701C24.7794 23.6392 24.3978 23.7904 24 23.7904H18C17.6022 23.7904 17.2206 23.6392 16.9393 23.3701C16.658 23.101 16.5 22.736 16.5 22.3555C16.5 21.9749 16.658 21.6099 16.9393 21.3408C17.2206 21.0718 17.6022 20.9206 18 20.9206Z" fill="#FF9900"/>
</svg>
