<svg width="32" height="30" viewBox="0 0 32 30" fill="none" xmlns="http://www.w3.org/2000/svg">
<g clip-path="url(#clip0_3134_12492)">
<path d="M15.9995 6.09C19.7135 6.09 23.0515 7.29188 25.2995 9.45375C27.1492 9.67927 28.8942 10.3874 30.3355 11.4975C27.8135 6.52875 22.5895 3.75 15.9995 3.75C9.4995 3.75 4.2395 6.525 1.6875 11.4788C3.00897 10.4676 4.58534 9.79161 6.2655 9.51562C8.4715 7.26 11.9475 6.09 15.9995 6.09Z" fill="#FF9900"/>
<path d="M24.0002 26.25C21.9192 26.2523 19.9196 25.4919 18.4282 24.1312L18.4242 24.1275C18.2519 24.0061 18.0669 23.9012 17.8722 23.8144C17.2861 23.5593 16.6464 23.4305 16.0002 23.4375C15.1722 23.4375 14.5422 23.6306 14.1302 23.8144C13.9348 23.9011 13.7492 24.006 13.5762 24.1275L13.5722 24.1312C12.6319 24.9871 11.4816 25.6133 10.2226 25.9547C8.96358 26.2961 7.63439 26.3423 6.35188 26.0892C5.06937 25.8361 3.87282 25.2914 2.86746 24.5032C1.8621 23.7149 1.07871 22.7072 0.586169 21.5685C0.093632 20.4299 -0.0929641 19.1953 0.0427875 17.9732C0.178539 16.7511 0.63248 15.579 1.3647 14.5599C2.09691 13.5408 3.08498 12.706 4.24201 12.1289C5.39905 11.5517 6.68961 11.2499 8.00023 11.25H24.0002C26.122 11.25 28.1568 12.0402 29.6571 13.4467C31.1574 14.8532 32.0002 16.7609 32.0002 18.75C32.0002 20.7391 31.1574 22.6468 29.6571 24.0533C28.1568 25.4598 26.122 26.25 24.0002 26.25Z" fill="#FF9900"/>
</g>
<defs>
<clipPath id="clip0_3134_12492">
<rect width="32" height="30" fill="white"/>
</clipPath>
</defs>
</svg>
