<svg width="270" height="368" viewBox="0 0 270 368" fill="none" xmlns="http://www.w3.org/2000/svg">
<path fill-rule="evenodd" clip-rule="evenodd" d="M212.756 51.178C201.69 25.583 179.388 7.21305 152.454 1.50809C143.811 -0.322964 125.634 -0.303921 117.112 1.54508C75.192 10.6391 46.613 50.0851 51.027 92.755C56.638 146.983 111.206 181.848 162.692 164.102C174.046 160.188 183.862 154.108 193.145 145.24C210.424 128.731 219.12 108.623 219.195 85C219.238 71.4551 217.441 62.0141 212.756 51.178ZM261.911 260.156C250.858 236.319 231.429 220.012 205.5 212.81C197.692 210.641 196.081 210.583 138.5 210.387C106.05 210.277 76.8 210.589 73.5 211.08C42.009 215.772 15 237.903 4.92401 267.271C-1.93399 287.259 -1.46402 303.426 6.33301 315.746C12.951 326.202 43.499 346.13 67.001 355.322C110.006 372.141 163.325 371.749 205.5 354.302C229.125 344.529 255.825 326.742 263.333 315.776C272.411 302.515 271.878 281.652 261.911 260.156Z" fill="white"/>
</svg>
