<svg width="29" height="28" viewBox="0 0 29 28" fill="none" xmlns="http://www.w3.org/2000/svg">
<path d="M10.3573 0C6.68915 0 3.70703 2.98212 3.70703 6.65027C3.70703 10.2484 6.52114 13.1605 10.1893 13.2865C10.3013 13.2725 10.4133 13.2725 10.4973 13.2865H10.5673H10.5953C14.1795 13.1605 16.9936 10.2484 17.0076 6.65027C17.0076 2.98212 14.0254 0 10.3573 0Z" fill="#FF9900"/>
<path d="M17.4706 17.0097C13.5644 14.4056 7.19422 14.4056 3.26006 17.0097C1.48199 18.1998 0.501953 19.8098 0.501953 21.5319C0.501953 23.254 1.48199 24.85 3.24606 26.0261C5.20614 27.3421 7.78225 28.0002 10.3584 28.0002C12.9344 28.0002 15.5105 27.3421 17.4706 26.0261C19.2347 24.836 20.2147 23.24 20.2147 21.5039C20.2007 19.7818 19.2347 18.1858 17.4706 17.0097Z" fill="#FF9900"/>
<path d="M25.7421 7.47398C25.9661 10.1901 24.034 12.5701 21.3599 12.8921C21.3459 12.8921 21.3459 12.8921 21.3319 12.8921H21.2899C21.2059 12.8921 21.1219 12.8921 21.0519 12.9201C19.6939 12.9901 18.4478 12.5561 17.5098 11.7581C18.9518 10.4701 19.7779 8.53802 19.6099 6.43794C19.5118 5.30389 19.1198 4.26785 18.5318 3.38582C19.0638 3.11981 19.6799 2.9518 20.3099 2.8958C23.054 2.65779 25.5041 4.70187 25.7421 7.47398Z" fill="#FF9900"/>
<path d="M28.5422 20.428C28.4302 21.786 27.5622 22.9621 26.1061 23.7601C24.7061 24.5301 22.942 24.8941 21.192 24.8521C22.2 23.9421 22.788 22.8081 22.9 21.604C23.04 19.8679 22.214 18.2019 20.5619 16.8718C19.6239 16.1298 18.5318 15.5418 17.3418 15.1077C20.4359 14.2117 24.3281 14.8137 26.7222 16.7458C28.0102 17.7819 28.6683 19.0839 28.5422 20.428Z" fill="#FF9900"/>
</svg>
