<svg width="18" height="22" viewBox="0 0 18 22" fill="none" xmlns="http://www.w3.org/2000/svg">
<path fill-rule="evenodd" clip-rule="evenodd" d="M4.85799 0.934752H13.142C14.1153 0.886389 15.0691 1.20349 15.7929 1.81607C16.5167 2.42866 16.951 3.28636 17 4.19989V19.8148C17.0013 20.1275 16.8621 20.4263 16.6166 20.6377C16.3711 20.8491 16.0419 20.9536 15.7101 20.9254C15.4192 20.9254 15.1364 20.8357 14.9053 20.67L9.78106 17.0161C9.29717 16.6756 8.63182 16.6756 8.14793 17.0161L3.07101 20.67C2.84636 20.8311 2.57267 20.9206 2.28995 20.9254C1.95808 20.9536 1.62894 20.8491 1.3834 20.6377C1.13785 20.4263 0.998657 20.1275 1.00001 19.8148V4.19989C1.04895 3.28636 1.48325 2.42866 2.20706 1.81607C2.93087 1.20349 3.88468 0.886389 4.85799 0.934752ZM10.8817 15.6945L15.2012 18.8042L15.1775 4.19989C15.0655 3.23164 14.1528 2.52281 13.1183 2.60064H4.83433C3.79982 2.52281 2.88715 3.23164 2.77516 4.19989V18.8042L7.09468 15.6945C8.21317 14.8948 9.76317 14.8948 10.8817 15.6945Z" fill="white" stroke="white"/>
</svg>
