<svg width="40" height="40" viewBox="0 0 40 40" fill="none" xmlns="http://www.w3.org/2000/svg">
<path fill-rule="evenodd" clip-rule="evenodd" d="M19.9998 36.667C21.8332 36.667 23.3332 35.167 23.3332 33.3337H16.6665C16.6665 35.167 18.1665 36.667 19.9998 36.667ZM29.9998 26.667V18.3337C29.9998 13.217 27.2832 8.93366 22.4998 7.80033V6.66699C22.4998 5.28366 21.3832 4.16699 19.9998 4.16699C18.6165 4.16699 17.4998 5.28366 17.4998 6.66699V7.80033C12.7332 8.93366 9.99984 13.2003 9.99984 18.3337V26.667L6.6665 30.0003V31.667H33.3332V30.0003L29.9998 26.667ZM26.6665 28.3337H13.3332V18.3337C13.3332 14.2003 15.8498 10.8337 19.9998 10.8337C24.1498 10.8337 26.6665 14.2003 26.6665 18.3337V28.3337Z" fill="white" fill-opacity="0.8"/>
</svg>
