<svg width="28" height="29" viewBox="0 0 28 29" fill="none" xmlns="http://www.w3.org/2000/svg">
<path d="M5.83333 9.96094H22.1667V7.6276H5.83333V9.96094ZM5.83333 26.2943C5.19167 26.2943 4.64256 26.066 4.186 25.6094C3.72944 25.1529 3.50078 24.6034 3.5 23.9609V7.6276C3.5 6.98594 3.72867 6.43683 4.186 5.98027C4.64333 5.52372 5.19244 5.29505 5.83333 5.29427H7V2.96094H9.33333V5.29427H18.6667V2.96094H21V5.29427H22.1667C22.8083 5.29427 23.3578 5.52294 23.8152 5.98027C24.2725 6.4376 24.5008 6.98672 24.5 7.6276V14.2484C24.1306 14.0734 23.7514 13.9276 23.3625 13.8109C22.9736 13.6943 22.575 13.6068 22.1667 13.5484V12.2943H5.83333V23.9609H13.1833C13.3194 24.3887 13.4801 24.797 13.6652 25.1859C13.8503 25.5748 14.0688 25.9443 14.3208 26.2943H5.83333ZM21 27.4609C19.3861 27.4609 18.0106 26.892 16.8735 25.7541C15.7364 24.6162 15.1674 23.2407 15.1667 21.6276C15.1667 20.0137 15.7356 18.6382 16.8735 17.5011C18.0114 16.364 19.3869 15.795 21 15.7943C22.6139 15.7943 23.9898 16.3632 25.1277 17.5011C26.2656 18.639 26.8341 20.0145 26.8333 21.6276C26.8333 23.2415 26.2644 24.6174 25.1265 25.7553C23.9886 26.8932 22.6131 27.4617 21 27.4609ZM22.9542 24.3984L23.7708 23.5818L21.5833 21.3943V18.1276H20.4167V21.8609L22.9542 24.3984Z" fill="white"/>
</svg>
