<svg width="36" height="37" viewBox="0 0 36 37" fill="none" xmlns="http://www.w3.org/2000/svg">
<path fill-rule="evenodd" clip-rule="evenodd" d="M7.90724 15.1289C7.90724 12.3441 9.01349 9.67342 10.9826 7.70428C12.9518 5.73515 15.6225 4.62891 18.4072 4.62891C21.192 4.62891 23.8627 5.73515 25.8319 7.70428C27.801 9.67342 28.9072 12.3441 28.9072 15.1289V20.7749L31.6402 26.2409C31.7661 26.4925 31.8255 26.772 31.8128 27.053C31.8002 27.334 31.7159 27.6072 31.568 27.8464C31.4201 28.0857 31.2135 28.2832 30.9678 28.4201C30.7222 28.5571 30.4455 28.6289 30.1642 28.6289H24.2182C23.8846 29.9163 23.1329 31.0564 22.0811 31.8703C21.0294 32.6842 19.7371 33.1258 18.4072 33.1258C17.0773 33.1258 15.7851 32.6842 14.7334 31.8703C13.6816 31.0564 12.9299 29.9163 12.5962 28.6289H6.65024C6.36896 28.6289 6.09234 28.5571 5.84664 28.4201C5.60095 28.2832 5.39435 28.0857 5.24646 27.8464C5.09857 27.6072 5.01431 27.334 5.00167 27.053C4.98903 26.772 5.04843 26.4925 5.17424 26.2409L7.90724 20.7749V15.1289ZM15.8092 28.6289C16.0726 29.0849 16.4513 29.4636 16.9073 29.7269C17.3634 29.9902 17.8807 30.1288 18.4072 30.1288C18.9338 30.1288 19.4511 29.9902 19.9072 29.7269C20.3632 29.4636 20.7419 29.0849 21.0052 28.6289H15.8092ZM18.4072 7.62891C16.4181 7.62891 14.5105 8.41908 13.1039 9.82561C11.6974 11.2321 10.9072 13.1398 10.9072 15.1289V20.7749C10.9072 21.2404 10.7989 21.6995 10.5907 22.1159L8.83574 25.6289H27.9802L26.2252 22.1159C26.0167 21.6996 25.9078 21.2405 25.9072 20.7749V15.1289C25.9072 13.1398 25.1171 11.2321 23.7105 9.82561C22.304 8.41908 20.3964 7.62891 18.4072 7.62891Z" fill="#FF9900"/>
<circle cx="25" cy="8.62891" r="6" fill="white"/>
</svg>
