<svg width="28" height="29" viewBox="0 0 28 29" fill="none" xmlns="http://www.w3.org/2000/svg">
<path d="M18.6665 7.63021H22.1665C22.4759 7.63021 22.7727 7.75312 22.9915 7.97192C23.2103 8.19071 23.3332 8.48746 23.3332 8.79687V21.6302C23.3332 22.249 23.0873 22.8425 22.6498 23.2801C22.2122 23.7177 21.6187 23.9635 20.9998 23.9635M20.9998 23.9635C20.381 23.9635 19.7875 23.7177 19.3499 23.2801C18.9123 22.8425 18.6665 22.249 18.6665 21.6302V6.46354C18.6665 6.15412 18.5436 5.85738 18.3248 5.63858C18.106 5.41979 17.8093 5.29688 17.4998 5.29688H5.83317C5.52375 5.29688 5.22701 5.41979 5.00821 5.63858C4.78942 5.85738 4.6665 6.15412 4.6665 6.46354V20.4635C4.6665 21.3918 5.03525 22.282 5.69163 22.9384C6.34801 23.5948 7.23825 23.9635 8.1665 23.9635H20.9998ZM9.33317 9.96354H13.9998M9.33317 14.6302H13.9998M9.33317 19.2969H13.9998" stroke="white" stroke-width="2.33333" stroke-linecap="round" stroke-linejoin="round"/>
</svg>
