<svg width="40" height="40" viewBox="0 0 40 40" fill="none" xmlns="http://www.w3.org/2000/svg">
<g clip-path="url(#clip0_7756_18190)">
<path d="M9.55877 16.3196C9.30887 16.0824 9.10997 15.793 8.97609 15.4736C8.79249 15.4163 8.60123 15.3876 8.40998 15.3876C8.1486 15.4124 8.04405 15.4358 7.83622 15.5258C7.84769 15.6757 7.91527 15.8855 8.0619 16.2375C7.61182 16.2088 7.15791 15.4606 7.11328 15.2351C7.36319 15.1074 7.62712 15.0148 7.90124 14.9588C8.68156 14.8011 9.33055 14.9927 9.65823 15.1178C9.49885 15.4958 9.46442 15.9181 9.55877 16.3196Z" fill="#FF9900"/>
<path d="M11.0523 15.1543C11.0281 15.0461 11.0026 14.9366 10.9784 14.8285C10.7782 15.1504 10.5423 15.4046 9.99023 15.6496C11.4017 15.6953 11.8938 15.1973 12.1896 14.5964C11.8008 14.8454 11.5266 14.9927 11.0523 15.1543Z" fill="#FF9900"/>
<path d="M15.2678 15.0878C14.6392 15.1243 13.6702 14.8115 13.4355 15.0109C13.7938 13.5784 16.0532 14.569 16.53 13.1834C16.391 13.8612 16.53 14.1897 15.3659 14.7137C15.3659 14.7137 15.6809 14.9262 15.7931 14.9249L15.2678 15.0878Z" fill="#FF9900"/>
<path d="M8.31445 13.6241C8.61026 13.8614 9.28985 13.6867 9.39695 13.6176C9.15724 14.083 8.56436 14.2433 8.31445 13.6241Z" fill="#FF9900"/>
<path d="M13.9566 12.5344C13.94 12.3858 13.8214 12.2698 13.6748 12.262C13.5346 12.391 13.3433 12.5344 13.1992 12.4171C13.2528 12.2424 13.7131 11.9609 14.056 11.7706C14.1032 11.8788 14.1236 11.9961 14.1172 12.1134C14.1058 12.2672 14.0509 12.4145 13.9566 12.5344Z" fill="#FF9900"/>
<path d="M21.5633 7.1405C19.6112 7.22914 18.1692 8.08683 17.3047 9.81264C17.6642 9.46983 18.0378 9.16221 18.4535 8.96017C18.1755 9.36164 17.9231 9.9065 17.8568 10.3771C17.9549 10.8385 18.3528 11.2126 18.4433 11.2752C18.6957 9.70315 19.3549 8.43095 21.5633 7.1405Z" fill="#FF9900"/>
<path d="M15.6679 7.85484C15.1273 8.19244 14.5714 8.66821 14.0078 9.6367C14.6313 7.47943 16.4788 5.27524 19.2571 4.65479C17.3573 5.81358 16.4928 7.542 16.6063 8.71644C16.4329 9.0006 15.7049 9.34602 15.1643 9.61454C15.2548 8.90675 15.4409 8.31106 15.6679 7.85484Z" fill="#FF9900"/>
<path d="M7.30788 22.167C6.66909 21.4227 6.28658 19.4336 6.63211 17.8447C6.73794 18.7662 7.0006 19.7712 7.95431 20.6315C9.20128 20.4542 9.36576 20.7462 9.32114 20.7462C8.14812 21.2298 7.95814 21.6104 7.30788 22.167Z" fill="#FF9900"/>
<path d="M10.4527 38.4815C12.2606 36.1548 13.347 33.3288 13.5739 30.366C13.5739 30.366 11.8424 31.6786 10.4004 32.8752C11.3414 31.2159 12.3371 29.0625 12.9708 26.5038C13.4706 24.4834 13.6275 22.6846 13.6287 21.1921C13.8748 21.6392 14.1961 22.2583 14.5251 23.0117C14.8196 23.6843 15.4495 25.1273 15.7287 26.612C16.1852 29.0338 15.6114 31.0673 15.3921 31.822C14.2561 35.7259 11.3936 37.8428 10.4527 38.4815Z" fill="#FF9900"/>
<path d="M17.9727 22.4382L16.5957 22.433C16.6391 21.5766 16.8252 20.7346 17.1452 19.9421C17.858 20.5495 18.1767 21.5128 17.9727 22.4382Z" fill="#FF9900"/>
<path d="M21.2891 25.4361C21.3643 25.0138 21.4459 23.6399 21.4408 23.4562L21.7863 22.3195C21.8628 23.3988 21.6818 24.4338 21.2891 25.4361Z" fill="#FF9900"/>
<path d="M18.6976 25.8924L16.9355 25.3475C17.0375 24.7531 17.0554 24.3073 17.0401 23.7807L17.3856 24.2148L18.3164 22.9634C18.8532 23.8381 18.9909 24.9069 18.6976 25.8924Z" fill="#FF9900"/>
<path d="M19.7069 29.7637C18.766 29.6829 17.8543 29.3948 17.0332 28.9191C17.1951 28.485 17.2512 28.12 17.2589 27.6404C17.2589 27.6404 17.8416 28.0705 17.9729 28.0392C18.0545 27.888 18.1488 27.7303 18.2559 27.5713C18.5862 27.0812 18.9865 26.6471 19.4455 26.2808C19.8434 27.3953 19.9352 28.5997 19.7069 29.7637Z" fill="#FF9900"/>
<path d="M36.198 23.1709C36.0795 23.0875 35.8436 21.7631 35.8436 21.7631C35.739 22.7434 35.4955 23.7027 35.1194 24.61C34.0445 27.1935 32.1728 28.6468 31.2433 29.2686C30.8531 27.3616 31.0087 25.379 31.6908 23.5606C31.6628 24.2007 31.8795 24.8276 32.2952 25.3073C33.7372 22.3797 34.5367 19.1653 34.6374 15.8896C35.09 16.3498 35.9112 17.3104 36.3447 18.7873C36.949 20.8416 36.4122 22.5752 36.198 23.1709Z" fill="#FF9900"/>
<path d="M27.7589 7.02555C27.4516 8.1309 27.5791 8.57409 27.5 9.12155C27.5 9.12155 27.0461 8.76439 26.8574 7.34751L27.1507 7.80764C27.3113 6.85609 27.1137 6.22651 27.4095 5.83807C29.614 6.35686 31.6566 9.05116 29.6293 15.0628C29.5911 14.2038 30.9732 8.77613 27.7589 7.02555Z" fill="#FF9900"/>
<path d="M27.0022 3.05149C25.921 4.09949 25.8113 4.84769 25.5155 6.24242C25.2605 5.26742 25.2567 4.26504 25.6162 2.89117C26.6324 2.67479 26.9142 2.93418 27.0022 3.05149Z" fill="#FF9900"/>
<path d="M19.162 19.2968C15.7488 20.0971 15.2694 17.6609 14.5095 18.2084C14.1601 18.456 14.8818 18.911 14.8818 18.911C14.7696 19.057 12.7334 19.332 12.8316 17.9777C12.9425 17.4028 13.4168 17.1069 14.1946 17.0444C16.3532 17.1109 16.283 19.2042 19.162 19.2968Z" fill="#FF9900"/>
<path d="M14.7583 15.3408C12.3536 15.6524 12.6341 18.8707 9.95912 18.1159C9.8992 18.1694 9.80867 18.4079 9.85074 18.7807C9.74747 18.7221 9.32799 18.5643 9.17116 17.8057C8.98373 18.2971 8.8932 18.8576 9.45676 19.3751C9.27698 19.3986 8.53365 19.2408 8.30414 18.4848C8.30414 18.4848 8.18047 18.6504 8.04531 18.7612C7.91526 18.5422 7.83111 18.1238 7.92164 17.8748C8.04149 17.91 8.31562 17.8292 8.31562 17.8292C7.28922 17.4342 7.32365 16.7538 7.29688 16.2937C8.26334 16.8125 8.7555 16.8854 8.7555 16.8854C8.7555 16.8854 8.63182 16.6573 8.50432 16.394C9.63527 16.862 10.6782 17.0653 12.0004 16.0212C13.6809 14.7451 14.7749 12.9763 14.8845 12.6244C14.8845 12.6244 14.4867 12.7391 14.2088 12.7273C14.3783 12.3167 14.4714 12.1968 14.5467 11.6559C14.5467 11.6559 14.7226 11.94 14.7494 12.086C14.7825 11.9452 14.8807 11.6259 14.8845 11.2987C14.4791 11.2674 14.1297 11.3717 13.3303 11.9322C13.3558 11.7667 13.4017 11.6037 13.4654 11.4486C12.6775 12.0821 12.9082 12.6296 11.5503 12.6804C11.2584 12.6987 9.74237 12.6687 9.11761 11.9257C10.0917 11.5855 12.4518 10.7682 12.9592 9.11017C13.0664 9.67979 12.9541 10.4228 12.6214 11.1371C12.9707 10.7799 13.4667 10.3772 13.6019 9.7202C14.0188 10.1582 14.1259 10.3485 15.1459 10.5727C15.1536 10.5622 14.9432 10.3537 14.831 10.1699C15.225 10.1178 15.828 10.106 16.2386 9.89356C16.2157 10.3941 16.4579 10.9468 16.6555 11.1371C16.6555 11.1371 16.4528 10.2103 16.7907 9.60549C16.8302 10.2911 17.038 10.9363 17.5009 11.2062L17.585 10.7917C17.8043 11.3104 18.2442 11.6676 18.2442 11.6676C17.1745 11.6911 16.143 12.1173 15.8892 13.0662C19.5677 12.5879 20.1313 11.2753 20.4181 9.4217C20.5699 10.5101 20.7229 12.3285 19.2923 13.0728C19.6251 13.1014 19.9311 12.9698 20.4296 12.8082C19.2349 14.4727 18.4469 12.9698 17.7036 14.3059C18.2901 14.6226 18.4469 14.7777 18.4469 14.7777C18.4469 14.7777 17.6475 14.7725 17.3096 15.0423C17.2816 15.3252 17.8107 15.9235 18.4699 16.4475C16.1213 16.4866 16.3011 15.7319 14.7583 15.3408Z" fill="#FF9900"/>
<path d="M23.0423 10.8112C22.3028 10.8464 22.0045 10.8503 21.4868 10.4905C21.3466 10.3837 21.2841 10.123 21.2139 9.83359C21.1604 9.52597 21.2611 9.2757 21.1553 9.07887C21.0303 8.85858 20.8569 8.66958 20.6504 8.5275C20.8263 8.48188 21.3453 8.37369 21.6717 8.66567C21.8617 8.83512 22.0096 9.07496 22.0363 9.51424C22.0924 10.4306 22.2544 10.2963 23.0423 10.8112Z" fill="#FF9900"/>
<path d="M6.54197 33.6392C7.27256 35.3298 8.2148 36.5564 8.76434 37.2068C7.76217 36.559 6.8314 35.8017 5.99116 34.9466C5.3409 34.2844 4.01743 32.8258 3.09304 30.941C2.87373 30.4952 2.68248 30.0364 2.51928 29.5658C1.70071 27.2195 1.68796 24.9541 1.83332 23.3834C1.88177 22.8607 1.94807 22.4149 2.00672 22.0682C1.1397 22.7786 0.466491 23.7054 0.053384 24.7586C-0.269197 21.7931 0.95865 19.0637 2.81126 16.1321C3.60177 14.8821 3.79812 14.1221 4.0289 13.3844C4.57334 11.6573 4.59629 10.1192 4.52871 9.08679C4.59884 9.43743 4.66897 9.78807 4.73909 10.1387C5.30903 12.9855 4.34766 13.9631 4.28901 17.1567C4.24438 19.5394 4.67152 21.2652 4.90612 22.0773C5.06167 22.6117 5.21723 23.0471 5.33198 23.343C5.4225 22.6 5.52578 21.9561 5.91084 21.4099C5.91084 21.4099 5.98989 23.094 7.04433 24.3688C7.49824 23.4903 8.93647 22.5453 9.36487 22.2989C8.07328 24.3493 6.96911 26.8976 7.45616 30.4248C6.12887 28.8645 5.97204 27.1909 5.84964 25.8183C5.59463 26.8624 5.47861 27.9378 5.50538 29.0144C5.54746 30.662 5.92359 32.118 6.42212 33.3472C6.46037 33.4489 6.50117 33.5454 6.54197 33.6392Z" fill="#FF9900"/>
<path d="M17.974 22.4382C18.0365 21.3407 17.4754 20.457 17.1465 19.9421C18.1181 20.0633 18.6166 20.7424 18.8678 21.2899C18.8678 21.2899 18.3527 22.2101 17.974 22.4382Z" fill="#FF9900"/>
<path d="M19.5424 23.5097C19.5386 23.5684 19.5398 23.6257 19.5462 23.6844C19.5704 23.8408 19.9364 24.2775 19.9478 24.4769C19.9721 24.7259 19.012 25.8039 18.6983 25.8925C18.6945 24.941 18.8819 24.606 18.3184 22.9649C19.3078 22.2571 20.2934 20.9914 20.8493 19.2643C20.9373 20.9419 20.4336 22.3223 19.5424 23.5097Z" fill="#FF9900"/>
<path d="M21.0206 28.4471C20.6062 28.9098 20.1676 29.3491 19.706 29.7636C19.8335 28.5592 19.7851 27.3913 19.4434 26.282C19.8565 25.9496 20.2275 25.5677 20.5488 25.1428C21.3559 24.0752 21.6593 22.9842 21.7868 22.3207C21.7703 22.803 21.7524 23.2853 21.7358 23.7676C21.5624 24.916 21.1226 26.0057 20.4506 26.9429C20.6636 27.2792 20.9237 27.7862 21.0206 28.4471Z" fill="#FF9900"/>
<path d="M39.7599 18.3844C39.1887 17.0705 37.9506 14.7229 35.4809 12.7508C34.2849 11.7979 32.9487 11.0471 31.5207 10.527C32.1633 13.1874 31.3256 16.2506 28.9949 20.4022H28.9961C29.5227 20.0737 30.1054 19.8508 30.7136 19.7453C28.6366 21.7513 28.1929 23.8995 28.2617 27.5883C27.8486 27.1295 27.2519 25.6957 27.2519 25.6957C27.1257 26.2483 27.0709 26.814 27.0913 27.3811C27.1576 29.1916 27.9659 29.9202 28.1419 31.4962C28.263 32.5767 28.0118 33.3862 27.6867 34.4329C26.9829 36.6997 25.6454 38.2247 24.7656 39.059C26.1031 36.0597 26.4193 32.6901 25.6645 29.4849C25.3394 28.3769 24.8383 26.3578 25.2297 23.8825C25.5243 22.0211 26.1771 20.2536 26.9497 18.8419C27.0466 18.7064 27.1384 20.3149 27.2659 20.3162C27.6548 19.3803 29.0918 15.3173 27.8741 11.5177C27.2825 10.2898 26.608 8.37497 26.8273 6.09518C26.8618 5.7302 26.9191 5.36914 26.9956 5.01068C27.7275 5.68719 28.8916 6.57225 30.4969 7.02065C31.7221 7.36216 32.1939 7.16795 33.2101 7.43125C35.4031 8.00087 36.7355 9.82705 37.526 10.9207C39.6477 13.86 39.779 17.0809 39.7599 18.3844Z" fill="#FF9900"/>
<path d="M25.7085 5.33783C25.6447 5.63893 25.581 5.94004 25.5172 6.24244C25.377 5.53726 25.2036 4.16339 25.6639 2.55489C25.9303 1.62811 26.3664 0.761295 26.9478 6.10352e-05C27.5624 2.31505 28.3389 4.20901 31.1911 5.55942C30.1354 5.52944 27.7587 5.21791 27.023 3.0098C26.4123 3.66806 25.8921 4.42799 25.7085 5.33783Z" fill="#FF9900"/>
<path d="M25.3819 18.6022C24.8107 19.8991 23.9131 20.6526 23.449 20.9915C23.9628 19.3321 23.982 17.5529 23.5051 15.8818C23.4018 16.1777 23.3508 16.5896 23.0652 17.1201C22.7886 15.3956 22.1332 14.1821 21.1387 13.0089C21.7864 12.992 22.4341 13.0207 23.078 13.0937L21.7775 11.9283C22.2913 12.0522 23.1494 12.3298 24.0062 13.005C24.5162 13.4065 25.4737 14.1625 25.8078 15.5051C26.1482 16.8646 25.6459 18.0026 25.3819 18.6022Z" fill="#FF9900"/>
<path d="M12.9717 19.1612C12.4707 19.6278 11.9033 19.431 11.7834 19.302C11.7031 19.2159 11.6916 19.1143 11.5718 18.9409C11.5029 18.8405 11.3792 18.7337 11.1191 18.6229C12.4681 18.327 12.0461 19.2394 12.9717 19.1612Z" fill="#FF9900"/>
<path d="M20.3163 18.7205C19.9733 18.1131 19.5105 17.8159 19.1509 17.8054C19.1025 17.9384 19.0285 18.2525 18.8857 18.5015C18.4153 18.4559 18.21 18.3633 17.8887 18.1157C18.0889 17.7403 18.9967 16.6897 19.2466 16.5385C19.8535 17.1133 20.3316 17.7663 20.3163 18.7205Z" fill="#FF9900"/>
<path d="M3.25522 6.52008C3.18127 6.95023 3.13154 7.38559 3.10859 7.82095C3.04229 9.04753 3.18509 10.2454 3.13282 10.2493H3.13154C2.42518 9.35906 0.517744 6.44969 1.15908 2.12994C4.09928 4.74473 7.20141 7.33997 11.321 8.78683C9.99244 8.78423 8.66896 8.61217 7.38246 8.27326C5.93276 7.89004 4.54299 7.29956 3.25522 6.52008Z" fill="#FF9900"/>
<path d="M16.7105 17.314C15.7211 16.412 15.09 16.193 13.6913 16.7001C13.8532 15.9662 14.6603 15.6521 15.2685 15.6403C14.3033 15.4487 14.1044 15.609 13.4363 15.9167C11.7277 16.3194 11.7953 18.1143 9.95163 17.3296C9.90828 17.3766 9.74635 17.4808 9.57678 17.5447C9.49773 17.3909 9.41102 17.0859 9.32177 16.9607C9.21085 17.0129 8.97624 17.2462 8.66131 17.4065C8.47388 17.4769 7.64002 17.3362 7.48192 16.5762C7.85422 16.7313 8.43946 16.8382 8.78881 16.8956C8.64219 16.6792 8.56951 16.6192 8.57461 16.412C9.96056 17.0311 10.9117 16.8721 11.9878 16.0314C11.6869 16.1383 11.0915 16.2295 10.7485 16.1578C12.2887 15.4787 13.0805 14.3903 13.3394 13.7503C12.2467 14.9573 11.0902 13.6812 10.0052 14.0722C10.2704 14.1152 10.7319 14.1152 10.9143 14.4255C10.8059 14.5532 10.6401 14.5936 10.5241 14.6562C9.61503 14.8517 8.58226 13.8233 6.88903 14.5949C6.5537 14.3277 6.56772 14.157 6.5741 14.1192C7.33656 14.084 7.46916 13.5965 7.46024 13.5665C7.27664 13.7737 6.67228 13.878 6.45425 13.6277C6.41217 13.5782 6.45425 13.1363 6.45425 13.1363C6.72455 12.6215 9.48497 13.0868 9.61248 13.2667C9.64563 13.2849 9.15857 13.0894 9.16239 12.9669C9.17387 12.8483 9.19682 12.6984 9.3205 12.5524C9.51175 12.5458 10.1352 12.5836 10.4132 12.5758C10.3839 12.4794 10.2819 12.3621 10.301 12.1848C10.774 12.1574 11.3593 11.8016 11.9904 11.6556C11.9598 11.855 11.752 12.0727 11.8463 12.2122C11.9419 12.1978 12.1255 12.2122 12.5769 12.1366C12.378 12.3959 12.0133 12.5876 11.5492 12.6853C11.7379 12.8457 12.2339 12.8756 12.5425 12.8874C12.5081 13.0633 12.4048 13.195 12.3959 13.3253C13.0155 12.654 13.6007 13.1598 14.5481 12.9564C15.081 12.2304 15.3424 11.4822 15.934 11.4822C15.7683 11.7207 15.5656 12.7531 15.7084 13.3371C17.0548 11.1029 19.6291 13.7685 20.3647 9.39142C20.403 9.54393 20.4336 10.0536 20.4616 10.1592L20.3265 10.1474C20.0001 13.3201 17.014 12.6736 16.5613 13.3436C16.5256 13.3214 16.5779 13.1272 16.5346 13.1846C15.9277 14.7318 13.9565 13.4726 13.4401 15.012C13.8328 14.8413 14.4805 15.1254 15.2723 15.0889C16.1023 14.8126 16.3 14.8178 16.8648 14.6132C16.6404 15.0968 16.5358 15.0955 16.249 15.4122C16.6175 15.7198 17.0102 15.9962 17.4207 16.2412C17.1734 16.2608 16.9311 16.2699 16.6391 16.18C16.708 16.4693 16.7743 16.9008 16.7105 17.314Z" fill="#FF9900"/>
<path d="M18.5656 7.5903C18.5299 7.5903 17.4385 7.52643 17.455 7.6998C17.2396 7.65939 17.1694 7.34655 17.3938 7.12366C17.9982 7.20187 18.3565 7.36871 18.5656 7.5903Z" fill="#FF9900"/>
<path d="M40.0014 20.5626C39.9492 22.4057 39.6049 25.9186 37.5891 29.6869C35.1933 34.1657 31.7712 36.5094 30.1914 37.4544C30.4273 36.2369 30.7397 34.9126 31.1566 33.5088C31.5327 32.2392 31.9446 31.0725 32.3628 30.0154C32.2926 30.6502 32.3462 31.2928 32.5234 31.9055C32.6369 32.2952 32.7988 32.668 33.0054 33.0147C34.2804 31.6943 35.4254 30.2487 36.4224 28.6989C38.3834 25.6514 39.4238 22.7342 40.0014 20.5626Z" fill="#FF9900"/>
<path d="M19.5256 34.5047C18.605 34.2948 17.7393 33.8829 16.9883 33.299C17.0151 33.1517 17.0406 33.0018 17.0661 32.8519C17.1247 32.5038 17.1783 32.1623 17.2267 31.8247C17.3925 32.1675 17.6819 32.4308 18.0338 32.5586C18.1358 32.4191 18.2493 32.277 18.3755 32.1336C18.7669 31.6944 19.2221 31.319 19.7245 31.0192C19.9744 32.1767 19.9043 33.3837 19.5256 34.5047Z" fill="#FF9900"/>
<path d="M21.0019 33.3812C20.5301 33.7827 20.0367 34.1581 19.5254 34.5048C19.811 33.3291 19.9168 32.1651 19.7243 31.018C19.9869 30.9281 20.242 30.8134 20.4829 30.6726C20.9815 30.3806 21.4175 29.9896 21.7669 29.5216C21.8727 30.2542 21.9275 31.4625 21.3678 32.706C21.262 32.9406 21.1396 33.1661 21.0019 33.3812Z" fill="#FF9900"/>
<path d="M18.2335 39.9857C17.1306 39.9375 16.0545 39.6194 15.0957 39.0576C16.0137 38.1374 16.5594 36.8978 16.6232 35.5851C16.8705 35.7989 17.1408 35.9853 17.4277 36.1404C18.1609 36.5367 18.8532 36.6423 19.302 36.6696C19.251 37.8532 18.8812 39.0016 18.2335 39.9857Z" fill="#FF9900"/>
<path d="M19.5776 39.9204C19.1339 39.996 18.6825 40.0182 18.2324 39.9856C18.8036 38.9246 19.1989 37.8271 19.3009 36.6683C20.1488 36.5809 20.9584 36.2668 21.6495 35.7584C21.7885 36.2681 21.916 37.0554 21.7081 37.947C21.5934 38.4397 21.4531 39.0354 20.9444 39.4473C20.5708 39.751 20.1615 39.8201 19.5776 39.9204Z" fill="#FF9900"/>
</g>
<defs>
<clipPath id="clip0_7756_18190">
<rect width="40" height="40" fill="white"/>
</clipPath>
</defs>
</svg>
