<svg width="24" height="24" viewBox="0 0 24 24" fill="none" xmlns="http://www.w3.org/2000/svg">
<path d="M14.6247 22.9666C14.1775 23.4139 13.6233 23.6375 12.9622 23.6375C12.3011 23.6375 11.7469 23.4139 11.2997 22.9666L1.03301 12.7C0.819126 12.4861 0.648793 12.2333 0.522015 11.9416C0.395237 11.65 0.332237 11.3389 0.333015 11.0083V2.66665C0.333015 2.02498 0.561682 1.47587 1.01901 1.01931C1.47635 0.562757 2.02546 0.334091 2.66635 0.333313H11.008C11.3386 0.333313 11.6497 0.396702 11.9413 0.52348C12.233 0.650258 12.4858 0.820202 12.6997 1.03331L22.9663 11.3291C23.4136 11.7764 23.6372 12.3259 23.6372 12.9776C23.6372 13.6294 23.4136 14.1785 22.9663 14.625L14.6247 22.9666ZM12.9622 21.3333L21.3038 12.9916L11.008 2.66665H2.66635V11.0083L12.9622 21.3333ZM5.58301 7.33331C6.06913 7.33331 6.48251 7.16337 6.82318 6.82348C7.16385 6.48359 7.33379 6.0702 7.33301 5.58331C7.33301 5.0972 7.16307 4.6842 6.82318 4.34431C6.48329 4.00442 6.0699 3.83409 5.58301 3.83331C5.0969 3.83331 4.6839 4.00365 4.34402 4.34431C4.00413 4.68498 3.83379 5.09798 3.83301 5.58331C3.83301 6.06942 4.00335 6.48281 4.34402 6.82348C4.68468 7.16415 5.09768 7.33409 5.58301 7.33331Z" fill="white"/>
</svg>
