<svg width="28" height="29" viewBox="0 0 28 29" fill="none" xmlns="http://www.w3.org/2000/svg">
<path fill-rule="evenodd" clip-rule="evenodd" d="M14.0002 2.08622C11.8675 2.08622 10.1047 2.27405 8.74783 2.50272L8.5915 2.52955C7.41316 2.72672 6.43316 2.89122 5.66666 3.83389C5.17666 4.43939 5.01683 5.09389 4.98066 5.82305L4.40666 6.01439C3.8665 6.19405 3.39166 6.35272 3.01716 6.52772C2.61116 6.71672 2.239 6.95939 1.95433 7.35489C1.66966 7.74922 1.5565 8.17972 1.50516 8.62422C1.4585 9.03605 1.4585 9.53422 1.4585 10.1047V10.2739C1.4585 10.7429 1.4585 11.1571 1.4935 11.5036C1.53083 11.8781 1.61366 12.2432 1.82016 12.5956C2.029 12.9491 2.30666 13.1987 2.617 13.4134C2.90283 13.6117 3.2645 13.8136 3.67516 14.0411L6.75516 15.7526C7.38516 16.9904 8.24966 18.0941 9.4385 18.8909C10.4733 19.5862 11.7158 20.0226 13.187 20.1381C13.1461 20.2409 13.1251 20.3505 13.1252 20.4612V22.5029H11.4568C10.9848 22.5029 10.5274 22.6665 10.1624 22.9657C9.79738 23.265 9.54734 23.6815 9.45483 24.1444L9.19933 25.4196H7.00016C6.7681 25.4196 6.54554 25.5117 6.38144 25.6758C6.21735 25.8399 6.12516 26.0625 6.12516 26.2946C6.12516 26.5266 6.21735 26.7492 6.38144 26.9133C6.54554 27.0774 6.7681 27.1696 7.00016 27.1696H21.0002C21.2322 27.1696 21.4548 27.0774 21.6189 26.9133C21.783 26.7492 21.8752 26.5266 21.8752 26.2946C21.8752 26.0625 21.783 25.8399 21.6189 25.6758C21.4548 25.5117 21.2322 25.4196 21.0002 25.4196H18.801L18.5455 24.1444C18.453 23.6815 18.2029 23.265 17.8379 22.9657C17.4729 22.6665 17.0155 22.5029 16.5435 22.5029H14.8752V20.4612C14.8752 20.3505 14.8542 20.2409 14.8133 20.1381C16.2845 20.0214 17.527 19.5862 18.5618 18.8921C19.7518 18.0941 20.6152 16.9904 21.2452 15.7526L24.3252 14.0411C24.7358 13.8136 25.0975 13.6117 25.3833 13.4134C25.6925 13.1987 25.9713 12.9491 26.179 12.5967C26.3867 12.2432 26.4707 11.8781 26.5068 11.5036C26.5418 11.1571 26.5418 10.7429 26.5418 10.2739V10.1047C26.5418 9.53539 26.5418 9.03605 26.4952 8.62422C26.4438 8.17972 26.3318 7.74922 26.046 7.35489C25.7613 6.95939 25.3892 6.71672 24.9843 6.52655C24.6075 6.35155 24.1338 6.19405 23.5937 6.01439L23.0197 5.82305C22.9847 5.09272 22.8248 4.43939 22.3337 3.83389C21.5683 2.89005 20.5883 2.72555 19.41 2.52955L19.2525 2.50272C17.5163 2.21811 15.7595 2.0788 14.0002 2.08622ZM17.016 25.4196L16.8293 24.4874C16.8161 24.4213 16.7804 24.3618 16.7283 24.3191C16.6762 24.2763 16.6109 24.2529 16.5435 24.2529H11.4568C11.3894 24.2529 11.3241 24.2763 11.272 24.3191C11.2199 24.3618 11.1842 24.4213 11.171 24.4874L10.9843 25.4196H17.016ZM5.00283 7.66055L5.01916 7.65472C5.10316 9.42805 5.30266 11.3881 5.802 13.2197L4.55833 12.5302C4.1045 12.2771 3.81983 12.1184 3.6145 11.9761C3.4255 11.8442 3.36366 11.7661 3.32983 11.7077C3.29483 11.6494 3.2575 11.5584 3.23416 11.3297C3.20943 10.9655 3.20086 10.6004 3.2085 10.2354V10.1502C3.2085 9.52139 3.20966 9.12355 3.2435 8.82255C3.27616 8.54489 3.3275 8.44105 3.37416 8.37805C3.41966 8.31389 3.50133 8.23222 3.7545 8.11439C4.02983 7.98605 4.40783 7.86005 5.00283 7.66055ZM22.9812 7.65355C22.8983 9.42689 22.6977 11.3869 22.1995 13.2186L23.442 12.5291C23.8958 12.2759 24.1805 12.1172 24.3858 11.9749C24.5748 11.8431 24.6367 11.7649 24.6705 11.7066C24.7055 11.6482 24.7428 11.5572 24.7662 11.3286C24.7907 11.0789 24.7918 10.7534 24.7918 10.2342V10.1491C24.7918 9.52022 24.7907 9.12239 24.7568 8.82139C24.7242 8.54372 24.6728 8.43989 24.6262 8.37689C24.5807 8.31272 24.499 8.23105 24.2458 8.11322C23.9705 7.98489 23.5925 7.85772 22.9975 7.65822L22.9812 7.65355ZM9.0395 4.22822C10.6793 3.95993 12.3386 3.82881 14.0002 3.83622C16.0302 3.83622 17.695 4.01472 18.9608 4.22822C20.369 4.46622 20.6642 4.55489 20.9757 4.93755C21.2813 5.31322 21.3105 5.67022 21.2475 7.25105C21.1425 9.88539 20.7948 12.7297 19.7192 14.8927C19.1872 15.9591 18.4918 16.8317 17.5877 17.4384C16.6882 18.0416 15.5273 18.4196 14.0002 18.4196C12.473 18.4196 11.3133 18.0416 10.4138 17.4384C9.5085 16.8317 8.81316 15.9591 8.28233 14.8916C7.2055 12.7297 6.859 9.88655 6.754 7.24989C6.691 5.67022 6.719 5.31322 7.02583 4.93755C7.33616 4.55489 7.63133 4.46622 9.0395 4.22822Z" fill="white"/>
</svg>
