<svg width="32" height="32" viewBox="0 0 32 32" fill="none" xmlns="http://www.w3.org/2000/svg">
<path id="&#208;&#191;&#208;&#187;&#208;&#176;&#208;&#189; &#209;&#130;&#209;&#131;&#209;&#128;&#208;&#189;&#208;&#184;&#209;&#128;&#208;&#190;&#208;&#178; 1 (Traced)" fill-rule="evenodd" clip-rule="evenodd" d="M15.6221 0.451714C15.4674 0.700216 14.649 2.07717 13.8034 3.51181L12.266 6.12029L11.4191 6.49902C10.1003 7.08865 10.1412 7.09202 8.13362 6.21931C7.14141 5.78796 6.31328 5.45129 6.29353 5.47116C6.27365 5.49104 6.51094 6.4342 6.82088 7.5671L7.38426 9.62705L6.824 10.7232C6.51587 11.3261 6.26378 11.9142 6.26378 12.03C6.26378 12.1796 5.35529 12.7574 3.1319 14.0217C1.40936 15.0012 0 15.82 0 15.8411C0 15.8623 1.28746 16.6246 2.86086 17.535C4.43439 18.4456 5.81169 19.2673 5.92167 19.3612C6.03164 19.455 6.15753 19.6745 6.20126 19.849C6.2451 20.0236 6.46757 20.5491 6.6956 21.0168L7.11047 21.8674L6.44854 23.7624C6.08452 24.8046 5.8334 25.6573 5.89062 25.6573C5.94783 25.6573 6.88146 25.4438 7.96545 25.1827L9.93626 24.7081L10.8404 25.2867C11.3376 25.6049 11.9745 25.982 12.2554 26.1246C12.6435 26.3215 12.8422 26.5353 13.0819 27.0144C13.5621 27.974 15.5612 31.7114 15.7255 31.9565C15.8517 32.145 16.0896 31.8024 17.5817 29.2838L19.2931 26.3949L20.7162 25.6925L22.1394 24.9902L24.0908 25.5128C25.164 25.8003 26.0603 26.0173 26.0824 25.9951C26.1046 25.9729 25.8498 25.0358 25.5162 23.9126C24.994 22.1547 24.9311 21.8364 25.0647 21.6259C25.1501 21.4912 25.4774 20.8933 25.7919 20.297L26.3639 19.2129L29.0453 17.5867C30.5201 16.6923 31.7409 15.9063 31.7585 15.8401C31.7759 15.7738 30.4874 14.9374 28.8952 13.9813L26.0002 12.243L25.6324 11.5119C25.4302 11.1099 25.1041 10.5564 24.9078 10.2819L24.5509 9.78279L25.0547 7.90536C25.3319 6.87268 25.5401 5.98009 25.5176 5.92167C25.4951 5.86337 24.6365 6.07837 23.6096 6.39951C22.5827 6.72065 21.6766 6.9841 21.596 6.98495C21.5154 6.98579 21.1113 6.76788 20.6979 6.50082C20.2846 6.23365 19.8251 5.98455 19.6768 5.94733C19.4766 5.8971 18.9687 5.12328 17.7031 2.93987C16.7658 1.32298 15.9774 0 15.9512 0C15.9249 0 15.7767 0.203331 15.6221 0.451714ZM17.1296 9.18761C17.32 9.37612 17.7944 9.5526 18.6544 9.7546L19.9026 10.0478L20.5668 10.8306C22.1 12.638 22.5163 13.748 22.5224 16.045C22.5279 18.1422 22.0235 19.5535 20.8487 20.7281C20.0409 21.5357 18.5238 22.3267 17.2856 22.5858C15.6108 22.9362 13.3192 22.7525 12.1925 22.1775C11.7606 21.957 11.232 21.4798 11.3337 21.4022C11.3609 21.3814 12.2505 21.0518 13.3105 20.6697C15.7424 19.793 17.4877 18.956 18.2088 18.3205C18.6957 17.8914 18.8142 17.6886 19.0974 16.7992C19.5512 15.3739 19.4937 14.2175 18.9175 13.1825C18.6987 12.789 18.4607 12.3521 18.3886 12.2113C18.2839 12.0067 18.1114 11.9419 17.5307 11.8886C16.1564 11.7628 14.6956 12.2919 14.1296 13.1208C13.8243 13.5679 13.6711 14.3846 13.7905 14.9285C13.8949 15.4034 14.4075 16.0208 14.6977 16.0208C14.9728 16.0208 15.0391 15.7389 14.9078 15.1283C14.841 14.8185 14.8514 14.6124 14.9378 14.526C15.1552 14.3086 16.291 14.3674 16.6698 14.6156C17.0939 14.8935 17.5441 15.8761 17.6493 16.7534C17.7278 17.4082 17.7193 17.4347 17.327 17.7664C16.197 18.7219 14.3704 19.0335 13.2818 18.4563C12.642 18.117 11.4456 16.6963 10.9293 15.6628C10.577 14.9574 10.5361 14.7616 10.4998 13.6057L10.4595 12.3283L11.4508 11.4662C11.9958 10.9919 13.0451 10.2538 13.7823 9.82567C15.0028 9.1169 15.1613 9.05596 15.5538 9.1445C15.8399 9.20906 16.1023 9.18991 16.3341 9.08752C16.811 8.87708 16.8167 8.87767 17.1296 9.18761Z" fill="white"/>
</svg>
