<svg width="32" height="32" viewBox="0 0 32 32" fill="none" xmlns="http://www.w3.org/2000/svg">
<path id="&#208;&#191;&#208;&#187;&#208;&#176;&#208;&#189; &#209;&#130;&#209;&#131;&#209;&#128;&#208;&#189;&#208;&#184;&#209;&#128;&#208;&#190;&#208;&#178; 1 (Traced)" fill-rule="evenodd" clip-rule="evenodd" d="M12.1649 0.551476C11.2477 1.06333 11.178 1.07672 9.87847 0.993778C9.14128 0.946787 8.3962 0.840981 8.22274 0.758826C8.04298 0.673675 6.28051 0.628102 4.12288 0.652859L0.338372 0.696382L0.392458 2.904C0.431092 4.47457 0.369747 5.56198 0.180207 6.67225C-0.102999 8.33018 -0.0621629 9.23925 0.372266 10.9454C0.534841 11.5839 0.581852 12.2259 0.517043 12.9225C0.438041 13.7739 0.476026 14.0565 0.734633 14.539C1.21621 15.4375 1.07399 16.544 0.476985 16.544C0.267103 16.544 0.23997 16.8023 0.285384 18.3667C0.335056 20.0777 0.361704 20.2069 0.718236 20.4756C1.08691 20.7534 1.09497 20.8052 0.993734 22.2403C0.915048 23.354 0.81159 23.8242 0.574113 24.1465C0.282865 24.5416 0.261259 24.7932 0.291378 27.4302C0.321969 30.1062 0.343897 30.2968 0.639088 30.4548C0.917091 30.6035 2.43452 30.6422 12.362 30.7525C12.6438 30.7557 12.8745 30.8188 12.8745 30.8926C12.8745 30.9665 13.0587 31.2459 13.2839 31.5135L13.6932 32L14.1732 31.596C14.4372 31.3738 14.7447 31.2272 14.8565 31.2701C14.9683 31.313 15.3308 31.3929 15.6623 31.4475C15.9937 31.5022 16.421 31.623 16.6122 31.716C16.8851 31.8488 17.1273 31.8127 17.7452 31.547C18.4291 31.2527 18.829 31.2089 20.8327 31.2089C22.4337 31.2089 23.2929 31.1427 23.6554 30.9911C24.0071 30.8443 24.264 30.8222 24.4451 30.9236C24.7758 31.1088 28.5635 31.1788 28.7418 31.0033C28.8126 30.9334 28.7683 30.8131 28.6431 30.7357C27.934 30.2975 30.4644 30.3702 31.32 30.8126C31.5737 30.9438 31.8074 31.0512 31.8392 31.0512C31.8709 31.0512 31.9072 28.1419 31.9195 24.586L31.9421 18.1208L31.3571 18.1156L30.772 18.1103L31.1268 17.8143C31.4531 17.5421 31.4815 17.3874 31.4792 15.888C31.4778 14.8835 31.4021 14.1291 31.2821 13.9234C30.4792 12.5456 30.5046 12.6379 30.8048 12.1797C30.9572 11.9471 31.062 11.605 31.0378 11.4196C31.0075 11.1888 31.1169 11.0262 31.3843 10.9043C31.9312 10.6551 32.0198 9.85644 31.8845 6.39362C31.8232 4.82117 31.7811 3.03804 31.7912 2.43094C31.8093 1.34258 31.8024 1.32288 31.2908 1.02123C30.9482 0.819072 30.3171 0.679032 29.4317 0.608703C28.2358 0.513776 28.0548 0.535537 27.7515 0.809913C27.4141 1.11535 27.4108 1.11519 27.3097 0.796823C27.1697 0.355457 26.9696 0.313675 24.2121 0.148576C21.5451 -0.0110032 21.0795 0.0776165 20.9169 0.775225C20.8368 1.11914 20.7278 1.17574 20.0644 1.21816C19.4417 1.25822 19.2624 1.20807 19.0762 0.94221C18.9341 0.739424 18.6744 0.617539 18.3846 0.617539C18.0257 0.617539 17.9205 0.546106 17.9205 0.302164C17.9205 -0.000280646 17.8215 -0.0124277 15.5158 0.00507556L13.111 0.0235358L12.1649 0.551476ZM7.47451 6.09717C8.13458 6.50905 8.92113 7.09454 9.22231 7.39809C9.76428 7.94432 10.5608 8.49434 11.2697 8.81176C11.4713 8.90212 13.0164 9.9159 14.7035 11.0648C16.3906 12.2137 18.1569 13.402 18.6285 13.7056C20.7341 15.0606 23.8927 17.2168 24.5147 17.7236C24.8892 18.0287 25.2985 18.2785 25.4242 18.2785C25.7268 18.2785 28.3279 20.1804 28.3279 20.4016C28.3279 20.4966 28.1227 21.3683 27.8718 22.3388C27.3609 24.3161 26.5877 26.1145 26.181 26.2704C26.0329 26.3274 25.1249 26.2938 24.1632 26.1959L22.4146 26.018L20.9372 24.4741C20.1246 23.6251 19.1276 22.54 18.7217 22.063C18.3158 21.586 17.0706 20.2733 15.9543 19.1458C14.838 18.0183 13.3906 16.5282 12.7376 15.8344C12.0846 15.1405 9.75499 12.7175 7.56077 10.4497C5.36639 8.18197 3.57098 6.2484 3.57098 6.15268C3.57098 6.05712 3.66966 5.9789 3.7903 5.9789C3.91093 5.9789 4.31886 5.83856 4.697 5.66699C5.72654 5.19977 6.13889 5.26363 7.47451 6.09717ZM24.992 6.13313C25.9325 6.74101 25.9626 6.78138 25.9607 7.43405C25.9597 7.80461 25.8541 8.49797 25.726 8.97497C25.598 9.45198 25.4914 10.0906 25.489 10.3942C25.4837 11.0771 25.2836 11.416 24.959 11.2914C24.6432 11.1703 21.4909 8.91709 20.7426 8.27783C20.4301 8.0107 19.9107 7.59031 19.5885 7.34321C19.2662 7.09627 19.0363 6.86053 19.0775 6.81922C19.1524 6.74447 23.522 5.55804 23.8488 5.52382C23.9437 5.51404 24.4582 5.78811 24.992 6.13313ZM8.45913 21.4444C8.45928 21.4944 9.31079 22.3049 10.3515 23.2457C11.3923 24.1864 12.2438 25.0351 12.2438 25.1316C12.2438 25.2281 11.7292 25.4757 11.1005 25.6818C10.4718 25.8877 9.58215 26.1867 9.12344 26.3461C8.66489 26.5055 7.91682 26.636 7.46095 26.636C6.69238 26.636 6.56389 26.5776 5.69298 25.8325C5.17639 25.3907 4.59389 24.9536 4.39883 24.8612C3.81129 24.5829 3.94421 23.8104 5.00686 21.3268L5.96969 19.0767L7.21449 20.2151C7.89901 20.8411 8.45913 21.3943 8.45913 21.4444Z" fill="white"/>
</svg>
