<svg width="28" height="28" viewBox="0 0 28 28" fill="none" xmlns="http://www.w3.org/2000/svg">
<path d="M19.8333 23.3339C19.8333 21.4007 17.2212 19.8339 14 19.8339C10.7788 19.8339 8.16667 21.4007 8.16667 23.3339M24.5 19.8339C24.5 18.3989 23.0603 17.1657 21 16.6255M3.5 19.8339C3.5 18.3989 4.93967 17.1657 7 16.6255M21 11.9425C21.3456 11.637 21.6275 11.2661 21.8293 10.8512C22.031 10.4364 22.1488 9.98571 22.1758 9.52516C22.2028 9.06461 22.1385 8.60327 21.9866 8.16767C21.8347 7.73207 21.5981 7.3308 21.2905 6.98694C20.983 6.64308 20.6105 6.36342 20.1944 6.16405C19.7784 5.96467 19.3271 5.8495 18.8664 5.82518C18.4057 5.80086 17.9447 5.86785 17.51 6.02231C17.0753 6.17677 16.6754 6.41565 16.3333 6.72521M7 11.9425C6.31435 11.322 5.90212 10.4554 5.85336 9.53197C5.80461 8.60852 6.12328 7.70331 6.73978 7.01406C7.35628 6.32482 8.2205 5.90756 9.14365 5.85343C10.0668 5.79931 10.9738 6.11272 11.6667 6.72521M14 16.3339C13.5404 16.3339 13.0852 16.2433 12.6606 16.0675C12.236 15.8916 11.8501 15.6338 11.5251 15.3087C11.2001 14.9837 10.9423 14.5979 10.7664 14.1733C10.5905 13.7486 10.5 13.2935 10.5 12.8339C10.5 12.3742 10.5905 11.9191 10.7664 11.4945C10.9423 11.0698 11.2001 10.684 11.5251 10.359C11.8501 10.034 12.236 9.77619 12.6606 9.6003C13.0852 9.4244 13.5404 9.33387 14 9.33387C14.9283 9.33387 15.8185 9.70262 16.4749 10.359C17.1313 11.0154 17.5 11.9056 17.5 12.8339C17.5 13.7621 17.1313 14.6524 16.4749 15.3087C15.8185 15.9651 14.9283 16.3339 14 16.3339Z" stroke="#E7E7E7" stroke-width="2.33333" stroke-linecap="round" stroke-linejoin="round"/>
</svg>
