<svg width="31" height="32" viewBox="0 0 31 32" fill="none" xmlns="http://www.w3.org/2000/svg">
<path id="&#208;&#191;&#208;&#187;&#208;&#176;&#208;&#189; &#209;&#130;&#209;&#131;&#209;&#128;&#208;&#189;&#208;&#184;&#209;&#128;&#208;&#190;&#208;&#178; 1 (Traced)" fill-rule="evenodd" clip-rule="evenodd" d="M1.74097 0.141154C1.74097 0.218911 2.54844 1.61316 3.53536 3.23977L5.32974 6.19693V16.0595V25.9221L3.48123 28.7741C2.46455 30.3427 1.58589 31.7104 1.52847 31.8131C1.44548 31.9619 3.78089 32 12.9873 32H24.5503L27.5008 28.1201C29.1235 25.9861 30.4512 24.2029 30.4512 24.1575C30.4512 24.112 26.8849 24.0748 22.526 24.0748H14.6008V12.0374V0H8.17087C4.23652 0 1.74097 0.0548739 1.74097 0.141154ZM11.9092 14.6527V26.6137L18.5745 26.6527L25.2397 26.6916L24.2527 28L23.2657 29.3084H14.8212C10.1766 29.3084 6.37663 29.2579 6.37693 29.1963C6.37708 29.1347 6.71339 28.5794 7.12415 27.9626L7.87105 26.8411L7.87135 16.0357L7.87182 5.23035L7.12415 4.03738C6.71294 3.38123 6.37648 2.81001 6.37648 2.76799C6.37648 2.72598 7.62134 2.69158 9.14283 2.69158H11.9092V14.6527ZM17.2924 4.31102V5.65517L18.4255 6.03617C22.3202 7.34563 25.2337 10.5166 26.2628 14.566C26.7418 16.4505 26.6449 19.1067 26.0237 21.1273C25.9481 21.373 26.0548 21.3912 27.3365 21.3516L28.7316 21.3084L28.9431 20.5607C29.0833 20.0643 29.1569 19.009 29.1618 17.4206C29.1681 15.3932 29.1176 14.8339 28.8306 13.757C28.052 10.8336 26.1622 7.92448 23.8299 6.05846C22.1157 4.68695 19.6465 3.46766 17.7783 3.0702L17.2924 2.96687V4.31102ZM2.3011 9.46019C1.78477 10.2482 1.00167 11.9732 0.640546 13.1184C-0.457323 16.5995 -0.133451 20.5026 1.5316 23.8572C1.91739 24.6345 2.32415 25.3461 2.43555 25.4387C2.60557 25.5797 2.63815 24.2807 2.63815 17.364C2.63815 12.8306 2.6123 9.1215 2.5806 9.1215C2.5489 9.1215 2.42312 9.27387 2.3011 9.46019Z" fill="white"/>
</svg>
