<svg width="32" height="32" viewBox="0 0 32 32" fill="none" xmlns="http://www.w3.org/2000/svg">
<path id="&#208;&#191;&#208;&#187;&#208;&#176;&#208;&#189; &#209;&#130;&#209;&#131;&#209;&#128;&#208;&#189;&#208;&#184;&#209;&#128;&#208;&#190;&#208;&#178; 1 (Traced)" fill-rule="evenodd" clip-rule="evenodd" d="M13.3111 0.219112C9.91335 0.834309 7.0556 2.34818 4.64698 4.80856C-0.246667 9.80737 -1.37898 16.9795 1.74482 23.1898C2.55509 24.8004 3.37542 25.9126 4.79612 27.3263C12.3187 34.8115 24.7101 33.0709 30.0015 23.7855C30.7732 22.4312 31.3541 20.8319 31.7229 19.0453C31.9705 17.8457 32.0012 17.3421 31.9407 15.4694C31.8665 13.1709 31.6807 12.1818 30.9686 10.2928C29.5276 6.46985 26.5446 3.25055 22.831 1.51027C19.9606 0.16517 16.3291 -0.327427 13.3111 0.219112ZM28.0098 9.79799C28.1551 9.89021 28.1708 10.5427 28.0915 13.204C27.9805 16.9334 28.0719 16.6932 26.7972 16.6022L26.1951 16.5592L26.0778 13.2391C25.9806 10.4914 25.9924 9.89865 26.1459 9.80138C26.3836 9.65072 27.7736 9.64828 28.0098 9.79799ZM8.16163 12.6145C9.35021 13.0338 10.1166 14.1281 10.2735 15.6298C10.4554 17.3701 9.79495 18.808 8.51007 19.4692C7.55485 19.9609 6.14247 19.948 5.20837 19.4392C4.07469 18.822 3.52936 17.7545 3.51942 16.1336C3.50893 14.4436 4.12116 13.2974 5.33657 12.7315C6.16374 12.3464 7.27167 12.3005 8.16163 12.6145ZM15.7158 12.5573C16.0499 12.6414 16.3596 12.7688 16.4039 12.8405C16.4481 12.9121 16.4071 13.2464 16.3127 13.5834C16.1648 14.1121 16.102 14.1843 15.8553 14.11C15.6981 14.0625 15.1998 13.9892 14.7481 13.947C13.8366 13.8619 13.5357 14.0369 13.6178 14.6047C13.6543 14.857 13.8598 14.98 14.7486 15.2809C16.3788 15.8331 16.9881 16.7186 16.6088 17.9842C16.2453 19.1976 15.2376 19.8092 13.6031 19.8088C13.0363 19.8086 12.3058 19.7324 11.98 19.6394C11.3915 19.4714 11.3882 19.4669 11.4813 18.9708C11.6183 18.2399 11.804 17.9529 12.0721 18.0567C12.4902 18.2188 13.5633 18.2981 14.0649 18.2041C14.4086 18.1395 14.6076 18.0072 14.7148 17.7721C14.9315 17.2963 14.5873 17.0052 13.3864 16.6492C12.1502 16.2828 11.6738 15.8156 11.584 14.8818C11.4775 13.7727 12.0158 12.9613 13.1174 12.5707C13.6666 12.3759 14.9691 12.3693 15.7158 12.5573ZM19.9968 14.7926C19.9968 17.5283 20.1024 17.8974 20.9502 18.1258C21.3066 18.2217 21.6503 18.2331 21.88 18.1565L22.2445 18.0352L22.2814 15.2878L22.3183 12.5405H23.2714H24.2244L24.1881 15.9802L24.1517 19.4199L23.4706 19.5995C23.096 19.6982 22.2009 19.7817 21.4816 19.7851C19.8701 19.7928 19.1063 19.5109 18.5787 18.7136C18.0947 17.9823 17.9534 17.0601 17.9534 14.6335V12.5405H18.9751H19.9968V14.7926ZM6.28687 14.098C5.84958 14.2899 5.67125 14.6482 5.49878 15.682C5.38326 16.375 5.64483 17.5802 5.99084 17.9484C6.36015 18.3415 7.29603 18.3825 7.70607 18.0236C8.44196 17.3791 8.48388 14.9089 7.76965 14.2789C7.41328 13.9645 6.76979 13.886 6.28687 14.098ZM28.1422 18.6325C28.1802 19.5661 28.1659 19.6202 27.8625 19.6963C27.6866 19.7405 27.2089 19.7576 26.8009 19.7344L26.0589 19.6924L26.0179 18.8212C25.9585 17.5619 25.9582 17.5622 27.1127 17.6089L28.1023 17.649L28.1422 18.6325Z" fill="white"/>
</svg>
