<svg width="28" height="28" viewBox="0 0 28 28" fill="none" xmlns="http://www.w3.org/2000/svg">
<path d="M18.6667 12.834C20.6034 12.834 22.1551 11.2707 22.1551 9.33398C22.1551 7.39732 20.6034 5.83398 18.6667 5.83398C16.7301 5.83398 15.1667 7.39732 15.1667 9.33398C15.1667 11.2707 16.7301 12.834 18.6667 12.834ZM9.33341 12.834C11.2701 12.834 12.8217 11.2707 12.8217 9.33398C12.8217 7.39732 11.2701 5.83398 9.33341 5.83398C7.39675 5.83398 5.83341 7.39732 5.83341 9.33398C5.83341 11.2707 7.39675 12.834 9.33341 12.834ZM9.33341 15.1673C6.61508 15.1673 1.16675 16.5323 1.16675 19.2507V22.1673H17.5001V19.2507C17.5001 16.5323 12.0517 15.1673 9.33341 15.1673ZM18.6667 15.1673C18.3284 15.1673 17.9434 15.1907 17.5351 15.2257C18.8884 16.2057 19.8334 17.524 19.8334 19.2507V22.1673H26.8334V19.2507C26.8334 16.5323 21.3851 15.1673 18.6667 15.1673Z" fill="#E7E7E7"/>
</svg>
