<svg width="28" height="28" viewBox="0 0 28 28" fill="none" xmlns="http://www.w3.org/2000/svg">
<path d="M10.4999 18.6673C10.8305 18.6673 11.1078 18.5553 11.3318 18.3313C11.5558 18.1073 11.6674 17.8304 11.6666 17.5007V10.5007C11.6666 10.1701 11.5546 9.89282 11.3306 9.66882C11.1066 9.44482 10.8297 9.33321 10.4999 9.33398C10.1694 9.33398 9.89208 9.44598 9.66808 9.66998C9.44408 9.89398 9.33247 10.1709 9.33325 10.5007V17.5007C9.33325 17.8312 9.44525 18.1085 9.66925 18.3325C9.89325 18.5565 10.1701 18.6681 10.4999 18.6673ZM15.3708 17.7632L19.9208 14.7298C20.193 14.5548 20.3291 14.3118 20.3291 14.0007C20.3291 13.6895 20.193 13.4465 19.9208 13.2715L15.3708 10.2382C15.0791 10.0437 14.7777 10.0289 14.4666 10.1938C14.1555 10.3587 13.9999 10.6165 13.9999 10.9673V17.034C13.9999 17.384 14.1555 17.6418 14.4666 17.8075C14.7777 17.9732 15.0791 17.9584 15.3708 17.7632ZM13.9999 25.6673C12.386 25.6673 10.8694 25.3609 9.44992 24.748C8.03047 24.1351 6.79575 23.304 5.74575 22.2548C4.69575 21.2048 3.8647 19.9701 3.25259 18.5506C2.64047 17.1312 2.33403 15.6145 2.33325 14.0007C2.33325 12.3868 2.6397 10.8701 3.25259 9.45065C3.86547 8.03121 4.69653 6.79648 5.74575 5.74648C6.79575 4.69648 8.03047 3.86543 9.44992 3.25332C10.8694 2.64121 12.386 2.33476 13.9999 2.33398C15.6138 2.33398 17.1305 2.64043 18.5499 3.25332C19.9694 3.86621 21.2041 4.69726 22.2541 5.74648C23.3041 6.79648 24.1355 8.03121 24.7484 9.45065C25.3613 10.8701 25.6674 12.3868 25.6666 14.0007C25.6666 15.6145 25.3601 17.1312 24.7473 18.5506C24.1344 19.9701 23.3033 21.2048 22.2541 22.2548C21.2041 23.3048 19.9694 24.1363 18.5499 24.7491C17.1305 25.362 15.6138 25.6681 13.9999 25.6673ZM13.9999 23.334C16.6055 23.334 18.8124 22.4298 20.6208 20.6215C22.4291 18.8132 23.3333 16.6062 23.3333 14.0007C23.3333 11.3951 22.4291 9.18815 20.6208 7.37982C18.8124 5.57148 16.6055 4.66732 13.9999 4.66732C11.3944 4.66732 9.18742 5.57148 7.37909 7.37982C5.57075 9.18815 4.66659 11.3951 4.66659 14.0007C4.66659 16.6062 5.57075 18.8132 7.37909 20.6215C9.18742 22.4298 11.3944 23.334 13.9999 23.334Z" fill="#E7E7E7"/>
</svg>
