<svg width="49" height="49" viewBox="0 0 49 49" fill="none" xmlns="http://www.w3.org/2000/svg">
<g clip-path="url(#clip0_2546_6316)">
<path d="M11.64 20.1342C11.3356 19.8452 11.0934 19.4928 10.9303 19.1039C10.7067 19.034 10.4738 18.9991 10.2409 18.9991C9.92253 19.0293 9.7952 19.0578 9.54208 19.1674C9.55606 19.3499 9.63836 19.6055 9.81694 20.0342C9.26878 19.9992 8.71597 19.088 8.66162 18.8134C8.96598 18.6578 9.28742 18.5451 9.62128 18.4768C10.5716 18.2847 11.362 18.5181 11.7611 18.6705C11.567 19.1309 11.5251 19.6452 11.64 20.1342Z" fill="white"/>
<path d="M13.46 18.7151C13.4305 18.5833 13.3995 18.45 13.37 18.3182C13.1262 18.7103 12.8389 19.0199 12.1665 19.3183C13.8855 19.3739 14.4849 18.7675 14.8452 18.0356C14.3715 18.3389 14.0377 18.5182 13.46 18.7151Z" fill="white"/>
<path d="M18.5942 18.6343C17.8287 18.6787 16.6485 18.2977 16.3628 18.5406C16.7991 16.796 19.5508 18.0025 20.1315 16.3149C19.9623 17.1404 20.1315 17.5405 18.7138 18.1787C18.7138 18.1787 19.0974 18.4374 19.234 18.4358L18.5942 18.6343Z" fill="white"/>
<path d="M10.1245 16.8517C10.4848 17.1406 11.3124 16.9279 11.4429 16.8438C11.1509 17.4105 10.4289 17.6058 10.1245 16.8517Z" fill="white"/>
<path d="M16.9961 15.5245C16.9759 15.3435 16.8315 15.2023 16.6529 15.1927C16.4821 15.3499 16.2492 15.5245 16.0737 15.3816C16.1389 15.1689 16.6995 14.826 17.1172 14.5942C17.1747 14.726 17.1995 14.8689 17.1918 15.0118C17.1778 15.1991 17.111 15.3785 16.9961 15.5245Z" fill="white"/>
<path d="M26.2607 8.95508C23.8833 9.06303 22.127 10.1076 21.0742 12.2095C21.5121 11.792 21.9671 11.4173 22.4733 11.1712C22.1348 11.6602 21.8273 12.3238 21.7466 12.8969C21.8662 13.4588 22.3507 13.9144 22.4609 13.9906C22.7684 12.0761 23.5712 10.5267 26.2607 8.95508Z" fill="white"/>
<path d="M19.0809 9.82506C18.4225 10.2362 17.7454 10.8157 17.0591 11.9952C17.8184 9.36786 20.0685 6.68339 23.4521 5.92773C21.1384 7.33903 20.0856 9.44406 20.2238 10.8744C20.0126 11.2205 19.1259 11.6412 18.4675 11.9682C18.5778 11.1062 18.8045 10.3807 19.0809 9.82506Z" fill="white"/>
<path d="M8.89999 27.2559C8.12201 26.3494 7.65616 23.9269 8.07698 21.9917C8.20587 23.1141 8.52575 24.338 9.68728 25.3858C11.206 25.1699 11.4063 25.5255 11.3519 25.5255C9.92331 26.1145 9.69194 26.578 8.89999 27.2559Z" fill="white"/>
<path d="M12.7292 47.125C14.9311 44.2913 16.2541 40.8496 16.5306 37.2412C16.5306 37.2412 14.4218 38.8398 12.6655 40.2972C13.8115 38.2763 15.0243 35.6537 15.7961 32.5374C16.4048 30.0768 16.5958 27.8861 16.5973 26.0684C16.897 26.6129 17.2883 27.3669 17.689 28.2845C18.0477 29.1037 18.8148 30.861 19.1549 32.6692C19.7108 35.6188 19.012 38.0953 18.7449 39.0145C17.3613 43.7691 13.8752 46.3472 12.7292 47.125Z" fill="white"/>
<path d="M21.889 27.586L20.2119 27.5796C20.2647 26.5366 20.4914 25.5111 20.8812 24.5459C21.7492 25.2857 22.1374 26.4588 21.889 27.586Z" fill="white"/>
<path d="M25.9277 31.2371C26.0194 30.7228 26.1187 29.0495 26.1125 28.8257L26.5333 27.4414C26.6265 28.7559 26.406 30.0163 25.9277 31.2371Z" fill="white"/>
<path d="M22.771 31.7927L20.625 31.1291C20.7492 30.4052 20.771 29.8623 20.7523 29.221L21.1732 29.7496L22.3067 28.2256C22.9605 29.2908 23.1282 30.5926 22.771 31.7927Z" fill="white"/>
<path d="M24.0014 36.5079C22.8554 36.4095 21.7451 36.0587 20.7451 35.4792C20.9423 34.9506 21.0107 34.5061 21.02 33.9219C21.02 33.9219 21.7296 34.4458 21.8896 34.4077C21.9889 34.2235 22.1039 34.0314 22.2343 33.8377C22.6365 33.2408 23.1241 32.7122 23.6831 32.2661C24.1676 33.6234 24.2794 35.0903 24.0014 36.5079Z" fill="white"/>
<path d="M44.0861 28.4786C43.9417 28.377 43.6544 26.7641 43.6544 26.7641C43.5271 27.9579 43.2305 29.1263 42.7724 30.2313C41.4634 33.3777 39.1838 35.1478 38.0518 35.905C37.5766 33.5825 37.766 31.1679 38.5968 28.9533C38.5627 29.7328 38.8266 30.4964 39.3329 31.0806C41.0891 27.515 42.0628 23.6002 42.1854 19.6108C42.7367 20.1712 43.7367 21.3412 44.2647 23.1399C45.0007 25.6418 44.347 27.7532 44.0861 28.4786Z" fill="white"/>
<path d="M33.8064 8.81536C33.4321 10.1616 33.5874 10.7013 33.4911 11.3681C33.4911 11.3681 32.9383 10.9331 32.7085 9.20747L33.0657 9.76786C33.2613 8.60898 33.0206 7.84222 33.3809 7.36914C36.0657 8.00097 38.5534 11.2823 36.0844 18.6039C36.0378 17.5578 37.7211 10.9474 33.8064 8.81536Z" fill="white"/>
<path d="M32.8862 3.97509C31.5694 5.25144 31.4358 6.16267 31.0756 7.8613C30.765 6.67385 30.7604 5.45306 31.1983 3.77983C32.4359 3.5163 32.7791 3.83221 32.8862 3.97509Z" fill="white"/>
<path d="M23.3376 23.7603C19.1806 24.735 18.5968 21.768 17.6713 22.4347C17.2458 22.7364 18.1247 23.2904 18.1247 23.2904C17.988 23.4682 15.5082 23.8032 15.6277 22.1537C15.7628 21.4537 16.3405 21.0933 17.2877 21.0171C19.9167 21.0981 19.8313 23.6476 23.3376 23.7603Z" fill="white"/>
<path d="M17.9725 18.9423C15.0438 19.3217 15.3855 23.2413 12.1276 22.3221C12.0546 22.3872 11.9444 22.6777 11.9956 23.1317C11.8698 23.0603 11.3589 22.8682 11.1679 21.9443C10.9397 22.5427 10.8294 23.2254 11.5158 23.8556C11.2968 23.8842 10.3915 23.6921 10.112 22.7713C10.112 22.7713 9.96137 22.973 9.79677 23.1079C9.63838 22.8412 9.5359 22.3316 9.64615 22.0284C9.79211 22.0713 10.126 21.9728 10.126 21.9728C8.87594 21.4918 8.91786 20.6631 8.88525 20.1027C10.0623 20.7346 10.6617 20.8235 10.6617 20.8235C10.6617 20.8235 10.5111 20.5457 10.3558 20.225C11.7332 20.7949 13.0034 21.0426 14.6137 19.771C16.6603 18.2168 17.9927 16.0625 18.1262 15.6339C18.1262 15.6339 17.6417 15.7736 17.3032 15.7593C17.5097 15.2593 17.6231 15.1132 17.7147 14.4544C17.7147 14.4544 17.929 14.8005 17.9616 14.9783C18.002 14.8068 18.1216 14.4179 18.1262 14.0194C17.6324 13.9813 17.2069 14.1083 16.2333 14.791C16.2644 14.5893 16.3203 14.3909 16.3979 14.202C15.4383 14.9735 15.7193 15.6403 14.0655 15.7022C13.7099 15.7244 11.8636 15.6879 11.1027 14.783C12.2891 14.3687 15.1634 13.3733 15.7814 11.354C15.9119 12.0477 15.7752 12.9526 15.3699 13.8226C15.7954 13.3876 16.3995 12.8971 16.5641 12.097C17.0718 12.6304 17.2023 12.8621 18.4446 13.1352C18.4539 13.1225 18.1977 12.8685 18.061 12.6446C18.5408 12.5811 19.2753 12.5669 19.7753 12.3081C19.7474 12.9177 20.0424 13.5908 20.2831 13.8226C20.2831 13.8226 20.0362 12.6939 20.4477 11.9573C20.4959 12.7923 20.749 13.5781 21.3127 13.9067L21.4151 13.4019C21.6822 14.0337 22.218 14.4687 22.218 14.4687C20.9151 14.4973 19.6589 15.0164 19.3499 16.1721C23.8298 15.5895 24.5162 13.9909 24.8656 11.7334C25.0504 13.059 25.2367 15.2736 23.4944 16.18C23.8997 16.2149 24.2724 16.0546 24.8795 15.8578C23.4245 17.885 22.4649 16.0546 21.5596 17.6818C22.2739 18.0676 22.4649 18.2565 22.4649 18.2565C22.4649 18.2565 21.4912 18.2501 21.0797 18.5787C21.0456 18.9232 21.69 19.6519 22.4928 20.2901C19.6325 20.3377 19.8514 19.4185 17.9725 18.9423Z" fill="white"/>
<path d="M28.0616 13.4254C27.1609 13.4683 26.7976 13.473 26.1671 13.0349C25.9963 12.9047 25.9202 12.5872 25.8348 12.2348C25.7696 11.8601 25.8922 11.5553 25.7634 11.3156C25.6112 11.0473 25.4 10.8171 25.1484 10.6441C25.3627 10.5885 25.9947 10.4568 26.3923 10.8124C26.6236 11.0187 26.8038 11.3108 26.8364 11.8458C26.9047 12.9618 27.1019 12.7983 28.0616 13.4254Z" fill="white"/>
<path d="M7.96652 41.2279C8.8563 43.2869 10.0039 44.7808 10.6731 45.5729C9.45259 44.784 8.31902 43.8616 7.29569 42.8202C6.50374 42.0138 4.89189 40.2373 3.76608 37.9418C3.49899 37.3989 3.26607 36.8401 3.0673 36.267C2.07038 33.4095 2.05485 30.6504 2.23187 28.7375C2.29088 28.1009 2.37163 27.5579 2.44306 27.1357C1.38712 28.0008 0.567224 29.1296 0.0641022 30.4123C-0.328767 26.8007 1.16662 23.4765 3.4229 19.9062C4.38567 18.3837 4.6248 17.4582 4.90587 16.5597C5.56893 14.4562 5.59688 12.583 5.51458 11.3257C5.59999 11.7527 5.6854 12.1798 5.7708 12.6068C6.46492 16.0739 5.29408 17.2645 5.22265 21.1539C5.1683 24.0559 5.6885 26.1578 5.97423 27.1468C6.16367 27.7976 6.35312 28.3279 6.49287 28.6882C6.60313 27.7834 6.72891 26.9991 7.19787 26.334C7.19787 26.334 7.29414 28.385 8.57834 29.9376C9.13116 28.8676 10.8828 27.7167 11.4045 27.4166C9.83149 29.9138 8.48673 33.0174 9.07991 37.3132C7.4634 35.4129 7.2724 33.3746 7.12333 31.7029C6.81276 32.9745 6.67145 34.2842 6.70406 35.5955C6.75531 37.6021 7.21339 39.3753 7.82056 40.8723C7.86714 40.9962 7.91683 41.1136 7.96652 41.2279Z" fill="white"/>
<path d="M21.8896 27.586C21.9657 26.2493 21.2825 25.173 20.8818 24.5459C22.0651 24.6935 22.6723 25.5206 22.9782 26.1874C22.9782 26.1874 22.3508 27.3082 21.8896 27.586Z" fill="white"/>
<path d="M23.7998 28.8912C23.7952 28.9626 23.7967 29.0325 23.8045 29.1039C23.834 29.2944 24.2796 29.8263 24.2936 30.0691C24.3231 30.3724 23.1538 31.6852 22.7718 31.7932C22.7672 30.6343 22.9954 30.2263 22.3091 28.2276C23.5141 27.3656 24.7144 25.8241 25.3915 23.7207C25.4986 25.7638 24.8852 27.445 23.7998 28.8912Z" fill="white"/>
<path d="M25.6006 34.9041C25.0959 35.4677 24.5617 36.0027 23.9996 36.5075C24.1549 35.0407 24.0958 33.6183 23.6797 32.2673C24.1828 31.8625 24.6347 31.3973 25.026 30.8798C26.009 29.5797 26.3785 28.2509 26.5338 27.4429C26.5136 28.0302 26.4919 28.6176 26.4717 29.205C26.2605 30.6036 25.7248 31.9308 24.9064 33.0722C25.1658 33.4817 25.4825 34.0993 25.6006 34.9041Z" fill="white"/>
<path d="M48.4226 22.6491C47.7269 21.0489 46.2191 18.1898 43.2112 15.7879C41.7547 14.6275 40.1273 13.7131 38.3881 13.0797C39.1707 16.3198 38.1505 20.0504 35.3119 25.1066H35.3135C35.9548 24.7065 36.6644 24.4351 37.4051 24.3065C34.8756 26.7497 34.3352 29.3659 34.419 33.8585C33.9159 33.2997 33.1892 31.5535 33.1892 31.5535C33.0354 32.2266 32.9687 32.9155 32.9935 33.6061C33.0743 35.8112 34.0588 36.6986 34.2731 38.6179C34.4206 39.9339 34.1147 40.9198 33.7187 42.1945C32.8615 44.9552 31.2326 46.8126 30.1611 47.8286C31.7901 44.1757 32.1752 40.072 31.2559 36.1683C30.8599 34.819 30.2496 32.3599 30.7264 29.3452C31.0851 27.0783 31.8801 24.9256 32.8212 23.2064C32.9392 23.0413 33.051 25.0002 33.2063 25.0018C33.6799 23.862 35.4299 18.9137 33.947 14.2862C33.2264 12.7907 32.405 10.4587 32.6721 7.68213C32.714 7.23763 32.7839 6.79789 32.8771 6.36133C33.7684 7.18524 35.1861 8.26316 37.1412 8.80926C38.6334 9.22519 39.208 8.98865 40.4456 9.30933C43.1165 10.0031 44.7392 12.2272 45.702 13.5591C48.2859 17.1389 48.4459 21.0616 48.4226 22.6491Z" fill="white"/>
<path d="M31.3087 6.75963C31.231 7.12634 31.1534 7.49305 31.0757 7.86136C30.9049 7.00252 30.6937 5.32928 31.2543 3.3703C31.5789 2.24158 32.1099 1.18589 32.818 0.258789C33.5665 3.0782 34.5122 5.38485 37.9859 7.0295C36.7001 6.99299 33.8056 6.61358 32.9097 3.92434C32.1658 4.72603 31.5323 5.65155 31.3087 6.75963Z" fill="white"/>
<path d="M30.9115 22.9142C30.2158 24.4937 29.1226 25.4113 28.5574 25.8241C29.1832 23.8032 29.2065 21.6362 28.6257 19.601C28.4999 19.9614 28.4378 20.4631 28.09 21.1092C27.753 19.0089 26.9549 17.5309 25.7437 16.1022C26.5325 16.0815 27.3213 16.1165 28.1055 16.2054L26.5216 14.7861C27.1474 14.9369 28.1925 15.2751 29.236 16.0974C29.8571 16.5864 31.0233 17.5071 31.4302 19.1422C31.8448 20.798 31.233 22.1839 30.9115 22.9142Z" fill="white"/>
<path d="M15.7973 23.595C15.187 24.1633 14.496 23.9236 14.35 23.7665C14.2522 23.6617 14.2382 23.5378 14.0923 23.3267C14.0084 23.2045 13.8578 23.0743 13.541 22.9394C15.1839 22.579 14.6699 23.6902 15.7973 23.595Z" fill="white"/>
<path d="M24.7432 23.0584C24.3255 22.3186 23.7618 21.9566 23.3239 21.9439C23.2649 22.1059 23.1749 22.4884 23.0009 22.7917C22.4279 22.7361 22.1779 22.6234 21.7866 22.3218C22.0304 21.8646 23.136 20.585 23.4404 20.4009C24.1796 21.101 24.7619 21.8963 24.7432 23.0584Z" fill="white"/>
<path d="M3.96436 8.19926C3.87429 8.72314 3.81373 9.25337 3.78578 9.78359C3.70503 11.2774 3.87895 12.7364 3.81528 12.7411H3.81373C2.95345 11.6568 0.630401 8.11353 1.41148 2.85254C4.99234 6.03708 8.77041 9.1978 13.7876 10.9599C12.1696 10.9568 10.5577 10.7472 8.99091 10.3345C7.22533 9.86773 5.53273 9.14859 3.96436 8.19926Z" fill="white"/>
<path d="M20.3503 21.3452C19.1453 20.2466 18.3766 19.9799 16.6731 20.5974C16.8704 19.7037 17.8533 19.3211 18.594 19.3068C17.4185 19.0734 17.1763 19.2687 16.3626 19.6433C14.2818 20.1339 14.3641 22.3199 12.1187 21.3642C12.0659 21.4214 11.8686 21.5484 11.6621 21.6261C11.5658 21.4388 11.4602 21.0673 11.3515 20.9149C11.2164 20.9784 10.9307 21.2626 10.5472 21.4579C10.3189 21.5436 9.30335 21.3721 9.11079 20.4466C9.56422 20.6355 10.277 20.7657 10.7025 20.8356C10.5239 20.572 10.4354 20.499 10.4416 20.2466C12.1295 21.0007 13.2879 20.807 14.5985 19.783C14.2321 19.9132 13.5069 20.0243 13.0892 19.937C14.965 19.1099 15.9293 17.7844 16.2446 17.0049C14.9138 18.4749 13.5053 16.9208 12.1839 17.397C12.5069 17.4494 13.069 17.4494 13.291 17.8272C13.1591 17.9828 12.9572 18.032 12.8159 18.1082C11.7087 18.3464 10.4509 17.0938 8.38872 18.0336C7.98032 17.7082 7.9974 17.5002 8.00517 17.4542C8.93377 17.4113 9.09526 16.8176 9.08439 16.7811C8.86078 17.0335 8.12474 17.1605 7.8592 16.8557C7.80796 16.7954 7.8592 16.2572 7.8592 16.2572C8.1884 15.6301 11.5503 16.1969 11.7056 16.4159C11.746 16.4382 11.1528 16.2 11.1574 16.0508C11.1714 15.9064 11.1994 15.7238 11.35 15.546C11.5829 15.5381 12.3423 15.5841 12.6808 15.5746C12.6451 15.4571 12.5208 15.3142 12.5441 15.0983C13.1202 15.065 13.833 14.6316 14.6016 14.4538C14.5644 14.6967 14.3113 14.9618 14.4262 15.1317C14.5426 15.1142 14.7662 15.1317 15.316 15.0396C15.0737 15.3555 14.6296 15.5889 14.0644 15.7079C14.2942 15.9032 14.8982 15.9397 15.274 15.954C15.2321 16.1683 15.1063 16.3286 15.0955 16.4874C15.8501 15.6698 16.5629 16.2858 17.7167 16.0381C18.3657 15.1539 18.6841 14.2426 19.4046 14.2426C19.2027 14.5332 18.9558 15.7905 19.1297 16.5017C20.7695 13.7807 23.9047 17.0271 24.8007 11.6963C24.8473 11.882 24.8846 12.5027 24.9187 12.6313L24.7541 12.617C24.3566 16.481 20.7199 15.6936 20.1686 16.5096C20.1251 16.4826 20.1888 16.2461 20.136 16.3159C19.3968 18.2003 16.9961 16.6668 16.3672 18.5416C16.8455 18.3337 17.6343 18.6797 18.5987 18.6353C19.6096 18.2987 19.8503 18.3051 20.5382 18.0558C20.2649 18.6448 20.1375 18.6432 19.7881 19.029C20.2369 19.4036 20.7152 19.7402 21.2152 20.0386C20.914 20.0624 20.6189 20.0736 20.2633 19.964C20.3472 20.3164 20.4279 20.8419 20.3503 21.3452Z" fill="white"/>
<path d="M22.6097 9.5029C22.5663 9.5029 21.237 9.42511 21.2572 9.63625C20.9948 9.58704 20.9094 9.20603 21.1827 8.93457C21.9187 9.02982 22.3551 9.23302 22.6097 9.5029Z" fill="white"/>
<path d="M48.7166 25.3018C48.653 27.5465 48.2337 31.8248 45.7786 36.4143C42.8608 41.869 38.693 44.7233 36.769 45.8742C37.0563 44.3915 37.4368 42.7786 37.9445 41.0689C38.4026 39.5226 38.9042 38.1018 39.4135 36.8144C39.3281 37.5875 39.3933 38.3701 39.6092 39.1162C39.7474 39.5909 39.9446 40.0449 40.1962 40.4672C41.749 38.8591 43.1435 37.0985 44.3578 35.211C46.7461 31.4994 48.0132 27.9465 48.7166 25.3018Z" fill="white"/>
<path d="M23.7786 42.2816C22.6575 42.026 21.6031 41.5244 20.6885 40.8132C20.7211 40.6338 20.7521 40.4512 20.7832 40.2687C20.8546 39.8448 20.9198 39.4289 20.9789 39.0177C21.1807 39.4352 21.5332 39.7559 21.9618 39.9115C22.086 39.7416 22.2242 39.5686 22.378 39.3939C22.8547 38.8589 23.4091 38.4017 24.0209 38.0366C24.3252 39.4463 24.2398 40.9164 23.7786 42.2816Z" fill="white"/>
<path d="M25.5775 40.9135C25.0029 41.4024 24.402 41.8597 23.7793 42.2819C24.1271 40.85 24.256 39.4324 24.0215 38.0353C24.3414 37.9258 24.652 37.7861 24.9455 37.6147C25.5526 37.2591 26.0837 36.7828 26.5092 36.2129C26.6381 37.1051 26.7049 38.5767 26.0232 40.0912C25.8943 40.3769 25.7452 40.6516 25.5775 40.9135Z" fill="white"/>
<path d="M22.2053 48.9571C20.8621 48.8983 19.5515 48.511 18.3838 47.8268C19.5018 46.706 20.1665 45.1963 20.2441 43.5977C20.5453 43.858 20.8746 44.085 21.2239 44.2739C22.1168 44.7565 22.96 44.8851 23.5066 44.9185C23.4445 46.3599 22.9942 47.7585 22.2053 48.9571Z" fill="white"/>
<path d="M23.8424 48.8775C23.302 48.9696 22.7523 48.9966 22.2041 48.9569C22.8998 47.6646 23.3812 46.328 23.5054 44.9167C24.538 44.8103 25.5241 44.4277 26.3657 43.8086C26.535 44.4293 26.6903 45.3882 26.4372 46.474C26.2974 47.0741 26.1266 47.7996 25.507 48.3012C25.052 48.6711 24.5536 48.7553 23.8424 48.8775Z" fill="white"/>
</g>
<defs>
<clipPath id="clip0_2546_6316">
<rect width="48.7158" height="48.7158" fill="white" transform="translate(0 0.258789)"/>
</clipPath>
</defs>
</svg>
