<svg width="40" height="40" viewBox="0 0 40 40" fill="none" xmlns="http://www.w3.org/2000/svg">
    <rect width="40" height="39.9984" rx="10" fill="#FF9900"/>
    <g clip-path="url(#clip0_3816_12496)">
        <path d="M30.7188 20.2109H29.1875C29.0672 20.2109 28.9688 20.3094 28.9688 20.4297V29.1797H11.0312V11.2422H19.7812C19.9016 11.2422 20 11.1437 20 11.0234V9.49219C20 9.37187 19.9016 9.27344 19.7812 9.27344H9.9375C9.45352 9.27344 9.0625 9.66445 9.0625 10.1484V30.2734C9.0625 30.7574 9.45352 31.1484 9.9375 31.1484H30.0625C30.5465 31.1484 30.9375 30.7574 30.9375 30.2734V20.4297C30.9375 20.3094 30.8391 20.2109 30.7188 20.2109Z" fill="#181818"/>
        <path d="M15.7317 20.8371L15.6797 24.0883C15.677 24.3316 15.8739 24.5312 16.1172 24.5312H16.1282L19.3547 24.452C19.4094 24.4492 19.4641 24.4273 19.5024 24.3891L30.8746 13.0414C30.9594 12.9566 30.9594 12.8172 30.8746 12.7324L27.4758 9.33633C27.4321 9.29258 27.3774 9.27344 27.32 9.27344C27.2625 9.27344 27.2078 9.29531 27.1641 9.33633L15.7946 20.684C15.7551 20.7253 15.7326 20.78 15.7317 20.8371ZM17.468 21.4824L27.32 11.6523L28.5559 12.8855L18.6985 22.7211L17.4489 22.7512L17.468 21.4824Z" fill="#181818"/>
    </g>
    <defs>
        <clipPath id="clip0_3816_12496">
            <rect width="28" height="28" fill="white" transform="translate(6 6.21094)"/>
        </clipPath>
    </defs>
</svg>
