<svg width="30" height="31" viewBox="0 0 30 31" fill="none" xmlns="http://www.w3.org/2000/svg">
<path d="M24.9375 26.8496C22.25 26.8496 19.6304 26.2368 17.0788 25.0111C14.5271 23.7854 12.2667 22.1659 10.2975 20.1527C8.32833 18.1394 6.745 15.8274 5.5475 13.2166C4.35 10.6058 3.75083 7.92641 3.75 5.1784C3.75 4.79484 3.875 4.47521 4.125 4.2195C4.375 3.96379 4.6875 3.83594 5.0625 3.83594H10.125C10.4167 3.83594 10.6771 3.93183 10.9063 4.12361C11.1354 4.31539 11.2708 4.56044 11.3125 4.85877L12.125 9.33365C12.1667 9.63198 12.1613 9.90388 12.1088 10.1494C12.0563 10.3948 11.9367 10.613 11.75 10.804L8.75 13.9364C9.625 15.4706 10.7188 16.909 12.0312 18.2515C13.3438 19.5939 14.7917 20.7553 16.375 21.7355L19.3125 18.7309C19.5 18.5391 19.745 18.3955 20.0475 18.3C20.35 18.2046 20.6467 18.1777 20.9375 18.2195L25.25 19.1145C25.5417 19.1784 25.7812 19.3225 25.9688 19.5466C26.1562 19.7708 26.25 20.0316 26.25 20.3291V25.5072C26.25 25.8907 26.125 26.2104 25.875 26.4661C25.625 26.7218 25.3125 26.8496 24.9375 26.8496Z" fill="#181818"/>
</svg>
