<svg width="100" height="100" viewBox="0 0 100 100" fill="none" xmlns="http://www.w3.org/2000/svg">
<g clip-path="url(#clip0_5166_798)">
<path d="M77.5 27.5841C71.5 27.5841 65.8333 29.9174 61.7917 33.9591L50 44.4174L43.6667 50.0007H43.7083L32.5 59.9591C29.8333 62.6258 26.2917 64.0841 22.5 64.0841C14.7083 64.0841 8.375 57.7924 8.375 50.0007C8.375 42.2091 14.7083 35.9174 22.5 35.9174C26.2917 35.9174 29.8333 37.3757 32.6667 40.2091L37.375 44.3757L43.6667 38.7924L38.4167 34.1674C36.3301 32.073 33.8492 30.4128 31.1172 29.2828C28.3852 28.1528 25.4564 27.5755 22.5 27.5841C10.0833 27.5841 0 37.6674 0 50.0007C0 62.3341 10.0833 72.4174 22.5 72.4174C28.5 72.4174 34.1667 70.0841 38.2083 66.0424L50 55.6258L50.0417 55.6674L56.3333 50.0007H56.2917L67.5 40.0424C70.1667 37.3757 73.7083 35.9174 77.5 35.9174C85.2917 35.9174 91.625 42.2091 91.625 50.0007C91.625 57.7924 85.2917 64.0841 77.5 64.0841C73.75 64.0841 70.1667 62.6258 67.3333 59.7924L62.5833 55.5841L56.2917 61.1674L61.5833 65.8341C63.6755 67.918 66.1584 69.5686 68.8897 70.6912C71.621 71.8137 74.547 72.3862 77.5 72.3758C89.9167 72.3758 100 62.3341 100 49.9591C100 37.5841 89.9167 27.5841 77.5 27.5841Z" fill="#181818"/>
</g>
<defs>
<clipPath id="clip0_5166_798">
<rect width="100" height="100" fill="white"/>
</clipPath>
</defs>
</svg>
