<svg width="140" height="140" viewBox="0 0 140 140" fill="none" xmlns="http://www.w3.org/2000/svg">
<path d="M40.8333 105C31.111 105 22.8471 101.597 16.0416 94.7917C9.23603 87.9861 5.83325 79.7222 5.83325 70C5.83325 60.2778 9.23603 52.0139 16.0416 45.2083C22.8471 38.4028 31.111 35 40.8333 35C47.2499 35 53.1319 36.6042 58.4791 39.8125C63.8263 43.0208 68.0555 47.25 71.1666 52.5H122.5C125.708 52.5 128.456 53.6414 130.742 55.9242C133.025 58.2108 134.167 60.9583 134.167 64.1667V75.8333C134.167 79.0417 133.025 81.7872 130.742 84.07C128.456 86.3567 125.708 87.5 122.5 87.5V93.3333C122.5 96.5417 121.359 99.2892 119.076 101.576C116.789 103.859 114.042 105 110.833 105H99.1666C95.9582 105 93.2127 103.859 90.9299 101.576C88.6432 99.2892 87.4999 96.5417 87.4999 93.3333V87.5H71.1666C68.0555 92.75 63.8263 96.9792 58.4791 100.188C53.1319 103.396 47.2499 105 40.8333 105ZM40.8333 93.3333C47.2499 93.3333 52.4027 91.3656 56.2916 87.43C60.1805 83.4906 62.5138 79.625 63.2916 75.8333H99.1666V93.3333H110.833V75.8333H122.5V64.1667H63.2916C62.5138 60.375 60.1805 56.5094 56.2916 52.57C52.4027 48.6344 47.2499 46.6667 40.8333 46.6667C34.4166 46.6667 28.9235 48.9514 24.3541 53.5208C19.7846 58.0903 17.4999 63.5833 17.4999 70C17.4999 76.4167 19.7846 81.9097 24.3541 86.4792C28.9235 91.0486 34.4166 93.3333 40.8333 93.3333ZM40.8333 81.6667C44.0416 81.6667 46.7871 80.5233 49.0699 78.2367C51.3566 75.9539 52.4999 73.2083 52.4999 70C52.4999 66.7917 51.3566 64.0442 49.0699 61.7575C46.7871 59.4747 44.0416 58.3333 40.8333 58.3333C37.6249 58.3333 34.8794 59.4747 32.5966 61.7575C30.3099 64.0442 29.1666 66.7917 29.1666 70C29.1666 73.2083 30.3099 75.9539 32.5966 78.2367C34.8794 80.5233 37.6249 81.6667 40.8333 81.6667Z" fill="#181818"/>
</svg>
