<svg width="28" height="28" viewBox="0 0 28 28" fill="none" xmlns="http://www.w3.org/2000/svg">
<path d="M14.332 18.4688V21.5687" stroke="#FF9900" stroke-width="1.75" stroke-linecap="round"/>
<path d="M17.9499 24.6654H10.7166L11.0679 22.9128C11.1147 22.6787 11.2412 22.4679 11.4258 22.3165C11.6104 22.165 11.8418 22.0822 12.0806 22.082H16.5859C16.8247 22.0822 17.0561 22.165 17.2407 22.3165C17.4253 22.4679 17.5517 22.6787 17.5986 22.9128L17.9499 24.6654Z" stroke="#FF9900" stroke-width="1.75" stroke-linecap="round" stroke-linejoin="round"/>
<path d="M21.5667 7.10156L22.5473 7.4281C23.5703 7.7691 24.0818 7.9396 24.3742 8.3457C24.6667 8.7518 24.6667 9.2912 24.6667 10.369V10.4444C24.6667 11.3331 24.6667 11.7784 24.4528 12.1422C24.2389 12.5059 23.8493 12.7219 23.0722 13.1548L20.0167 14.8516M7.1 7.10156L6.11937 7.4281C5.09637 7.7691 4.58487 7.9396 4.29243 8.3457C4 8.7518 4 9.29223 4 10.369V10.4444C4 11.3331 4 11.7784 4.2139 12.1422C4.4278 12.5059 4.81737 12.7219 5.59443 13.1548L8.65 14.8516M13.4509 8.15866C13.8435 7.4529 14.0399 7.10156 14.3333 7.10156C14.6268 7.10156 14.8231 7.4529 15.2158 8.15866L15.3171 8.34053C15.4287 8.541 15.4845 8.6402 15.5713 8.70633C15.6591 8.77246 15.7676 8.79726 15.9846 8.84583L16.1809 8.8913C16.9435 9.06386 17.3248 9.14963 17.4158 9.44103C17.5067 9.73346 17.2463 10.0373 16.7265 10.6449L16.5922 10.8019C16.4444 10.9745 16.37 11.0603 16.337 11.1677C16.3039 11.2752 16.3153 11.3899 16.337 11.6203L16.3576 11.8301C16.4362 12.6413 16.4754 13.0474 16.2388 13.2272C16.0011 13.407 15.6436 13.2427 14.9296 12.9141L14.7456 12.8293C14.5421 12.7363 14.4408 12.6898 14.3333 12.6898C14.2259 12.6898 14.1246 12.7363 13.921 12.8293L13.7371 12.9141C13.0231 13.2437 12.6655 13.407 12.4279 13.2272C12.1902 13.0474 12.2305 12.6413 12.309 11.8301L12.3297 11.6203C12.3514 11.3899 12.3628 11.2752 12.3297 11.1677C12.2966 11.0613 12.2222 10.9745 12.0745 10.8019L11.9401 10.6449C11.4204 10.0373 11.16 9.73346 11.2509 9.44103C11.3418 9.14963 11.7231 9.06386 12.4857 8.8913L12.6821 8.84583C12.8991 8.79726 13.0076 8.7735 13.0954 8.70633C13.1822 8.6402 13.238 8.541 13.3496 8.34053L13.4509 8.15866Z" stroke="#FF9900" stroke-width="1.75"/>
<path d="M20.5339 24.6669H8.1339M19.5006 4.47145C20.2663 4.61715 20.7209 4.77835 21.1126 5.26195C21.6055 5.86748 21.5796 6.52158 21.5269 7.82978C21.3409 12.5345 20.2869 18.4669 14.3349 18.4669C8.38294 18.4669 7.3279 12.5356 7.13984 7.82978C7.08817 6.52158 7.06234 5.86645 7.55317 5.26195C8.04504 4.65641 8.633 4.55721 9.80997 4.35881C11.3054 4.11373 12.8186 3.99379 14.3339 4.00025C15.0758 4.00025 15.7661 4.02608 16.4006 4.07051" stroke="#FF9900" stroke-width="1.75" stroke-linecap="round"/>
</svg>
