<svg width="22" height="22" viewBox="0 0 22 22" fill="none" xmlns="http://www.w3.org/2000/svg">
<path fill-rule="evenodd" clip-rule="evenodd" d="M19.4575 12.0725C19.4987 11.7287 19.5262 11.3712 19.5262 11C19.5262 10.6287 19.4987 10.2712 19.4437 9.9275L21.7675 8.1125C21.9737 7.9475 22.0287 7.645 21.905 7.41125L19.705 3.6025C19.5675 3.355 19.2787 3.2725 19.0312 3.355L16.295 4.455C15.7175 4.015 15.1125 3.6575 14.4387 3.3825L14.0262 0.4675C13.985 0.1925 13.7512 0 13.4762 0H9.07623C8.80123 0 8.58123 0.1925 8.53998 0.4675L8.12748 3.3825C7.45373 3.6575 6.83498 4.02875 6.27123 4.455L3.53497 3.355C3.28747 3.25875 2.99872 3.355 2.86122 3.6025L0.661225 7.41125C0.523725 7.65875 0.578725 7.9475 0.798725 8.1125L3.12247 9.9275C3.06748 10.2712 3.02622 10.6425 3.02622 11C3.02622 11.3575 3.05372 11.7287 3.10872 12.0725L0.784975 13.8875C0.578725 14.0525 0.523725 14.355 0.647475 14.5887L2.84748 18.3975C2.98497 18.645 3.27373 18.7275 3.52122 18.645L6.25748 17.545C6.83498 17.985 7.43998 18.3425 8.11373 18.6175L8.52623 21.5325C8.58123 21.8075 8.80123 22 9.07623 22H13.4762C13.7512 22 13.985 21.8075 14.0125 21.5325L14.425 18.6175C15.0987 18.3425 15.7175 17.9712 16.2812 17.545L19.0175 18.645C19.265 18.7412 19.5537 18.645 19.6912 18.3975L21.8912 14.5887C22.0287 14.3412 21.9737 14.0525 21.7537 13.8875L19.4575 12.0725ZM11.2773 15.125C9.00859 15.125 7.15234 13.2688 7.15234 11C7.15234 8.73125 9.00859 6.875 11.2773 6.875C13.5461 6.875 15.4023 8.73125 15.4023 11C15.4023 13.2688 13.5461 15.125 11.2773 15.125Z" fill="#D9D9D9"/>
</svg>
