<svg width="20" height="21" viewBox="0 0 20 21" fill="none" xmlns="http://www.w3.org/2000/svg">
<rect y="0.837891" width="20" height="20" rx="2" fill="#979797"/>
<path d="M14.2407 6.947C13.4649 6.58534 12.6249 6.32284 11.7499 6.17117C11.7422 6.17092 11.7346 6.17236 11.7275 6.17539C11.7205 6.17841 11.7142 6.18294 11.7091 6.18867C11.6041 6.38117 11.4816 6.632 11.3999 6.8245C10.4718 6.6845 9.52799 6.6845 8.59991 6.8245C8.51824 6.62617 8.39574 6.38117 8.28491 6.18867C8.27907 6.177 8.26157 6.17117 8.24407 6.17117C7.36907 6.32284 6.53491 6.58534 5.75324 6.947C5.74741 6.947 5.74157 6.95284 5.73574 6.95867C4.14907 9.33284 3.71157 11.6428 3.92741 13.9295C3.92741 13.9412 3.93324 13.9528 3.94491 13.9587C4.99491 14.7287 6.00407 15.1953 7.00157 15.5045C7.01907 15.5103 7.03657 15.5045 7.04241 15.4928C7.27574 15.172 7.48574 14.8337 7.66657 14.4778C7.67824 14.4545 7.66657 14.4312 7.64324 14.4253C7.31074 14.297 6.99574 14.1453 6.68657 13.9703C6.66324 13.9587 6.66324 13.9237 6.68074 13.9062C6.74491 13.8595 6.80907 13.807 6.87324 13.7603C6.88491 13.7487 6.90241 13.7487 6.91407 13.7545C8.92074 14.6703 11.0849 14.6703 13.0682 13.7545C13.0799 13.7487 13.0974 13.7487 13.1091 13.7603C13.1732 13.8128 13.2374 13.8595 13.3016 13.912C13.3249 13.9295 13.3249 13.9645 13.2957 13.9762C12.9924 14.157 12.6716 14.3028 12.3391 14.4312C12.3157 14.437 12.3099 14.4662 12.3157 14.4837C12.5024 14.8395 12.7124 15.1778 12.9399 15.4987C12.9574 15.5045 12.9749 15.5103 12.9924 15.5045C13.9957 15.1953 15.0049 14.7287 16.0549 13.9587C16.0666 13.9528 16.0724 13.9412 16.0724 13.9295C16.3291 11.287 15.6466 8.9945 14.2641 6.95867C14.2582 6.95284 14.2524 6.947 14.2407 6.947ZM7.96991 12.5353C7.36907 12.5353 6.86741 11.9812 6.86741 11.2987C6.86741 10.6162 7.35741 10.062 7.96991 10.062C8.58824 10.062 9.07824 10.622 9.07241 11.2987C9.07241 11.9812 8.58241 12.5353 7.96991 12.5353ZM12.0357 12.5353C11.4349 12.5353 10.9332 11.9812 10.9332 11.2987C10.9332 10.6162 11.4232 10.062 12.0357 10.062C12.6541 10.062 13.1441 10.622 13.1382 11.2987C13.1382 11.9812 12.6541 12.5353 12.0357 12.5353Z" fill="#181818"/>
</svg>
