<svg width="158" height="47" viewBox="0 0 158 47" fill="none" xmlns="http://www.w3.org/2000/svg">
<path d="M64.2186 29.9124C64.3186 30.2024 64.3686 30.5224 64.3686 30.8724C64.3686 31.2124 64.3186 31.5324 64.2186 31.8224C64.1186 32.1224 63.9486 32.3724 63.7286 32.5824C63.5086 32.7924 63.2186 32.9524 62.8586 33.0724C62.4986 33.1924 62.0686 33.2424 61.5586 33.2424H58.4486V35.4424H56.5786V28.5024H61.5586C62.0686 28.5024 62.4986 28.5624 62.8586 28.6724C63.2186 28.7924 63.5086 28.9524 63.7286 29.1624C63.9486 29.3724 64.1186 29.6224 64.2186 29.9124ZM62.4086 31.3124C62.4486 31.2024 62.4786 31.0624 62.4786 30.9024C62.4786 30.7424 62.4486 30.6024 62.4086 30.4824C62.3586 30.3624 62.2886 30.2724 62.1786 30.2024C62.0786 30.1224 61.9386 30.0724 61.7686 30.0324C61.5986 30.0024 61.3986 29.9824 61.1486 29.9824H58.4486V31.7724H61.1486C61.3986 31.7724 61.5986 31.7524 61.7686 31.7224C61.9386 31.6924 62.0786 31.6524 62.1786 31.5824C62.2886 31.5124 62.3586 31.4224 62.4086 31.3124ZM65.3677 28.5024H73.1277V30.0124H70.1777V35.4424H68.3077V30.0124H65.3677V28.5024ZM79.5074 28.4724H81.3774L77.9474 35.4124L77.9374 35.4324H76.0574L77.0074 33.5224L74.1274 28.4724H76.0174L77.9174 31.6824L79.5074 28.4724ZM94.7186 28.5024H97.2586V35.4424H95.3886V30.5724L92.8186 35.4424H91.0186L88.4486 30.5724V35.4424H86.5786V28.5024H89.1186L91.9186 33.7524L94.7186 28.5024ZM104.798 28.5024H106.838V35.4424H104.958V30.6724L100.278 35.4424H98.2583V28.5024H100.118V33.2924L104.798 28.5024ZM115.478 29.9124C115.578 30.2024 115.628 30.5224 115.628 30.8724C115.628 31.2124 115.578 31.5324 115.478 31.8224C115.378 32.1224 115.208 32.3724 114.988 32.5824C114.768 32.7924 114.478 32.9524 114.118 33.0724C113.758 33.1924 113.328 33.2424 112.818 33.2424H109.708V35.4424H107.838V28.5024H112.818C113.328 28.5024 113.758 28.5624 114.118 28.6724C114.478 28.7924 114.768 28.9524 114.988 29.1624C115.208 29.3724 115.378 29.6224 115.478 29.9124ZM113.668 31.3124C113.708 31.2024 113.738 31.0624 113.738 30.9024C113.738 30.7424 113.708 30.6024 113.668 30.4824C113.618 30.3624 113.548 30.2724 113.438 30.2024C113.338 30.1224 113.198 30.0724 113.028 30.0324C112.858 30.0024 112.658 29.9824 112.408 29.9824H109.708V31.7724H112.408C112.658 31.7724 112.858 31.7524 113.028 31.7224C113.198 31.6924 113.338 31.6524 113.438 31.5824C113.548 31.5124 113.618 31.4224 113.668 31.3124ZM124.657 31.2024C124.707 31.4324 124.727 31.6824 124.727 31.9424C124.727 32.2024 124.707 32.4524 124.657 32.6824C124.607 32.9924 124.507 33.2824 124.377 33.5424C124.137 34.0024 123.797 34.3824 123.367 34.6824C122.947 34.9824 122.427 35.2124 121.837 35.3624C121.237 35.5224 120.597 35.5924 119.887 35.5924C119.547 35.5924 119.237 35.5824 118.947 35.5524C118.657 35.5224 118.377 35.4724 118.117 35.4124C117.857 35.3524 117.607 35.2824 117.357 35.2124C117.117 35.1224 116.867 35.0324 116.627 34.9324V33.2424C116.817 33.3524 117.017 33.4624 117.237 33.5624C117.437 33.6624 117.677 33.7524 117.927 33.8424C118.187 33.9124 118.467 33.9824 118.777 34.0324C119.087 34.0824 119.427 34.1024 119.807 34.1024C120.207 34.1024 120.547 34.0824 120.847 34.0224C121.157 33.9724 121.417 33.8924 121.647 33.7924C121.867 33.6924 122.057 33.5824 122.207 33.4424C122.357 33.3124 122.477 33.1624 122.577 33.0024C122.637 32.9024 122.687 32.7924 122.717 32.6824H118.797V31.2024H122.717C122.717 31.1724 122.707 31.1624 122.697 31.1324C122.597 30.8724 122.437 30.6424 122.207 30.4424C121.967 30.2424 121.657 30.0724 121.277 29.9524C120.887 29.8324 120.397 29.7724 119.807 29.7724C119.427 29.7724 119.087 29.8024 118.777 29.8524C118.467 29.9024 118.187 29.9724 117.927 30.0524C117.677 30.1324 117.437 30.2324 117.237 30.3324C117.017 30.4324 116.817 30.5424 116.627 30.6424V28.9524C116.867 28.8624 117.117 28.7624 117.357 28.6824C117.607 28.6024 117.857 28.5324 118.117 28.4724C118.377 28.4124 118.657 28.3724 118.947 28.3424C119.237 28.3124 119.547 28.3024 119.887 28.3024C120.597 28.3024 121.237 28.3724 121.837 28.5224C122.427 28.6724 122.947 28.9024 123.367 29.2024C123.797 29.5124 124.137 29.8924 124.377 30.3524C124.507 30.6124 124.607 30.8924 124.657 31.2024ZM131.449 28.5024L135.079 35.4424H132.989L132.339 34.1224H128.479L127.819 35.4424H125.739L129.359 28.5024H131.449ZM129.149 32.7724H131.679L130.419 30.2224L129.149 32.7724Z" fill="white" fill-opacity="0.8"/>
<path d="M60.4751 21.9619V19.8561L66.0462 23.4779H62.8482L60.4751 21.9619Z" fill="white" fill-opacity="0.8"/>
<path d="M58.2668 23.2516H58.2729V23.4779H56.0786V15.0801H58.2729V15.1772H58.2668V23.2516Z" fill="white" fill-opacity="0.8"/>
<path d="M60.4751 19.4775L65.6727 15.0801H62.7431L60.4751 17.0117V19.4775Z" fill="white" fill-opacity="0.8"/>
<path d="M69.3878 20.7432L69.3855 20.7457V15.0801H67.2146V23.2887H69.3878V20.7432Z" fill="white" fill-opacity="0.8"/>
<path d="M70.9944 19.0769V21.8197L75.0202 17.6616V16.6849H77.2289V15.0801H74.8478L70.9944 19.0769Z" fill="white" fill-opacity="0.8"/>
<path d="M78.3961 17.6864H80.4574V17.6704H84.2086C84.8039 17.6704 85.3057 17.7414 85.7259 17.8715C86.1461 18.0134 86.4846 18.2145 86.7414 18.451C87.0098 18.7113 87.1966 19.007 87.3133 19.35C87.43 19.693 87.4883 20.0715 87.4883 20.4854C87.4883 20.8876 87.43 21.2661 87.3133 21.6091C87.1966 21.9521 87.0098 22.2478 86.7414 22.4962C86.4846 22.7446 86.1461 22.9338 85.7259 23.0639C85.3057 23.2177 84.8039 23.2887 84.2086 23.2887H78.3961V21.5263H83.7417C84.0219 21.5263 84.267 21.5145 84.4654 21.4672C84.6521 21.4317 84.8155 21.3607 84.9322 21.2779C85.0606 21.1833 85.1423 21.0768 85.2007 20.9349C85.2591 20.793 85.2824 20.6392 85.2824 20.4381C85.2824 20.2607 85.2591 20.0951 85.2007 19.965C85.1423 19.8231 85.0606 19.7166 84.9322 19.6338C84.8155 19.551 84.6521 19.5037 84.4654 19.4564C84.267 19.4328 84.0219 19.4091 83.7417 19.4091H78.3961V17.6864Z" fill="white" fill-opacity="0.8"/>
<path d="M77.2289 17.6864H75.0346V23.2887H77.2289V17.6864Z" fill="white" fill-opacity="0.8"/>
<path d="M86.2395 16.6414H78.3961V15.0801H86.2395V16.6414Z" fill="white" fill-opacity="0.8"/>
<path d="M88.6658 19.9414H96.5442V18.1908H88.6658V19.9414Z" fill="white" fill-opacity="0.8"/>
<path d="M88.6658 16.8306H96.8593V15.0801H88.6658V16.8306Z" fill="white" fill-opacity="0.8"/>
<path d="M88.6658 21.5381V23.2887H96.941V21.5381H88.6658Z" fill="white" fill-opacity="0.8"/>
<path d="M106.449 15.8607C106.705 16.1091 106.904 16.4048 107.021 16.7478C107.137 17.0908 107.196 17.4693 107.196 17.8833C107.196 18.2855 107.137 18.6639 107.021 19.007C106.904 19.3618 106.705 19.6575 106.449 19.9059C106.192 20.1543 105.853 20.3435 105.433 20.4854C105.013 20.6274 104.511 20.6865 103.916 20.6865H100.286V23.2887H98.1034V18.9478H103.437C103.729 18.9478 103.963 18.9242 104.161 18.8887C104.359 18.8532 104.523 18.8059 104.64 18.7231C104.768 18.6403 104.85 18.5338 104.908 18.4037C104.955 18.2736 104.99 18.108 104.99 17.9188C104.99 17.7295 104.955 17.5639 104.908 17.422C104.85 17.2801 104.768 17.1736 104.64 17.0908C104.523 16.9962 104.359 16.9371 104.161 16.8898C103.963 16.8543 103.729 16.8306 103.437 16.8306H98.1034V15.0801H103.916C104.511 15.0801 105.013 15.151 105.433 15.2812C105.853 15.4231 106.192 15.6123 106.449 15.8607Z" fill="white" fill-opacity="0.8"/>
<path d="M111.03 17.5419C111.28 17.3118 111.618 17.1278 112.043 16.9897C112.469 16.8517 113.003 16.7827 113.646 16.7827C114.06 16.7827 114.783 16.7827 114.783 16.7827H118.012V15.0801H114.583C114.583 15.0801 113.918 15.0801 113.559 15.0801C112.785 15.0801 112.076 15.1606 111.433 15.3447C110.79 15.5172 110.223 15.7818 109.765 16.1269C109.297 16.4836 108.926 16.9207 108.664 17.4384C108.403 17.9676 108.283 18.5773 108.283 19.279C108.283 19.9808 108.403 20.5905 108.664 21.1196C108.926 21.6373 109.297 22.0745 109.765 22.4311C110.223 22.7762 110.79 23.0408 111.433 23.2134C112.076 23.3859 112.785 23.4779 113.559 23.4779C113.918 23.4779 114.58 23.4779 114.58 23.4779H118.012V21.7639H114.783C114.783 21.7639 114.06 21.7639 113.646 21.7639C113.21 21.7639 112.839 21.7294 112.512 21.6603C112.174 21.6028 111.891 21.5108 111.651 21.3957C111.4 21.2922 111.193 21.1542 111.03 21.0046C110.866 20.8436 110.735 20.671 110.626 20.4869C110.528 20.3029 110.452 20.1073 110.408 19.9002C110.365 19.6932 110.343 19.4861 110.343 19.279C110.343 18.9569 110.398 18.6463 110.496 18.3472C110.594 18.0481 110.779 17.7835 111.03 17.5419Z" fill="white" fill-opacity="0.8"/>
<path d="M119.138 15.3102V23.2939H121.41V17.0588H126.609V23.2939H128.822V15.3102H119.138Z" fill="white" fill-opacity="0.8"/>
<path d="M148.289 16.9322C148.18 16.5986 147.994 16.311 147.755 16.0694C147.515 15.8278 147.199 15.6438 146.806 15.5057C146.414 15.3792 145.945 15.3102 145.389 15.3102H139.961V23.2939H141.999V20.763H145.389C145.945 20.763 146.414 20.7055 146.806 20.5675C147.199 20.4294 147.515 20.2453 147.755 20.0038C147.994 19.7622 148.18 19.4746 148.289 19.1295C148.398 18.7958 148.452 18.4277 148.452 18.0366C148.452 17.634 148.398 17.2658 148.289 16.9322ZM146.316 18.5428C146.261 18.6693 146.185 18.7728 146.065 18.8534C145.956 18.9339 145.804 18.9799 145.618 19.0144C145.433 19.0489 145.215 19.0719 144.942 19.0719H139.961V17.0127H144.942C145.215 17.0127 145.433 17.0357 145.618 17.0703C145.804 17.1163 145.956 17.1738 146.065 17.2658C146.185 17.3464 146.261 17.4499 146.316 17.5879C146.359 17.726 146.392 17.887 146.392 18.0711C146.392 18.2552 146.359 18.4162 146.316 18.5428Z" fill="white" fill-opacity="0.8"/>
<path d="M149.179 15.3102V17.0473H152.507V23.4779H154.545V17.0473H158V15.3102H149.179Z" fill="white" fill-opacity="0.8"/>
<path d="M137.258 16.1499C137.694 16.4951 138.042 16.9437 138.282 17.4614C138.522 17.9906 138.631 18.5888 138.631 19.279C138.631 19.9577 138.522 20.5675 138.282 21.0966C138.042 21.6143 137.705 22.0515 137.258 22.4081C136.811 22.7647 136.277 23.0293 135.644 23.2019C135.012 23.3859 134.293 23.4779 133.508 23.4779V21.7639C134.118 21.7639 134.62 21.6833 135.023 21.5453C135.416 21.3957 135.732 21.2002 135.961 20.9701C136.189 20.7285 136.353 20.4639 136.44 20.1648C136.527 19.8772 136.571 19.5781 136.571 19.279C136.571 18.9799 136.527 18.6808 136.44 18.3817C136.353 18.0941 136.189 17.818 135.961 17.5879C135.732 17.3464 135.416 17.1623 135.023 17.0127C134.62 16.8632 134.118 16.7942 133.508 16.7942V15.0801C134.293 15.0801 135.012 15.1721 135.644 15.3447C136.277 15.5287 136.811 15.7933 137.258 16.1499Z" fill="white" fill-opacity="0.8"/>
<path d="M131.056 20.9701C130.827 20.7285 130.663 20.4639 130.576 20.1648C130.489 19.8772 130.445 19.5781 130.445 19.279C130.445 18.9799 130.489 18.6808 130.576 18.3817C130.663 18.0941 130.827 17.818 131.056 17.5879C131.284 17.3464 131.601 17.1623 131.993 17.0127C132.396 16.8632 133.508 16.7942 133.508 16.7942V21.7764C133.508 21.7764 132.191 21.6132 131.993 21.5453C131.601 21.3957 131.284 21.2002 131.056 20.9701Z" fill="white" fill-opacity="0.8"/>
<g clip-path="url(#clip0_2546_6234)">
<path d="M10.7409 19.3591C10.4601 19.0899 10.2366 18.7614 10.0861 18.399C9.87977 18.3339 9.66484 18.3014 9.44991 18.3014C9.15617 18.3295 9.03867 18.3561 8.80512 18.4582C8.81801 18.6283 8.89395 18.8665 9.05873 19.2659C8.55293 19.2334 8.04283 18.3842 7.99268 18.1283C8.27352 17.9833 8.57012 17.8783 8.87819 17.8146C9.75511 17.6356 10.4844 17.8531 10.8527 17.9951C10.6736 18.4241 10.6349 18.9035 10.7409 19.3591Z" fill="white" fill-opacity="0.8"/>
<path d="M12.4201 18.0367C12.3929 17.9139 12.3643 17.7897 12.337 17.6669C12.1121 18.0323 11.847 18.3208 11.2266 18.5989C12.8128 18.6507 13.3658 18.0856 13.6983 17.4036C13.2612 17.6861 12.9532 17.8533 12.4201 18.0367Z" fill="white" fill-opacity="0.8"/>
<path d="M17.1572 17.9612C16.4508 18.0026 15.3618 17.6475 15.0981 17.8739C15.5008 16.2481 18.0398 17.3724 18.5757 15.7998C18.4195 16.5691 18.5757 16.9419 17.2675 17.5366C17.2675 17.5366 17.6214 17.7777 17.7475 17.7762L17.1572 17.9612Z" fill="white" fill-opacity="0.8"/>
<path d="M9.34229 16.3001C9.67471 16.5694 10.4384 16.3711 10.5588 16.2927C10.2894 16.8209 9.62313 17.0028 9.34229 16.3001Z" fill="white" fill-opacity="0.8"/>
<path d="M15.6827 15.0632C15.664 14.8945 15.5308 14.7629 15.366 14.754C15.2084 14.9005 14.9935 15.0632 14.8315 14.9301C14.8917 14.7318 15.409 14.4123 15.7944 14.1963C15.8475 14.3191 15.8704 14.4522 15.8632 14.5854C15.8503 14.7599 15.7887 14.9271 15.6827 15.0632Z" fill="white" fill-opacity="0.8"/>
<path d="M24.2316 8.94165C22.0379 9.04225 20.4173 10.0157 19.4458 11.9743C19.8499 11.5853 20.2697 11.2361 20.7368 11.0068C20.4245 11.4625 20.1407 12.0809 20.0662 12.6149C20.1766 13.1386 20.6236 13.5632 20.7254 13.6342C21.0091 11.8501 21.7499 10.4062 24.2316 8.94165Z" fill="white" fill-opacity="0.8"/>
<path d="M17.6058 9.75219C16.9983 10.1353 16.3736 10.6753 15.7402 11.7745C16.4409 9.32614 18.5171 6.82454 21.6394 6.12036C19.5044 7.43551 18.5329 9.39715 18.6604 10.7301C18.4656 11.0526 17.6474 11.4446 17.0398 11.7493C17.1416 10.946 17.3508 10.27 17.6058 9.75219Z" fill="white" fill-opacity="0.8"/>
<path d="M8.21185 25.9957C7.49398 25.1509 7.06412 22.8934 7.45243 21.0901C7.57136 22.136 7.86653 23.2766 8.93832 24.253C10.3397 24.0518 10.5245 24.3831 10.4744 24.3831C9.15611 24.932 8.94262 25.364 8.21185 25.9957Z" fill="white" fill-opacity="0.8"/>
<path d="M11.7453 44.5114C13.7771 41.8708 14.9979 38.6635 15.2529 35.3009C15.2529 35.3009 13.3071 36.7906 11.6865 38.1487C12.744 36.2655 13.8631 33.8215 14.5752 30.9176C15.1369 28.6245 15.3131 26.583 15.3146 24.8892C15.5911 25.3966 15.9522 26.0993 16.3219 26.9543C16.6529 27.7177 17.3607 29.3554 17.6745 31.0403C18.1875 33.789 17.5427 36.0968 17.2962 36.9534C16.0195 41.384 12.8027 43.7865 11.7453 44.5114Z" fill="white" fill-opacity="0.8"/>
<path d="M20.1979 26.3034L18.6504 26.2975C18.6991 25.3256 18.9083 24.3699 19.268 23.4705C20.0689 24.1598 20.4272 25.2531 20.1979 26.3034Z" fill="white" fill-opacity="0.8"/>
<path d="M23.9248 29.7056C24.0093 29.2263 24.101 27.6671 24.0953 27.4585L24.4836 26.1685C24.5696 27.3934 24.3661 28.568 23.9248 29.7056Z" fill="white" fill-opacity="0.8"/>
<path d="M21.012 30.2235L19.0317 29.6052C19.1464 28.9306 19.1664 28.4246 19.1492 27.827L19.5375 28.3196L20.5835 26.8994C21.1868 27.8921 21.3415 29.1051 21.012 30.2235Z" fill="white" fill-opacity="0.8"/>
<path d="M22.1463 34.6172C21.0889 34.5254 20.0644 34.1985 19.1416 33.6585C19.3236 33.1659 19.3866 32.7517 19.3952 32.2073C19.3952 32.2073 20.05 32.6955 20.1976 32.66C20.2893 32.4884 20.3954 32.3094 20.5157 32.1289C20.8868 31.5726 21.3368 31.08 21.8526 30.6643C22.2997 31.9292 22.4028 33.2961 22.1463 34.6172Z" fill="white" fill-opacity="0.8"/>
<path d="M40.6792 27.1351C40.546 27.0404 40.2809 25.5373 40.2809 25.5373C40.1634 26.6498 39.8897 27.7386 39.467 28.7683C38.2591 31.7004 36.1557 33.3498 35.1111 34.0555C34.6726 31.8912 34.8475 29.6411 35.614 27.5774C35.5825 28.3037 35.8261 29.0153 36.2932 29.5597C37.9138 26.2371 38.8122 22.589 38.9254 18.8713C39.4341 19.3936 40.3568 20.4838 40.844 22.16C41.5232 24.4914 40.92 26.459 40.6792 27.1351Z" fill="white" fill-opacity="0.8"/>
<path d="M31.1937 8.81108C30.8484 10.0656 30.9917 10.5686 30.9028 11.1899C30.9028 11.1899 30.3927 10.7845 30.1807 9.17648L30.5102 9.69869C30.6908 8.61876 30.4687 7.90423 30.8011 7.46338C33.2785 8.05216 35.574 11.11 33.2957 17.9328C33.2527 16.9579 34.806 10.7979 31.1937 8.81108Z" fill="white" fill-opacity="0.8"/>
<path d="M30.3454 4.30081C29.1304 5.49022 29.0071 6.33937 28.6747 7.92229C28.3881 6.81573 28.3838 5.6781 28.7879 4.11885C29.9299 3.87328 30.2466 4.16767 30.3454 4.30081Z" fill="white" fill-opacity="0.8"/>
<path d="M21.5346 22.738C17.6988 23.6463 17.16 20.8814 16.306 21.5027C15.9134 21.7838 16.7244 22.3001 16.7244 22.3001C16.5983 22.4658 14.31 22.7779 14.4204 21.2409C14.545 20.5885 15.0781 20.2526 15.9521 20.1816C18.378 20.2571 18.2992 22.6329 21.5346 22.738Z" fill="white" fill-opacity="0.8"/>
<path d="M16.5839 18.2481C13.8815 18.6017 14.1967 22.2542 11.1906 21.3977C11.1232 21.4583 11.0215 21.729 11.0688 22.1521C10.9527 22.0856 10.4813 21.9066 10.3051 21.0456C10.0944 21.6033 9.99269 22.2394 10.626 22.8267C10.424 22.8534 9.58862 22.6744 9.3307 21.8163C9.3307 21.8163 9.19171 22.0042 9.03983 22.13C8.89367 21.8814 8.7991 21.4065 8.90084 21.124C9.03553 21.1639 9.3436 21.0722 9.3436 21.0722C8.19013 20.624 8.22882 19.8517 8.19873 19.3295C9.28485 19.9183 9.83794 20.0012 9.83794 20.0012C9.83794 20.0012 9.69895 19.7423 9.55566 19.4434C10.8266 19.9745 11.9987 20.2053 13.4846 19.0203C15.3731 17.572 16.6025 15.5645 16.7258 15.1651C16.7258 15.1651 16.2787 15.2953 15.9663 15.282C16.1569 14.816 16.2615 14.6799 16.346 14.066C16.346 14.066 16.5438 14.3885 16.5739 14.5541C16.6111 14.3944 16.7215 14.0319 16.7258 13.6606C16.2701 13.6251 15.8775 13.7435 14.9791 14.3796C15.0077 14.1917 15.0593 14.0068 15.131 13.8307C14.2455 14.5497 14.5048 15.171 12.9788 15.2287C12.6507 15.2494 10.947 15.2154 10.2449 14.3722C11.3396 13.9861 13.9918 13.0585 14.5621 11.1768C14.6825 11.8232 14.5564 12.6665 14.1824 13.4772C14.575 13.0718 15.1324 12.6147 15.2843 11.8691C15.7528 12.3662 15.8732 12.5822 17.0195 12.8366C17.0281 12.8248 16.7917 12.5881 16.6656 12.3795C17.1083 12.3203 17.7861 12.307 18.2475 12.0659C18.2217 12.6339 18.4939 13.2612 18.716 13.4772C18.716 13.4772 18.4882 12.4253 18.8679 11.7389C18.9123 12.5171 19.1459 13.2493 19.666 13.5556L19.7606 13.0851C20.007 13.6739 20.5014 14.0793 20.5014 14.0793C19.2992 14.1059 18.14 14.5896 17.8549 15.6666C21.9887 15.1237 22.622 13.634 22.9444 11.5303C23.1149 12.7656 23.2869 14.8293 21.6792 15.674C22.0532 15.7066 22.3971 15.5571 22.9573 15.3737C21.6147 17.2629 20.7292 15.5571 19.8938 17.0735C20.553 17.433 20.7292 17.609 20.7292 17.609C20.7292 17.609 19.8308 17.6031 19.4511 17.9093C19.4196 18.2304 20.0142 18.9094 20.755 19.5041C18.1156 19.5485 18.3177 18.6919 16.5839 18.2481Z" fill="white" fill-opacity="0.8"/>
<path d="M25.8936 13.1074C25.0626 13.1473 24.7273 13.1517 24.1455 12.7434C23.9879 12.6221 23.9177 12.3263 23.8389 11.9978C23.7787 11.6487 23.8919 11.3647 23.773 11.1413C23.6326 10.8913 23.4377 10.6768 23.2056 10.5155C23.4033 10.4637 23.9865 10.341 24.3533 10.6723C24.5668 10.8646 24.733 11.1368 24.7631 11.6354C24.8261 12.6754 25.0081 12.523 25.8936 13.1074Z" fill="white" fill-opacity="0.8"/>
<path d="M7.35067 39.0156C8.1717 40.9344 9.23059 42.3265 9.84816 43.0647C8.72192 42.3294 7.67593 41.4699 6.73166 40.4994C6.0009 39.7479 4.51358 38.0925 3.47474 35.9534C3.22829 35.4474 3.01336 34.9267 2.82995 34.3926C1.91005 31.7298 1.89572 29.1587 2.05907 27.376C2.11351 26.7828 2.18802 26.2769 2.25394 25.8834C1.27958 26.6896 0.523026 27.7414 0.0587747 28.9368C-0.303742 25.5712 1.07611 22.4734 3.15808 19.1463C4.04646 17.7276 4.26712 16.8652 4.52647 16.0278C5.13831 14.0677 5.1641 12.322 5.08816 11.1504C5.16697 11.5483 5.24577 11.9463 5.32458 12.3442C5.96508 15.5752 4.88469 16.6847 4.81878 20.3091C4.76863 23.0134 5.24864 24.9721 5.51229 25.8937C5.6871 26.5002 5.86191 26.9944 5.99087 27.3302C6.0926 26.4869 6.20867 25.7561 6.64139 25.1363C6.64139 25.1363 6.73023 27.0476 7.91522 28.4944C8.42532 27.4973 10.0416 26.4248 10.523 26.1452C9.07155 28.4722 7.83068 31.3644 8.37803 35.3675C6.88641 33.5967 6.71017 31.6972 6.57262 30.1395C6.28604 31.3244 6.15565 32.5449 6.18574 33.7669C6.23302 35.6368 6.65572 37.2892 7.21597 38.6843C7.25896 38.7997 7.30481 38.9091 7.35067 39.0156Z" fill="white" fill-opacity="0.8"/>
<path d="M20.198 26.3034C20.2682 25.0578 19.6377 24.0548 19.2681 23.4705C20.3599 23.608 20.9202 24.3788 21.2024 25.0001C21.2024 25.0001 20.6236 26.0445 20.198 26.3034Z" fill="white" fill-opacity="0.8"/>
<path d="M21.96 27.5195C21.9557 27.586 21.9572 27.6511 21.9643 27.7177C21.9916 27.8952 22.4028 28.3908 22.4157 28.6171C22.4429 28.8997 21.364 30.1231 21.0115 30.2237C21.0072 29.1438 21.2178 28.7636 20.5845 26.9011C21.6964 26.0978 22.804 24.6613 23.4287 22.7012C23.5276 24.6051 22.9616 26.1718 21.96 27.5195Z" fill="white" fill-opacity="0.8"/>
<path d="M23.6226 33.1229C23.1569 33.6481 22.664 34.1466 22.1453 34.6171C22.2886 33.2501 22.2341 31.9246 21.8501 30.6657C22.3143 30.2885 22.7313 29.855 23.0924 29.3727C23.9994 28.1611 24.3404 26.9229 24.4837 26.1699C24.4651 26.7173 24.445 27.2646 24.4264 27.812C24.2315 29.1153 23.7372 30.3521 22.9821 31.4157C23.2214 31.7974 23.5137 32.3729 23.6226 33.1229Z" fill="white" fill-opacity="0.8"/>
<path d="M44.6812 21.7024C44.0392 20.2112 42.6479 17.5469 39.8724 15.3086C38.5284 14.2272 37.0267 13.3751 35.4219 12.7848C36.1441 15.8042 35.2027 19.2807 32.5834 23.9925H32.5848C33.1766 23.6197 33.8314 23.3667 34.5149 23.2469C32.1808 25.5236 31.6821 27.9616 31.7595 32.1482C31.2953 31.6275 30.6247 30.0002 30.6247 30.0002C30.4828 30.6274 30.4212 31.2694 30.4441 31.913C30.5186 33.9678 31.4271 34.7948 31.6248 36.5833C31.7609 37.8097 31.4787 38.7284 31.1133 39.9163C30.3223 42.4889 28.8192 44.2198 27.8306 45.1666C29.3337 41.7626 29.689 37.9384 28.8407 34.3007C28.4754 33.0432 27.9122 30.7517 28.3521 27.9424C28.6831 25.8298 29.4168 23.8238 30.2851 22.2217C30.394 22.0678 30.4971 23.8934 30.6404 23.8948C31.0775 22.8326 32.6923 18.2215 31.3239 13.9091C30.6591 12.5156 29.9011 10.3424 30.1475 7.755C30.1862 7.34078 30.2507 6.93099 30.3367 6.52417C31.1591 7.29196 32.4673 8.29644 34.2713 8.80534C35.6483 9.19294 36.1785 8.97251 37.3205 9.27134C39.785 9.91782 41.2824 11.9904 42.1708 13.2316C44.5551 16.5676 44.7026 20.2231 44.6812 21.7024Z" fill="white" fill-opacity="0.8"/>
<path d="M28.8897 6.89563C28.818 7.23736 28.7464 7.5791 28.6747 7.92231C28.5171 7.12197 28.3222 5.56273 28.8395 3.7372C29.139 2.68537 29.629 1.70159 30.2824 0.837646C30.973 3.46499 31.8457 5.6145 35.051 7.14712C33.8646 7.1131 31.1937 6.75953 30.3669 4.25349C29.6806 5.00057 29.096 5.86304 28.8897 6.89563Z" fill="white" fill-opacity="0.8"/>
<path d="M28.523 21.9498C27.8811 23.4218 26.8723 24.2769 26.3508 24.6615C26.9282 22.7783 26.9497 20.7589 26.4138 18.8624C26.2977 19.1982 26.2404 19.6657 25.9195 20.2678C25.6085 18.3106 24.872 16.9333 23.7544 15.6019C24.4823 15.5826 25.2102 15.6152 25.9338 15.698L24.4723 14.3755C25.0497 14.516 26.014 14.8311 26.9769 15.5974C27.5501 16.0531 28.6262 16.9111 29.0016 18.4349C29.3842 19.9778 28.8196 21.2693 28.523 21.9498Z" fill="white" fill-opacity="0.8"/>
<path d="M14.5766 22.5842C14.0135 23.1138 13.3758 22.8905 13.2412 22.744C13.1509 22.6464 13.138 22.531 13.0033 22.3342C12.9259 22.2203 12.7869 22.099 12.4946 21.9733C14.0106 21.6374 13.5363 22.673 14.5766 22.5842Z" fill="white" fill-opacity="0.8"/>
<path d="M22.8317 22.0839C22.4463 21.3945 21.9261 21.0572 21.5221 21.0454C21.4676 21.1963 21.3845 21.5528 21.224 21.8353C20.6953 21.7836 20.4646 21.6785 20.1035 21.3974C20.3285 20.9714 21.3487 19.779 21.6295 19.6074C22.3116 20.2598 22.8489 21.001 22.8317 22.0839Z" fill="white" fill-opacity="0.8"/>
<path d="M3.65823 8.23737C3.57513 8.72556 3.51924 9.21967 3.49345 9.71378C3.41894 11.1059 3.57942 12.4654 3.52068 12.4698H3.51924C2.72543 11.4594 0.581854 8.15749 1.30259 3.25488C4.6068 6.22248 8.09298 9.16789 12.7226 10.81C11.2295 10.807 9.74221 10.6117 8.29644 10.2271C6.66727 9.79218 5.10543 9.12203 3.65823 8.23737Z" fill="white" fill-opacity="0.8"/>
<path d="M18.778 20.4877C17.6661 19.4639 16.9568 19.2154 15.385 19.7909C15.5669 18.958 16.4739 18.6015 17.1574 18.5882C16.0727 18.3707 15.8492 18.5526 15.0984 18.9018C13.1783 19.3589 13.2543 21.396 11.1823 20.5054C11.1336 20.5587 10.9517 20.677 10.7611 20.7495C10.6722 20.5749 10.5748 20.2288 10.4745 20.0867C10.3498 20.1459 10.0862 20.4107 9.73228 20.5927C9.52164 20.6726 8.58454 20.5128 8.40687 19.6503C8.82527 19.8264 9.48296 19.9477 9.87556 20.0128C9.71078 19.7672 9.62911 19.6992 9.63484 19.4639C11.1924 20.1666 12.2613 19.9862 13.4706 19.032C13.1325 19.1533 12.4633 19.2568 12.0779 19.1755C13.8088 18.4047 14.6986 17.1694 14.9895 16.4431C13.7615 17.813 12.4619 16.3647 11.2425 16.8085C11.5406 16.8573 12.0593 16.8573 12.2642 17.2094C12.1424 17.3544 11.9561 17.4002 11.8257 17.4712C10.8041 17.6931 9.64344 16.5259 7.74058 17.4017C7.36374 17.0984 7.3795 16.9046 7.38666 16.8617C8.24352 16.8218 8.39254 16.2685 8.38251 16.2345C8.17618 16.4697 7.49699 16.5881 7.25197 16.304C7.20469 16.2478 7.25197 15.7463 7.25197 15.7463C7.55574 15.162 10.6579 15.6901 10.8012 15.8942C10.8385 15.9149 10.2911 15.693 10.2954 15.554C10.3083 15.4194 10.3341 15.2492 10.4731 15.0835C10.688 15.0761 11.3887 15.1191 11.701 15.1102C11.6681 15.0007 11.5535 14.8676 11.575 14.6664C12.1065 14.6353 12.7642 14.2314 13.4735 14.0657C13.4391 14.2921 13.2056 14.5391 13.3116 14.6974C13.4191 14.6812 13.6254 14.6974 14.1326 14.6116C13.9091 14.906 13.4993 15.1235 12.9777 15.2344C13.1898 15.4164 13.7472 15.4504 14.0939 15.4637C14.0553 15.6635 13.9392 15.8129 13.9292 15.9608C14.6255 15.1989 15.2832 15.7729 16.3479 15.5421C16.9468 14.7181 17.2405 13.869 17.9054 13.869C17.7191 14.1397 17.4913 15.3114 17.6518 15.9741C19.1649 13.4385 22.0579 16.4638 22.8846 11.4961C22.9276 11.6692 22.962 12.2476 22.9935 12.3674L22.8416 12.3541C22.4748 15.9549 19.119 15.2211 18.6104 15.9815C18.5702 15.9564 18.629 15.7359 18.5803 15.801C17.8982 17.557 15.683 16.128 15.1027 17.8751C15.544 17.6813 16.2719 18.0038 17.1617 17.9624C18.0945 17.6488 18.3166 17.6547 18.9514 17.4224C18.6992 17.9713 18.5817 17.9698 18.2593 18.3293C18.6734 18.6784 19.1147 18.992 19.5761 19.2701C19.2981 19.2923 19.0259 19.3027 18.6978 19.2006C18.7751 19.529 18.8497 20.0187 18.778 20.4877Z" fill="white" fill-opacity="0.8"/>
<path d="M20.8625 9.45222C20.8224 9.45222 19.5958 9.37973 19.6145 9.57649C19.3723 9.53063 19.2935 9.17558 19.5457 8.92261C20.2249 9.01137 20.6275 9.20073 20.8625 9.45222Z" fill="white" fill-opacity="0.8"/>
<path d="M44.9523 24.1746C44.8935 26.2664 44.5066 30.2533 42.2413 34.5301C39.5489 39.6132 35.7031 42.2731 33.9277 43.3456C34.1928 41.9639 34.5439 40.4608 35.0124 38.8676C35.4351 37.4267 35.8979 36.1027 36.3679 34.9029C36.2891 35.6233 36.3493 36.3527 36.5485 37.048C36.676 37.4903 36.858 37.9134 37.0901 38.3069C38.523 36.8083 39.8097 35.1677 40.9302 33.4087C43.1339 29.95 44.3032 26.6392 44.9523 24.1746Z" fill="white" fill-opacity="0.8"/>
<path d="M21.9418 39.9981C20.9072 39.7599 19.9343 39.2924 19.0903 38.6296C19.1204 38.4625 19.1491 38.2923 19.1777 38.1222C19.2436 37.7272 19.3038 37.3396 19.3583 36.9565C19.5446 37.3456 19.8698 37.6444 20.2653 37.7894C20.3799 37.6311 20.5074 37.4698 20.6493 37.3071C21.0892 36.8085 21.6007 36.3825 22.1653 36.0422C22.4461 37.3559 22.3673 38.7258 21.9418 39.9981Z" fill="white" fill-opacity="0.8"/>
<path d="M23.6012 38.7229C23.071 39.1786 22.5165 39.6046 21.9419 39.9981C22.2629 38.6637 22.3818 37.3427 22.1654 36.0408C22.4606 35.9388 22.7472 35.8086 23.018 35.6488C23.5782 35.3174 24.0683 34.8736 24.4609 34.3425C24.5798 35.1739 24.6414 36.5453 24.0124 37.9566C23.8935 38.2229 23.7559 38.4788 23.6012 38.7229Z" fill="white" fill-opacity="0.8"/>
<path d="M20.4902 46.2184C19.2507 46.1637 18.0414 45.8027 16.9639 45.1651C17.9955 44.1207 18.6088 42.7138 18.6804 41.2241C18.9584 41.4667 19.2622 41.6783 19.5846 41.8543C20.4085 42.3041 21.1865 42.4239 21.6909 42.4549C21.6336 43.7982 21.2181 45.1015 20.4902 46.2184Z" fill="white" fill-opacity="0.8"/>
<path d="M22.0005 46.1445C21.5018 46.2303 20.9946 46.2555 20.4888 46.2185C21.1307 45.0143 21.5749 43.7686 21.6895 42.4535C22.6424 42.3544 23.5523 41.9978 24.3289 41.4209C24.4851 41.9993 24.6283 42.8929 24.3948 43.9047C24.2658 44.4639 24.1082 45.14 23.5365 45.6075C23.1167 45.9522 22.6567 46.0306 22.0005 46.1445Z" fill="white" fill-opacity="0.8"/>
</g>
<defs>
<clipPath id="clip0_2546_6234">
<rect width="44.9521" height="45.3972" fill="white" transform="translate(0 0.837891)"/>
</clipPath>
</defs>
</svg>
