<svg width="20" height="21" viewBox="0 0 20 21" fill="none" xmlns="http://www.w3.org/2000/svg">
<rect y="0.837891" width="20" height="20" rx="2" fill="#979797"/>
<path d="M14.6665 6.17114H5.33317C4.6915 6.17114 4.17234 6.69614 4.17234 7.33781L4.1665 14.3378C4.1665 14.9795 4.6915 15.5045 5.33317 15.5045H14.6665C15.3082 15.5045 15.8332 14.9795 15.8332 14.3378V7.33781C15.8332 6.69614 15.3082 6.17114 14.6665 6.17114ZM14.4332 8.65031L10.309 11.2286C10.1223 11.3453 9.87734 11.3453 9.69067 11.2286L5.5665 8.65031C5.50801 8.61747 5.45679 8.57311 5.41594 8.51991C5.37509 8.4667 5.34546 8.40576 5.32884 8.34078C5.31222 8.27579 5.30896 8.2081 5.31926 8.14182C5.32956 8.07554 5.3532 8.01203 5.38875 7.95515C5.4243 7.89827 5.47103 7.84919 5.52609 7.81089C5.58116 7.77259 5.64343 7.74586 5.70913 7.73232C5.77482 7.71878 5.84259 7.71871 5.90831 7.73211C5.97404 7.74552 6.03636 7.77212 6.0915 7.81031L9.99984 10.2545L13.9082 7.81031C13.9633 7.77212 14.0256 7.74552 14.0914 7.73211C14.1571 7.71871 14.2249 7.71878 14.2905 7.73232C14.3562 7.74586 14.4185 7.77259 14.4736 7.81089C14.5286 7.84919 14.5754 7.89827 14.6109 7.95515C14.6465 8.01203 14.6701 8.07554 14.6804 8.14182C14.6907 8.2081 14.6875 8.27579 14.6708 8.34078C14.6542 8.40576 14.6246 8.4667 14.5837 8.51991C14.5429 8.57311 14.4917 8.61747 14.4332 8.65031Z" fill="#181818"/>
</svg>
