<svg width="20" height="21" viewBox="0 0 20 21" fill="none" xmlns="http://www.w3.org/2000/svg">
<rect y="0.837891" width="20" height="20" rx="2" fill="#979797"/>
<path d="M5.3625 16.0879C5.1875 16.0879 5.04167 16.0296 4.925 15.9129C4.80833 15.7962 4.75 15.6504 4.75 15.4754V13.1129C4.75 12.9768 4.79375 12.8576 4.88125 12.7553C4.96875 12.6534 5.08056 12.5879 5.21667 12.5587L7.22917 12.1504C7.36528 12.1309 7.50392 12.143 7.64508 12.1866C7.78586 12.2305 7.9 12.2962 7.9875 12.3837L9.35833 13.7546C10.0972 13.3073 10.7729 12.7775 11.3854 12.165C11.9979 11.5525 12.5083 10.8962 12.9167 10.1962L11.5167 8.76706C11.4292 8.67956 11.3732 8.57981 11.3487 8.46781C11.3246 8.3562 11.3222 8.23234 11.3417 8.09622L11.7208 6.05456C11.7403 5.91845 11.8035 5.80664 11.9104 5.71914C12.0174 5.63164 12.1389 5.58789 12.275 5.58789H14.6375C14.8125 5.58789 14.9583 5.64622 15.075 5.76289C15.1917 5.87956 15.25 6.02539 15.25 6.20039C15.25 7.45456 14.9704 8.67703 14.4112 9.86781C13.8523 11.059 13.1134 12.1138 12.1945 13.0324C11.2759 13.9513 10.2213 14.6902 9.0305 15.2491C7.83933 15.8083 6.61667 16.0879 5.3625 16.0879Z" fill="#181818"/>
</svg>
