<svg width="20" height="21" viewBox="0 0 20 21" fill="none" xmlns="http://www.w3.org/2000/svg">
<rect y="0.837891" width="20" height="20" rx="2" fill="#979797"/>
<g clip-path="url(#clip0_2546_6222)">
<path fill-rule="evenodd" clip-rule="evenodd" d="M16.6792 7.30764C16.776 6.98914 16.6792 6.75464 16.2154 6.75464H14.6842C14.2945 6.75464 14.1148 6.95706 14.0174 7.18047C14.0174 7.18047 13.2387 9.04481 12.1356 10.2558C11.7786 10.607 11.6164 10.7184 11.4216 10.7184C11.3242 10.7184 11.1777 10.607 11.1777 10.2879V7.30764C11.1777 6.92497 11.0704 6.75464 10.7461 6.75464H8.33808C8.09483 6.75464 7.94842 6.93197 7.94842 7.10056C7.94842 7.46281 8.50025 7.54681 8.55683 8.56647V10.782C8.55683 11.2679 8.46758 11.356 8.27275 11.356C7.75358 11.356 6.49067 9.48289 5.74108 7.33972C5.59583 6.92264 5.44883 6.75464 5.05742 6.75464H3.525C3.0875 6.75464 3 6.95706 3 7.18047C3 7.57831 3.51917 9.55464 5.41792 12.1686C6.68375 13.9536 8.46583 14.9213 10.0892 14.9213C11.0628 14.9213 11.183 14.7066 11.183 14.3362V12.987C11.183 12.5571 11.2752 12.4713 11.5837 12.4713C11.8112 12.4713 12.2003 12.5833 13.1092 13.4437C14.1475 14.464 14.3184 14.9213 14.9029 14.9213H16.4342C16.8717 14.9213 17.091 14.7066 16.965 14.282C16.8262 13.8596 16.3303 13.2466 15.6729 12.5191C15.3159 12.105 14.7804 11.6587 14.6177 11.4353C14.3907 11.1489 14.4555 11.0211 14.6177 10.7662C14.6177 10.7662 16.4843 8.18439 16.6786 7.30764H16.6792Z" fill="#181818"/>
</g>
<defs>
<clipPath id="clip0_2546_6222">
<rect width="14" height="14" fill="white" transform="translate(3 3.83789)"/>
</clipPath>
</defs>
</svg>
